<svg width="91" height="91" viewBox="0 0 91 91" fill="none" xmlns="http://www.w3.org/2000/svg">
<g clip-path="url(#clip0_745_93)">
<ellipse cx="45.776" cy="45.3449" rx="45.3878" ry="45.4721" fill="#D9D9D9"/>
<path fill-rule="evenodd" clip-rule="evenodd" d="M76.5331 8.63849C77.1471 8.63849 77.7359 8.92709 78.1701 9.44081C78.6042 9.95452 78.8481 10.6513 78.8481 11.3778V19.5956H85.7932C86.4072 19.5956 86.9961 19.8842 87.4302 20.3979C87.8644 20.9117 88.1083 21.6084 88.1083 22.3349C88.1083 23.0614 87.8644 23.7582 87.4302 24.2719C86.9961 24.7856 86.4072 25.0742 85.7932 25.0742H78.8481V33.2921C78.8481 34.0186 78.6042 34.7153 78.1701 35.229C77.7359 35.7427 77.1471 36.0313 76.5331 36.0313C75.9191 36.0313 75.3303 35.7427 74.8961 35.229C74.4619 34.7153 74.218 34.0186 74.218 33.2921V25.0742H67.2729C66.6589 25.0742 66.0701 24.7856 65.636 24.2719C65.2018 23.7582 64.9579 23.0614 64.9579 22.3349C64.9579 21.6084 65.2018 20.9117 65.636 20.3979C66.0701 19.8842 66.6589 19.5956 67.2729 19.5956H74.218V11.3778C74.218 10.6513 74.4619 9.95452 74.8961 9.44081C75.3303 8.92709 75.9191 8.63849 76.5331 8.63849ZM44.8942 26.9004C43.4755 26.9004 42.0706 27.231 40.7599 27.8735C39.4492 28.5159 38.2582 29.4575 37.255 30.6445C36.2518 31.8316 35.456 33.2408 34.9131 34.7918C34.3702 36.3427 34.0907 38.005 34.0907 39.6837C34.0907 41.3625 34.3702 43.0247 34.9131 44.5757C35.456 46.1266 36.2518 47.5359 37.255 48.7229C38.2582 49.9099 39.4492 50.8516 40.7599 51.494C42.0706 52.1364 43.4755 52.4671 44.8942 52.4671C47.7595 52.4671 50.5074 51.1202 52.5335 48.7229C54.5595 46.3256 55.6977 43.0741 55.6977 39.6837C55.6977 36.2934 54.5595 33.0419 52.5335 30.6445C50.5074 28.2472 47.7595 26.9004 44.8942 26.9004ZM29.4606 39.6837C29.4608 36.5548 30.1404 33.4784 31.4343 30.7496C32.7281 28.0208 34.5928 25.7312 36.8495 24.1002C39.1062 22.4693 41.6792 21.5518 44.3217 21.4357C46.9642 21.3196 49.5876 22.0089 51.9403 23.4374C54.293 24.8658 56.296 26.9856 57.7572 29.5934C59.2185 32.2012 60.089 35.2095 60.2853 38.3298C60.4815 41.4501 59.9969 44.5777 58.8779 47.4127C57.759 50.2477 56.0432 52.6949 53.8951 54.5197C58.3519 56.6211 62.1924 60.218 64.9443 64.868C67.6962 69.5181 69.2395 75.0185 69.3842 80.6927C69.4 81.0569 69.3541 81.4212 69.2492 81.7642C69.1444 82.1072 68.9827 82.422 68.7737 82.6901C68.5647 82.9581 68.3125 83.1741 68.032 83.3253C67.7515 83.4765 67.4483 83.5599 67.1402 83.5706C66.832 83.5813 66.5252 83.5191 66.2377 83.3876C65.9502 83.2561 65.6877 83.058 65.4658 82.8049C65.2438 82.5518 65.0668 82.2488 64.9451 81.9137C64.8235 81.5786 64.7596 81.2181 64.7573 80.8534C64.5992 74.7145 62.4271 68.8896 58.7014 64.6134C54.9757 60.3371 49.9891 57.9456 44.7985 57.9456C39.608 57.9456 34.6214 60.3371 30.8957 64.6134C27.17 68.8896 24.9979 74.7145 24.8398 80.8534C24.8089 81.5686 24.5425 82.2411 24.0977 82.7268C23.6528 83.2124 23.0649 83.4726 22.4599 83.4516C21.8549 83.4306 21.2809 83.13 20.8609 82.6143C20.4409 82.0986 20.2082 81.4088 20.2128 80.6927C20.359 74.9918 21.9168 69.4673 24.6929 64.8047C27.4689 60.1421 31.341 56.5468 35.8285 54.4649C33.8549 52.7725 32.2487 50.5503 31.1417 47.9808C30.0348 45.4113 29.4586 42.5678 29.4606 39.6837Z" fill="#5B8DF0"/>
</g>
<defs>
<clipPath id="clip0_745_93">
<rect width="91" height="91" fill="white"/>
</clipPath>
</defs>
</svg>
