<svg width="1293" height="873" viewBox="0 0 1293 873" fill="none" xmlns="http://www.w3.org/2000/svg">
<g opacity="0.05" clip-path="url(#clip0_53_2233)">
<path d="M1245.8 871.354L75.7576 871.354C75.7576 871.354 29.2387 885.264 3.57863 774.582C-22.0814 663.901 109.982 634.24 141.384 538.657C172.786 443.074 35.7916 463.195 47.3078 332.393C58.824 201.59 247.073 199.064 338.392 216.689C429.71 234.313 418.292 173.92 523.884 73.2845C629.476 -27.3509 789.211 -17.2458 869.078 60.7125C948.945 138.671 923.318 219.185 1023.2 219.185C1123.08 219.185 1214.4 236.81 1274.32 405.328C1334.24 573.846 1224.72 650.883 1226.7 726.85C1228.37 775.442 1234.77 823.801 1245.8 871.354Z" fill="#92E3A9"/>
<path opacity="0.6" d="M1245.8 871.354L75.7576 871.354C75.7576 871.354 29.2387 885.264 3.57863 774.582C-22.0814 663.901 109.982 634.24 141.384 538.657C172.786 443.074 35.7916 463.195 47.3078 332.393C58.824 201.59 247.073 199.064 338.392 216.689C429.71 234.313 418.292 173.92 523.884 73.2845C629.476 -27.3509 789.211 -17.2458 869.078 60.7125C948.945 138.671 923.318 219.185 1023.2 219.185C1123.08 219.185 1214.4 236.81 1274.32 405.328C1334.24 573.846 1224.72 650.883 1226.7 726.85C1228.37 775.442 1234.77 823.801 1245.8 871.354Z" fill="white"/>
<path d="M735.133 57.6215L514.541 57.6215L514.541 348.888L735.133 348.888L735.133 57.6215Z" fill="#92E3A9"/>
<path opacity="0.4" d="M735.133 57.6215L514.541 57.6215L514.541 348.888L735.133 348.888L735.133 57.6215Z" fill="white"/>
<path d="M703.634 99.231L546.073 99.231L546.073 307.278L703.634 307.278L703.634 99.231Z" fill="white"/>
<path d="M338.879 231.995L185.827 231.995L185.827 434.098L338.879 434.098L338.879 231.995Z" fill="#92E3A9"/>
<path opacity="0.4" d="M338.879 231.995L185.827 231.995L185.827 434.098L338.879 434.098L338.879 231.995Z" fill="white"/>
<path d="M317.014 260.854L207.691 260.854L207.691 405.209L317.014 405.209L317.014 260.854Z" fill="white"/>
<path d="M1081.75 231.995L928.703 231.995L928.703 434.098L1081.75 434.098L1081.75 231.995Z" fill="#92E3A9"/>
<path opacity="0.4" d="M1081.75 231.995L928.703 231.995L928.703 434.098L1081.75 434.098L1081.75 231.995Z" fill="white"/>
<path d="M1059.89 260.854L950.567 260.854L950.567 405.209L1059.89 405.209L1059.89 260.854Z" fill="white"/>
<path d="M911.282 636.32C904.794 651.181 897.917 639.292 898.987 576.7C899.507 547.395 901.745 487.537 937.137 500.703C971.102 513.364 926.334 601.903 926.334 601.903L911.282 636.32ZM959.942 645.236C959.942 645.236 1033.68 574.827 1006.01 552.745C977.233 529.741 953.876 585.705 943.009 613.286C919.846 672.104 921.987 685.449 933.504 673.293L959.942 645.236ZM975.481 708.423C975.481 708.423 1042.99 664.377 1025.34 643.81C1006.98 622.411 980.282 662.118 967.598 681.734C940.576 723.641 940.121 734.132 950.827 726.316L975.481 708.423ZM993.745 771.432C993.745 771.432 1061.28 727.385 1043.64 706.819C1025.24 685.419 998.546 725.097 985.894 744.743C958.872 786.62 958.385 797.141 969.123 789.324L993.745 771.432ZM875.858 644.761C875.858 644.761 781.36 599.704 766.016 630.227C750.023 661.999 815.195 666.814 847.116 668.597C915.24 672.461 928.638 666.814 912.677 660.097L875.858 644.761ZM889.158 694.336C889.158 694.336 786.778 667.408 778.343 700.131C769.584 734.162 834.497 726.88 866.191 722.957C933.796 714.338 945.669 706.373 928.573 702.687L889.158 694.336ZM912.58 748.428C912.58 748.428 825.349 727.802 819.023 755.65C812.535 784.628 867.196 777.198 893.894 773.096C950.827 764.358 960.688 757.374 946.155 754.64L912.58 748.428ZM926.237 793.01C926.237 793.01 841.893 764.002 832.388 791.078C822.494 819.283 877.804 817.202 904.794 815.716C962.44 812.566 972.918 806.592 958.872 802.431L926.237 793.01ZM869.694 566.743C869.694 566.743 831.188 457.073 787.459 477.015C742.043 497.82 794.531 547.187 820.84 570.874C876.928 621.4 894.284 624.907 886.92 607.283L869.694 566.743Z" fill="white"/>
<path d="M805.755 516.217C805.755 516.217 902.491 624.342 925.621 678.464C952.221 740.671 970.323 810.723 973.924 868.679" stroke="#CCCCCC" stroke-width="1.25197" stroke-linecap="round" stroke-linejoin="round"/>
<path d="M906.351 643.126L919.814 540.024" stroke="#CCCCCC" stroke-width="1.25197" stroke-linecap="round" stroke-linejoin="round"/>
<path d="M925.621 678.435L974.281 591.768" stroke="#CCCCCC" stroke-width="1.25197" stroke-linecap="round" stroke-linejoin="round"/>
<path d="M918.516 665.595L816.59 646.574" stroke="#CCCCCC" stroke-width="1.25197" stroke-linecap="round" stroke-linejoin="round"/>
<path d="M944.76 727.623L1004.68 665.09" stroke="#CCCCCC" stroke-width="1.25197" stroke-linecap="round" stroke-linejoin="round"/>
<path d="M936.391 707.027L859.476 706.402" stroke="#CCCCCC" stroke-width="1.25197" stroke-linecap="round" stroke-linejoin="round"/>
<path d="M951.216 758.206L892.208 760.316" stroke="#CCCCCC" stroke-width="1.25197" stroke-linecap="round" stroke-linejoin="round"/>
<path d="M963.316 790.84L994.912 752.262" stroke="#CCCCCC" stroke-width="1.25197" stroke-linecap="round" stroke-linejoin="round"/>
<path d="M965.652 805.195L896.619 802.045" stroke="#CCCCCC" stroke-width="1.25197" stroke-linecap="round" stroke-linejoin="round"/>
<path d="M1157.89 721.709C1145.99 725.81 1149.62 716.626 1186.44 686.43C1203.7 672.253 1239.58 643.929 1249.31 667.646C1258.68 690.442 1185.27 712.228 1185.27 712.228L1157.89 721.709ZM1176.61 749.736C1176.61 749.736 1253.75 751.073 1252.97 726.731C1252.16 701.409 1208.21 717.518 1186.86 725.78C1141.44 743.405 1134.6 751.014 1147.32 750.657L1176.61 749.736ZM1147.58 788.373C1147.58 788.373 1206.32 799.637 1209.6 780.913C1212.84 761.446 1176.8 767.955 1159.19 771.432C1121.59 778.833 1115.27 783.766 1125.03 785.193L1147.58 788.373ZM1120.1 828.288C1120.1 828.288 1178.88 839.553 1182.12 820.828C1185.53 801.361 1149.36 807.84 1131.71 811.318C1094.15 818.718 1087.66 823.652 1097.39 825.079L1120.1 828.288ZM1135.7 708.572C1135.7 708.572 1115.39 640.362 1090.29 647.882C1063.98 655.698 1093.24 689.848 1107.9 706.283C1139.14 741.384 1149 745.129 1145.05 734.043L1135.7 708.572ZM1113.45 739.422C1113.45 739.422 1078.77 676.295 1055.64 688.243C1031.54 700.726 1067.61 728.842 1085.52 742.276C1123.76 770.986 1134.18 772.859 1127.98 762.724L1113.45 739.422ZM1093.56 777.406C1093.56 777.406 1062.65 724.77 1043.38 735.38C1023.33 746.437 1054.54 769.441 1070.04 780.437C1103.1 803.887 1111.99 805.255 1106.44 796.814L1093.56 777.406ZM1074.36 806.027C1074.36 806.027 1049.7 750.657 1029.33 759.335C1008.12 768.252 1036.47 794.287 1050.61 806.741C1080.78 833.281 1089.54 835.511 1084.93 826.565L1074.36 806.027ZM1177.87 667.319C1177.87 667.319 1222.61 594.651 1189.55 583.149C1155.17 571.261 1152.28 621.103 1151.47 645.563C1149.72 697.753 1156.2 707.978 1162.82 695.673L1177.87 667.319Z" fill="white"/>
<path d="M1175.73 611.325C1175.73 611.325 1160.52 711.603 1140.47 749.498C1117.44 793.009 1082.66 839.345 1050.74 869.601" stroke="#CCCCCC" stroke-width="1.25197" stroke-linecap="round" stroke-linejoin="round"/>
<path d="M1151.5 722.66L1217.97 678.554" stroke="#CCCCCC" stroke-width="1.25197" stroke-linecap="round" stroke-linejoin="round"/>
<path d="M1140.47 749.409L1214.69 730.506" stroke="#CCCCCC" stroke-width="1.25197" stroke-linecap="round" stroke-linejoin="round"/>
<path d="M1144.43 739.63L1105.37 680.604" stroke="#CCCCCC" stroke-width="1.25197" stroke-linecap="round" stroke-linejoin="round"/>
<path d="M1121.33 782.905L1187.09 781.359" stroke="#CCCCCC" stroke-width="1.25197" stroke-linecap="round" stroke-linejoin="round"/>
<path d="M1129.18 768.698L1091.71 730.892" stroke="#CCCCCC" stroke-width="1.25197" stroke-linecap="round" stroke-linejoin="round"/>
<path d="M1106.73 801.064L1076.5 773.364" stroke="#CCCCCC" stroke-width="1.25197" stroke-linecap="round" stroke-linejoin="round"/>
<path d="M1093.72 823.028L1131.68 819.461" stroke="#CCCCCC" stroke-width="1.25197" stroke-linecap="round" stroke-linejoin="round"/>
<path d="M1086.52 831.201L1054.44 796.041" stroke="#CCCCCC" stroke-width="1.25197" stroke-linecap="round" stroke-linejoin="round"/>
<path d="M163.8 636.32C157.312 651.181 150.435 639.292 151.505 576.7C152.024 547.395 154.262 487.537 189.654 500.703C223.652 513.364 178.852 601.903 178.852 601.903L163.8 636.32ZM212.46 645.236C212.46 645.236 286.196 574.827 258.557 552.745C229.75 529.741 206.394 585.705 195.526 613.286C172.364 672.104 174.505 685.449 186.021 673.293L212.46 645.236ZM227.999 708.364C227.999 708.364 295.539 664.317 277.859 643.75C259.498 622.351 232.8 662.059 220.116 681.675C193.093 723.581 192.639 734.073 203.377 726.256L227.999 708.364ZM246.295 771.373C246.295 771.373 313.737 727.237 296.123 706.759C277.729 685.36 251.031 725.037 238.379 744.683C211.357 786.56 210.87 797.081 221.608 789.265L246.295 771.373ZM128.31 644.702C128.31 644.702 33.8452 599.644 18.4686 630.168C2.47567 661.94 67.6476 666.755 99.5686 668.538C167.693 672.402 181.058 666.755 165.097 660.038L128.31 644.702ZM141.611 694.276C141.611 694.276 39.2626 667.349 30.7958 700.072C22.037 734.102 86.9494 726.821 118.643 722.898C186.248 714.279 198.154 706.313 181.058 702.628L141.611 694.276ZM165.033 748.368C165.033 748.368 77.8014 727.742 71.4756 755.591C64.9875 784.569 119.649 777.138 146.347 773.037C203.279 764.299 213.141 757.315 198.608 754.58L165.033 748.368ZM178.69 792.95C178.69 792.95 94.3458 763.942 84.8408 791.018C74.9466 819.223 130.257 817.143 157.247 815.657C214.893 812.507 225.371 806.533 211.357 802.372L178.69 792.95ZM122.212 566.743C122.212 566.743 83.7054 457.191 39.8466 477.134C-5.56945 497.939 46.9185 547.306 73.2273 570.993C129.349 621.519 146.704 625.026 139.308 607.402L122.212 566.743Z" fill="white"/>
<path d="M58.2725 516.217C58.2725 516.217 155.009 624.342 178.138 678.464C204.739 740.671 222.841 810.723 226.441 868.679" stroke="#CCCCCC" stroke-width="1.25197" stroke-linecap="round" stroke-linejoin="round"/>
<path d="M158.901 643.126L172.332 540.024" stroke="#CCCCCC" stroke-width="1.25197" stroke-linecap="round" stroke-linejoin="round"/>
<path d="M178.138 678.435L226.798 591.768" stroke="#CCCCCC" stroke-width="1.25197" stroke-linecap="round" stroke-linejoin="round"/>
<path d="M171.034 665.595L69.1396 646.574" stroke="#CCCCCC" stroke-width="1.25197" stroke-linecap="round" stroke-linejoin="round"/>
<path d="M197.278 727.623L257.195 665.09" stroke="#CCCCCC" stroke-width="1.25197" stroke-linecap="round" stroke-linejoin="round"/>
<path d="M188.908 707.027L111.993 706.402" stroke="#CCCCCC" stroke-width="1.25197" stroke-linecap="round" stroke-linejoin="round"/>
<path d="M203.733 758.206L144.725 760.316" stroke="#CCCCCC" stroke-width="1.25197" stroke-linecap="round" stroke-linejoin="round"/>
<path d="M215.866 790.84L247.463 752.262" stroke="#CCCCCC" stroke-width="1.25197" stroke-linecap="round" stroke-linejoin="round"/>
<path d="M218.169 805.195L149.137 802.045" stroke="#CCCCCC" stroke-width="1.25197" stroke-linecap="round" stroke-linejoin="round"/>
<path d="M410.409 721.709C398.503 725.81 402.137 716.626 438.956 686.43C456.247 672.253 492.093 643.929 501.825 667.646C511.2 690.442 437.788 712.228 437.788 712.228L410.409 721.709ZM429.127 749.736C429.127 749.736 506.269 751.073 505.491 726.731C504.68 701.409 460.723 717.518 439.378 725.78C393.962 743.405 387.117 751.014 399.833 750.657L429.127 749.736ZM400.093 788.373C400.093 788.373 458.842 799.637 462.118 780.913C465.362 761.446 429.321 767.955 411.706 771.432C373.979 778.833 367.783 783.707 377.547 785.193L400.093 788.373ZM372.486 828.288C372.486 828.288 431.268 839.553 434.512 820.828C437.918 801.361 401.747 807.84 384.132 811.318C346.502 818.748 340.176 823.682 349.973 825.108L372.486 828.288ZM388.09 708.572C388.09 708.572 367.815 640.362 342.674 647.882C316.365 655.698 345.594 689.848 360.257 706.283C391.496 741.384 401.358 745.129 397.4 734.043L388.09 708.572ZM365.836 739.422C365.836 739.422 331.158 676.295 308.028 688.243C283.925 700.726 319.999 728.842 337.938 742.276C376.185 770.986 386.598 772.859 380.369 762.724L365.836 739.422ZM345.951 777.406C345.951 777.406 315.035 724.77 295.766 735.38C275.718 746.437 306.925 769.441 322.432 780.437C355.488 803.887 364.409 805.255 358.829 796.814L345.951 777.406ZM326.746 806.027C326.746 806.027 302.124 750.657 281.719 759.335C260.504 768.252 288.889 794.287 303 806.741C333.169 833.281 341.928 835.511 337.322 826.565L326.746 806.027ZM430.262 667.319C430.262 667.319 475.029 594.651 441.973 583.149C407.554 571.261 404.699 621.103 403.856 645.563C402.137 697.753 408.592 707.978 415.21 695.673L430.262 667.319Z" fill="white"/>
<path d="M428.251 611.325C428.251 611.325 413.036 711.603 392.988 749.498C369.956 793.009 335.18 839.345 303.259 869.601" stroke="#CCCCCC" stroke-width="1.25197" stroke-linecap="round" stroke-linejoin="round"/>
<path d="M404.018 722.66L470.488 678.554" stroke="#CCCCCC" stroke-width="1.25197" stroke-linecap="round" stroke-linejoin="round"/>
<path d="M392.988 749.409L467.211 730.506" stroke="#CCCCCC" stroke-width="1.25197" stroke-linecap="round" stroke-linejoin="round"/>
<path d="M396.946 739.63L357.888 680.604" stroke="#CCCCCC" stroke-width="1.25197" stroke-linecap="round" stroke-linejoin="round"/>
<path d="M373.849 782.905L439.604 781.359" stroke="#CCCCCC" stroke-width="1.25197" stroke-linecap="round" stroke-linejoin="round"/>
<path d="M381.699 768.698L344.231 730.892" stroke="#CCCCCC" stroke-width="1.25197" stroke-linecap="round" stroke-linejoin="round"/>
<path d="M359.251 801.064L329.017 773.364" stroke="#CCCCCC" stroke-width="1.25197" stroke-linecap="round" stroke-linejoin="round"/>
<path d="M346.242 823.028L384.197 819.461" stroke="#CCCCCC" stroke-width="1.25197" stroke-linecap="round" stroke-linejoin="round"/>
<path d="M339.073 831.201L306.958 796.041" stroke="#CCCCCC" stroke-width="1.25197" stroke-linecap="round" stroke-linejoin="round"/>
<path d="M596.095 256.753C596.095 256.753 554.572 244.626 522.813 274.585C491.054 304.544 507.793 364.372 507.793 385.385C507.793 406.398 478.597 539.935 478.597 539.935C478.597 539.935 464.453 588.469 503.317 619.231C542.18 649.992 614.002 647.317 644.658 588.113C675.313 528.908 642.809 444.5 642.809 400.87C642.809 357.239 649.881 328.083 639.273 296.549C636.052 287.246 630.454 278.782 622.944 271.86C615.434 264.938 606.23 259.759 596.095 256.753Z" fill="#263238" stroke="#263238" stroke-linecap="round" stroke-linejoin="round"/>
<path d="M583.768 279.43C583.768 279.43 543.737 325.022 516.714 337.891" stroke="white" stroke-linecap="round" stroke-linejoin="round"/>
<path d="M549.155 275.477C549.155 275.477 528.62 321.039 510.227 333.938" stroke="white" stroke-linecap="round" stroke-linejoin="round"/>
<path d="M664.349 432.196C668.185 434.659 671.406 437.841 673.799 441.53C676.193 445.219 677.704 449.331 678.233 453.595C680.601 468.753 662.954 503.794 659.418 521.121C656.077 542.157 653.922 563.337 652.963 584.576C652.963 589.985 673.075 670.113 676.611 689.61C680.147 709.107 674.827 754.996 671.875 758.355C668.923 761.713 660.651 745.902 660.067 735.618C659.483 725.335 637.618 646.277 629.346 622.47C621.074 598.664 623.41 567.248 623.41 567.248C623.41 567.248 634.666 495.234 634.666 467.623C634.666 440.013 635.575 419.356 635.575 419.356L664.349 432.196Z" fill="#FF725E" stroke="#263238" stroke-linecap="round" stroke-linejoin="round"/>
<path d="M671.81 758.236C674.762 754.996 680.082 708.958 676.546 689.491C673.01 670.024 652.962 589.866 652.962 584.576C653.937 563.376 656.103 542.236 659.45 521.24C660.749 515.683 662.417 510.204 664.446 504.834C657.494 507.901 649.875 509.486 642.16 509.471C638.04 509.471 634.017 512.948 630.157 518.863C626.913 544.007 623.377 567.248 623.377 567.248C623.377 567.248 621.041 598.634 629.313 622.47C637.586 646.306 659.45 725.335 660.034 735.618C660.618 745.902 668.858 761.475 671.81 758.236Z" fill="white" stroke="#263238" stroke-linecap="round" stroke-linejoin="round"/>
<path d="M553.177 871.919C554.475 858.604 557.2 831.498 558.951 821.036C561.319 806.978 566.023 778.268 566.023 778.268L577.994 871.919L660.002 871.919C662.954 851.5 670.383 796.754 671.81 758.236C673.594 710.058 633.985 610.433 632.882 602.854C631.779 595.275 634.05 573.133 634.05 566.594C634.05 560.056 654.682 518.565 656.434 497.434C658.185 476.302 663.538 469.823 663.538 469.823L666.49 434.157C664.706 433.622 638.202 414.512 611.601 407.409C595.424 403.202 578.344 402.834 561.968 406.339C561.968 406.339 523.559 422.031 504.063 429.61C484.566 437.189 468.541 451.812 468.054 470.744C467.568 489.676 505.847 570.369 509.415 576.343C512.984 582.317 501.727 603.389 496.991 614.237C492.255 625.086 472.758 664.05 459.782 707.353C448.655 744.326 456.084 843.684 458.517 871.919L553.177 871.919Z" fill="#FF725E" stroke="#263238" stroke-linecap="round" stroke-linejoin="round"/>
<path d="M571.603 561.393C571.603 561.393 601.902 564.722 632.233 538.062" stroke="#263238" stroke-linecap="round" stroke-linejoin="round"/>
<path d="M592.624 483.762C601.48 481.592 612.737 448.097 613.905 430.71C614.553 420.991 615.202 413.739 614.91 408.389C613.807 408.062 612.672 407.706 611.666 407.409C595.488 403.202 578.409 402.834 562.033 406.339L546.397 412.699C545.091 420.397 545.997 428.274 549.025 435.554C555.415 451.812 583.768 485.931 592.624 483.762Z" fill="white" stroke="#263238" stroke-linecap="round" stroke-linejoin="round"/>
<path d="M553.047 389.724C553.047 389.724 556.032 421.615 557.816 429.432C559.6 437.248 577.54 468.069 587.693 466.375C597.847 464.681 604.303 424.409 604.303 420.486C604.303 416.563 605.503 384.82 605.503 384.82C605.503 384.82 584.125 400.9 553.047 389.724Z" fill="white" stroke="#263238" stroke-linecap="round" stroke-linejoin="round"/>
<path d="M494.526 435.019C494.526 435.019 470.325 436.119 456.733 461.025C443.141 485.932 459.069 502.635 464.389 512.443C469.709 522.251 484.502 562.255 489.205 574.173C493.909 586.092 503.414 600.15 519.959 619.647C536.503 639.144 571.344 680.812 571.344 680.812L580.816 695.97C580.816 695.97 596.777 712.763 598.528 713.298C600.28 713.833 610.953 726.286 615.073 718.707C619.193 711.128 615.073 684.082 615.073 684.082C615.073 684.082 621.561 695.97 623.961 693.266C626.362 690.561 623.345 684.617 621.009 678.108C618.673 671.599 596.809 659.176 592.04 658.611C587.272 658.046 581.4 652.667 574.328 639.679C567.256 626.69 561.904 604.013 550.679 590.401C539.455 576.789 524.727 556.846 524.727 556.846C524.727 556.846 508.183 502.694 508.183 500.525C509.391 490.412 507.773 480.185 503.479 470.804" fill="#FF725E"/>
<path d="M494.526 435.019C494.526 435.019 470.325 436.119 456.733 461.025C443.141 485.932 459.069 502.635 464.389 512.443C469.709 522.251 484.502 562.255 489.205 574.173C493.909 586.092 503.414 600.15 519.959 619.647C536.503 639.144 571.344 680.812 571.344 680.812L580.816 695.97C580.816 695.97 596.777 712.763 598.528 713.298C600.28 713.833 610.953 726.286 615.073 718.707C619.193 711.128 615.073 684.082 615.073 684.082C615.073 684.082 621.561 695.97 623.961 693.266C626.362 690.561 623.345 684.617 621.009 678.108C618.673 671.599 596.809 659.176 592.04 658.611C587.272 658.046 581.4 652.667 574.328 639.679C567.256 626.69 561.904 604.013 550.679 590.401C539.455 576.789 524.727 556.846 524.727 556.846C524.727 556.846 508.183 502.694 508.183 500.525C509.391 490.412 507.773 480.185 503.479 470.804" stroke="#263238" stroke-linecap="round" stroke-linejoin="round"/>
<path d="M592.04 658.611C587.304 658.076 581.4 652.667 574.328 639.679C567.256 626.69 561.903 604.013 550.679 590.401C539.455 576.789 524.727 556.846 524.727 556.846C524.727 556.846 513.535 520.17 509.578 505.993C487.843 503.199 473.504 507.212 464.389 512.324C469.709 522.072 484.502 562.136 489.205 574.054C493.909 585.973 503.414 600.031 519.958 619.528C536.503 639.025 571.343 680.694 571.343 680.694L580.816 695.851C580.816 695.851 596.776 712.644 598.528 713.179C600.28 713.714 610.953 726.167 615.073 718.588C619.192 711.009 615.073 683.963 615.073 683.963C615.073 683.963 621.56 695.851 623.961 693.147C626.362 690.442 623.345 684.498 621.009 677.989C618.673 671.48 596.809 659.176 592.04 658.611Z" fill="white" stroke="#263238" stroke-linecap="round" stroke-linejoin="round"/>
<path d="M553.177 871.919C554.475 858.604 557.2 831.498 558.951 821.036C561.319 806.978 566.023 778.268 566.023 778.268L577.994 871.919L660.002 871.919C662.954 851.5 670.383 796.754 671.81 758.236C672.556 738.174 666.101 709.166 658.25 681.615C588.926 695.524 510.324 685.449 469.514 678.197C466.076 687.5 462.702 697.278 459.782 707.353C448.655 744.326 456.084 843.684 458.517 871.919L553.177 871.919Z" fill="#263238" stroke="#263238" stroke-linecap="round" stroke-linejoin="round"/>
<path d="M532.513 342.23C532.513 342.23 527.225 340.061 527.225 349.779C527.225 359.498 539.001 365.948 539.001 365.948L532.513 342.23Z" fill="white" stroke="#263238" stroke-linecap="round" stroke-linejoin="round"/>
<path d="M593.208 288.851C593.208 288.851 574.328 313.223 557.751 322.971C549.198 328.123 540.327 332.817 531.183 337.029C531.183 337.029 539.455 368.444 542.991 378.639C546.527 388.833 557.135 406.844 578.415 407.914C599.696 408.984 609.168 388.387 613.321 378.639C615.684 373.602 616.951 368.19 617.051 362.708C620.037 360.979 622.584 358.684 624.521 355.977C626.457 353.27 627.737 350.214 628.276 347.015C629.443 336.732 626.491 337.267 626.491 337.267C626.491 337.267 623.247 340.625 616.208 335.573C610.498 331.679 591.326 303.474 593.208 288.851Z" fill="white" stroke="#263238" stroke-linecap="round" stroke-linejoin="round"/>
<path d="M548.149 350.404C548.149 350.404 556.486 344.816 568.683 350.404" stroke="#263238" stroke-linecap="round" stroke-linejoin="round"/>
<path d="M585.876 351.414C585.876 351.414 595.868 343.271 606.411 349.898" stroke="#263238" stroke-linecap="round" stroke-linejoin="round"/>
<path d="M546.494 338.188C546.494 338.188 550.938 330.58 565.958 334.146" stroke="#263238" stroke-linecap="round" stroke-linejoin="round"/>
<path d="M585.876 334.651C589.274 332.38 593.464 331.331 597.65 331.704C601.836 332.077 605.727 333.845 608.584 336.672" stroke="#263238" stroke-linecap="round" stroke-linejoin="round"/>
<path d="M584.222 368.177C584.222 368.177 575.334 373.764 571.473 368.177" stroke="#263238" stroke-linecap="round" stroke-linejoin="round"/>
<path d="M568.132 379.887C568.132 379.887 579.226 383.929 584.774 379.382" stroke="#263238" stroke-linecap="round" stroke-linejoin="round"/>
<path d="M380.628 672.045C380.628 672.045 406.58 724.829 412.776 735.469C418.972 746.11 426.174 776.395 427.05 794.377C427.926 812.358 427.05 816.073 422.606 815.657C418.161 815.241 416.345 792.742 416.345 789.057L416.345 783.35C416.345 783.35 414.106 804.601 410.538 808.702C406.97 812.804 402.039 817.292 401.617 814.854C401.195 812.417 402.493 808.286 404.277 802.163C405.355 797.456 405.661 792.628 405.185 787.838C405.185 787.838 402.493 799.281 396.264 803.382C390.036 807.484 383.288 809.118 385.527 805.849C387.765 802.58 393.572 798.894 394.902 794.793C395.822 791.037 396.279 787.199 396.264 783.35C396.264 783.35 387.765 796.011 384.197 798.062C380.628 800.113 380.628 795.625 382.867 793.574C385.105 791.523 390.004 777.614 390.004 777.614C390.004 777.614 388.641 776.782 382.413 764.121C376.184 751.459 372.681 729.317 370.799 720.728C368.918 712.138 365.446 700.696 365.446 700.696L331.06 647.911C331.06 647.911 328.368 635.22 341.311 633.051C354.255 630.881 380.628 672.045 380.628 672.045Z" fill="white"/>
<mask id="mask0_53_2233" style="mask-type:luminance" maskUnits="userSpaceOnUse" x="330" y="632" width="98" height="184">
<path d="M380.628 672.045C380.628 672.045 406.58 724.829 412.776 735.469C418.972 746.11 426.174 776.395 427.05 794.377C427.926 812.358 427.05 816.073 422.606 815.657C418.161 815.241 416.345 792.742 416.345 789.057L416.345 783.35C416.345 783.35 414.106 804.601 410.538 808.702C406.97 812.804 402.039 817.292 401.617 814.854C401.195 812.417 402.493 808.286 404.277 802.163C405.355 797.456 405.661 792.628 405.185 787.838C405.185 787.838 402.493 799.281 396.264 803.382C390.036 807.484 383.288 809.118 385.527 805.849C387.765 802.58 393.572 798.894 394.902 794.793C395.822 791.037 396.279 787.199 396.264 783.35C396.264 783.35 387.765 796.011 384.197 798.062C380.628 800.113 380.628 795.625 382.867 793.574C385.105 791.523 390.004 777.614 390.004 777.614C390.004 777.614 388.641 776.782 382.413 764.121C376.184 751.459 372.681 729.317 370.799 720.728C368.918 712.138 365.446 700.696 365.446 700.696L331.06 647.911C331.06 647.911 328.368 635.22 341.311 633.051C354.255 630.881 380.628 672.045 380.628 672.045Z" fill="white"/>
</mask>
<g mask="url(#mask0_53_2233)">
<path opacity="0.15" d="M380.628 672.045C380.628 672.045 406.58 724.829 412.776 735.469C418.972 746.11 426.174 776.395 427.05 794.377C427.926 812.358 427.05 816.073 422.606 815.657C418.161 815.241 416.345 792.742 416.345 789.057L416.345 783.35C416.345 783.35 414.106 804.601 410.538 808.702C406.97 812.804 402.039 817.292 401.617 814.854C401.195 812.417 402.493 808.286 404.277 802.163C405.355 797.456 405.661 792.628 405.185 787.838C405.185 787.838 402.493 799.281 396.264 803.382C390.036 807.484 383.288 809.118 385.527 805.849C387.765 802.58 393.572 798.894 394.902 794.793C395.822 791.037 396.279 787.199 396.264 783.35C396.264 783.35 387.765 796.011 384.197 798.062C380.628 800.113 380.628 795.625 382.867 793.574C385.105 791.523 390.004 777.614 390.004 777.614C390.004 777.614 388.641 776.782 382.413 764.121C376.184 751.459 372.681 729.317 370.799 720.728C368.918 712.138 365.446 700.696 365.446 700.696L331.06 647.911C331.06 647.911 328.368 635.22 341.311 633.051C354.255 630.881 380.628 672.045 380.628 672.045Z" fill="black"/>
</g>
<path d="M380.628 672.045C380.628 672.045 406.58 724.829 412.776 735.469C418.972 746.11 426.174 776.395 427.05 794.377C427.926 812.358 427.05 816.073 422.606 815.657C418.161 815.241 416.345 792.742 416.345 789.057L416.345 783.35C416.345 783.35 414.106 804.601 410.538 808.702C406.97 812.804 402.039 817.292 401.617 814.854C401.195 812.417 402.493 808.286 404.277 802.163C405.355 797.456 405.661 792.628 405.185 787.838C405.185 787.838 402.493 799.281 396.264 803.382C390.036 807.484 383.288 809.118 385.527 805.849C387.765 802.58 393.572 798.894 394.902 794.793C395.822 791.037 396.279 787.199 396.264 783.35C396.264 783.35 387.765 796.011 384.197 798.062C380.628 800.113 380.628 795.625 382.867 793.574C385.105 791.523 390.004 777.614 390.004 777.614C390.004 777.614 388.641 776.782 382.413 764.121C376.184 751.459 372.681 729.317 370.799 720.728C368.918 712.138 365.446 700.696 365.446 700.696L331.06 647.911C331.06 647.911 328.368 635.22 341.311 633.051C354.255 630.881 380.628 672.045 380.628 672.045Z" stroke="#263238" stroke-linecap="round" stroke-linejoin="round"/>
<path d="M412.906 751.014C412.906 751.014 417.383 771.075 416.929 780.051C416.475 789.027 418.713 793.574 415.566 793.574C412.42 793.574 411.576 791.523 408.43 782.518C406.358 775.84 405.011 768.99 404.407 762.07C404.407 762.07 393.248 762.07 389.225 746.912" fill="white"/>
<mask id="mask1_53_2233" style="mask-type:luminance" maskUnits="userSpaceOnUse" x="389" y="746" width="29" height="48">
<path d="M412.906 751.014C412.906 751.014 417.383 771.075 416.929 780.051C416.475 789.027 418.713 793.574 415.566 793.574C412.42 793.574 411.576 791.523 408.43 782.518C406.358 775.84 405.011 768.99 404.407 762.07C404.407 762.07 393.248 762.07 389.225 746.912" fill="white"/>
</mask>
<g mask="url(#mask1_53_2233)">
<path opacity="0.15" d="M412.906 751.014C412.906 751.014 417.383 771.075 416.929 780.051C416.475 789.027 418.713 793.574 415.566 793.574C412.42 793.574 411.576 791.523 408.43 782.518C406.358 775.84 405.011 768.99 404.407 762.07C404.407 762.07 393.248 762.07 389.225 746.912" fill="black"/>
</g>
<path d="M412.906 751.014C412.906 751.014 417.383 771.075 416.929 780.051C416.475 789.027 418.713 793.574 415.566 793.574C412.42 793.574 411.576 791.523 408.43 782.518C406.358 775.84 405.011 768.99 404.407 762.07C404.407 762.07 393.248 762.07 389.225 746.912" stroke="#263238" stroke-linecap="round" stroke-linejoin="round"/>
<path d="M213.563 871.919L377.968 871.919C378.78 843.743 384.165 659.711 385.787 651.478C387.571 642.561 396.394 558.451 397.27 525.312C398.146 492.173 382.251 444.411 382.251 441.172C382.251 437.932 379.623 417.722 354.904 400.721C330.184 383.721 310.753 383.751 305.465 386.158C305.465 386.158 286.001 398.314 255.118 428.243C224.235 458.172 213.627 482.424 213.627 528.522C213.651 556.42 216.31 584.263 221.575 611.741C221.575 611.741 211.843 755.71 211.843 758.949C211.843 762.189 213.271 852.689 213.563 871.919Z" fill="white" stroke="#263238" stroke-linecap="round" stroke-linejoin="round"/>
<path d="M288.175 546.473C291.664 546.466 295.151 546.288 298.62 545.938C336.445 542.164 369.339 506.736 391.042 476.124C390.036 471.695 389.031 467.445 388.025 463.552C367.555 494.135 334.466 533.396 297.582 537.081C246.23 542.194 222.97 505.131 216.482 493.154C215.574 497.731 214.893 502.546 214.438 507.628C225.922 523.558 249.117 546.473 288.175 546.473Z" fill="#263238"/>
<path d="M275.847 474.965L285.255 477.253C294.952 444.905 314.005 415.557 340.403 392.31C337.26 390.793 334.008 389.472 330.671 388.357C304.407 412.311 285.497 442.183 275.847 474.965Z" fill="#263238"/>
<path d="M285.093 517.614C287.299 516.574 333.266 494.64 381.797 437.367C381.044 433.777 379.846 430.277 378.228 426.935C329.374 486.377 281.2 509.381 280.681 509.619L285.093 517.614Z" fill="#263238"/>
<path d="M237.114 485.367L246.846 484.029C246.846 483.792 244.024 462.719 266.667 417.484C263.034 420.783 259.238 424.35 255.216 428.243C252.62 430.74 250.22 433.206 247.917 435.673C234.649 468.664 236.984 484.475 237.114 485.367Z" fill="#263238"/>
<path d="M317.371 617.477C261.444 624.134 233.027 613.375 220.31 605.113C221.056 609.452 221.575 611.86 221.575 611.86C221.575 611.86 221.575 613.435 221.283 616.288C233.74 622.559 253.723 628.503 284.314 628.503C295.794 628.458 307.258 627.733 318.636 626.334C344.415 623.296 369.196 615.273 391.334 602.795C391.723 599.05 392.08 595.216 392.437 591.322C369.996 605.307 344.283 614.266 317.371 617.477Z" fill="#263238"/>
<path d="M314.483 672.342C340.192 666.352 364.668 656.575 386.954 643.394C387.344 640.184 387.798 636.261 388.317 631.773C365.166 646.415 339.383 657.21 312.148 663.663C274.485 672.134 237.925 662.683 218.623 655.876C218.429 658.849 218.201 662.058 218.007 665.268C238.013 672.158 259.18 675.79 280.551 675.998C291.98 676.02 303.372 674.792 314.483 672.342Z" fill="#263238"/>
<path d="M213.66 730.595C213.433 733.805 213.238 736.837 213.076 739.512C238.156 745.027 263.843 747.889 289.635 748.041C321.348 748.357 352.836 743.132 382.413 732.646C382.413 729.377 382.64 726.107 382.737 722.927C317.598 748.041 247.917 738.234 213.66 730.595Z" fill="#263238"/>
<path d="M321.588 701.171C286.677 708.924 250.128 707.897 215.801 698.199C215.606 701.32 215.379 704.411 215.185 707.472C234.104 712.772 253.793 715.407 273.577 715.289C290.512 715.271 307.391 713.497 323.891 709.999C344.797 705.561 364.991 698.668 383.97 689.491C383.97 685.806 384.262 682.298 384.392 679.029C364.699 689.081 343.556 696.536 321.588 701.171Z" fill="#263238"/>
<path d="M294.338 575.659C254.437 577.502 228.647 564.009 214.341 552.893C214.568 556.995 214.86 560.977 215.185 564.781C236.194 578.253 261.337 585.248 286.974 584.754C289.537 584.754 292.165 584.754 294.825 584.576C333.98 582.763 368.626 567.07 396.622 539.251C396.946 534.05 397.173 529.295 397.27 525.342L397.27 524.747C374.4 550.753 341.214 573.46 294.338 575.659Z" fill="#263238"/>
<path d="M360.613 405.061C358.829 403.604 356.98 402.089 354.904 400.721C330.184 383.751 310.753 383.751 305.465 386.158C295.162 393.066 285.406 400.635 276.269 408.805C275.341 412.452 275.338 416.245 276.26 419.893C277.183 423.541 279.006 426.947 281.589 429.848C298.361 449.256 352.957 523.677 367.231 507.509C381.504 491.341 377.806 446.848 361.911 408.003C361.521 406.992 361.002 406.012 360.613 405.061Z" fill="#FF725E" stroke="#263238" stroke-linecap="round" stroke-linejoin="round"/>
<path d="M309.098 490.509C309.098 490.509 356.785 583.535 366.485 598.099C370.759 605.018 375.792 611.521 381.504 617.507C381.504 617.507 423.676 630.495 459.847 642.651C496.018 654.807 558.886 670.767 572.089 674.125C585.293 677.484 607.384 677.365 611.017 677.365C614.651 677.365 656.92 686.281 659.677 687.886C662.435 689.491 658.802 692.731 652.605 694.365C646.409 696 626.134 697.575 616.402 700.815C606.67 704.054 598.755 703.252 584.644 700.012C573.522 696.879 562.849 692.538 552.852 687.084C552.852 687.084 437.009 679.683 409.662 676.711C382.315 673.739 351.27 670.232 339.04 657.303C314.497 631.918 291.846 605.049 271.241 576.878C254.632 553.874 224.235 521.567 235.752 492.292" fill="white"/>
<path d="M309.098 490.509C309.098 490.509 356.785 583.535 366.485 598.099C370.759 605.018 375.792 611.521 381.504 617.507C381.504 617.507 423.676 630.495 459.847 642.651C496.018 654.807 558.886 670.767 572.089 674.125C585.293 677.484 607.384 677.365 611.017 677.365C614.651 677.365 656.92 686.281 659.677 687.886C662.435 689.491 658.802 692.731 652.605 694.365C646.409 696 626.134 697.575 616.402 700.815C606.67 704.054 598.755 703.252 584.644 700.012C573.522 696.879 562.849 692.538 552.852 687.084C552.852 687.084 437.009 679.683 409.662 676.711C382.315 673.739 351.27 670.232 339.04 657.303C314.497 631.918 291.846 605.049 271.241 576.878C254.632 553.874 224.235 521.567 235.752 492.292" stroke="#263238" stroke-linecap="round" stroke-linejoin="round"/>
<path d="M610.791 677.365C607.255 677.365 585.195 677.365 571.863 674.125C558.53 670.886 495.661 654.777 459.49 642.651C423.32 630.525 381.148 617.507 381.148 617.507C375.435 611.521 370.403 605.018 366.128 598.099C362.138 592.155 351.692 572.747 340.76 552.091C305.563 560.531 287.85 575.868 279.124 587.756C297.558 611.915 317.476 635.095 338.781 657.184C351.141 670.113 382.024 673.353 409.403 676.592C436.782 679.832 552.431 687.113 552.431 687.113C562.428 692.568 573.101 696.909 584.222 700.042C598.334 703.282 606.281 704.084 615.981 700.845C625.681 697.605 646.02 696 652.184 694.395C658.348 692.79 661.916 689.521 659.256 687.916C656.596 686.311 614.456 677.365 610.791 677.365Z" fill="white"/>
<mask id="mask2_53_2233" style="mask-type:luminance" maskUnits="userSpaceOnUse" x="279" y="552" width="382" height="151">
<path d="M610.791 677.365C607.255 677.365 585.195 677.365 571.863 674.125C558.53 670.886 495.661 654.777 459.49 642.651C423.32 630.525 381.148 617.507 381.148 617.507C375.435 611.521 370.403 605.018 366.128 598.099C362.138 592.155 351.692 572.747 340.76 552.091C305.563 560.531 287.85 575.868 279.124 587.756C297.558 611.915 317.476 635.095 338.781 657.184C351.141 670.113 382.024 673.353 409.403 676.592C436.782 679.832 552.431 687.113 552.431 687.113C562.428 692.568 573.101 696.909 584.222 700.042C598.334 703.282 606.281 704.084 615.981 700.845C625.681 697.605 646.02 696 652.184 694.395C658.348 692.79 661.916 689.521 659.256 687.916C656.596 686.311 614.456 677.365 610.791 677.365Z" fill="white"/>
</mask>
<g mask="url(#mask2_53_2233)">
<path opacity="0.15" d="M610.791 677.365C607.255 677.365 585.195 677.365 571.863 674.125C558.53 670.886 495.661 654.777 459.49 642.651C423.32 630.525 381.148 617.507 381.148 617.507C375.435 611.521 370.403 605.018 366.128 598.099C362.138 592.155 351.692 572.747 340.76 552.091C305.563 560.531 287.85 575.868 279.124 587.756C297.558 611.915 317.476 635.095 338.781 657.184C351.141 670.113 382.024 673.353 409.403 676.592C436.782 679.832 552.431 687.113 552.431 687.113C562.428 692.568 573.101 696.909 584.222 700.042C598.334 703.282 606.281 704.084 615.981 700.845C625.681 697.605 646.02 696 652.184 694.395C658.348 692.79 661.916 689.521 659.256 687.916C656.596 686.311 614.456 677.365 610.791 677.365Z" fill="black"/>
</g>
<path d="M610.791 677.365C607.255 677.365 585.195 677.365 571.863 674.125C558.53 670.886 495.661 654.777 459.49 642.651C423.32 630.525 381.148 617.507 381.148 617.507C375.435 611.521 370.403 605.018 366.128 598.099C362.138 592.155 351.692 572.747 340.76 552.091C305.563 560.531 287.85 575.868 279.124 587.756C297.558 611.915 317.476 635.095 338.781 657.184C351.141 670.113 382.024 673.353 409.403 676.592C436.782 679.832 552.431 687.113 552.431 687.113C562.428 692.568 573.101 696.909 584.222 700.042C598.334 703.282 606.281 704.084 615.981 700.845C625.681 697.605 646.02 696 652.184 694.395C658.348 692.79 661.916 689.521 659.256 687.916C656.596 686.311 614.456 677.365 610.791 677.365Z" stroke="#263238" stroke-linecap="round" stroke-linejoin="round"/>
<path d="M377.968 871.919C378.358 857.891 379.915 804.898 381.569 754.342C358.182 762.708 333.658 768.107 308.676 770.392C256.772 775.95 226.863 764.448 212.07 755.531C212.07 757.523 211.875 758.771 211.875 759.038C211.875 762.01 213.27 852.66 213.562 871.978L377.968 871.919Z" fill="#FF725E" stroke="#263238" stroke-linecap="round" stroke-linejoin="round"/>
<path d="M336.607 865.172C328.562 837.205 348.026 801.539 319.933 783.023" stroke="#263238" stroke-linecap="round" stroke-linejoin="round"/>
<path d="M336.607 800.826L372.746 769.025" stroke="#263238" stroke-linecap="round" stroke-linejoin="round"/>
<path d="M246.003 801.034L245.062 865.172" stroke="#263238" stroke-linecap="round" stroke-linejoin="round"/>
<path d="M246.327 777.941L246.165 789.651" stroke="#263238" stroke-linecap="round" stroke-linejoin="round"/>
<path d="M391.172 255.742C405.53 259.229 418.219 266.986 427.245 277.795C433.367 284.972 437.516 293.392 439.345 302.345C443.66 326.419 428.867 333.849 433.636 344.786C438.404 355.724 443.173 361.4 439.345 366.661C435.517 371.922 423.612 372.784 421.698 373.229C419.784 373.675 415.956 393.767 408.332 402.534C400.709 411.302 373.946 401.227 373.946 401.227C373.946 401.227 362.981 418.286 359.64 423.963C356.299 429.64 362.884 463.76 358.18 479.066C353.476 494.372 342.447 477.758 321.426 453.714C300.405 429.67 290.867 409.965 291.84 403.396C292.814 396.828 309.488 381.522 312.375 375.845C315.262 370.168 316.657 367.523 315.23 362.292C313.802 357.061 297.096 335.543 297.096 308.051C297.096 280.559 320.939 254.256 352.471 252.057C365.506 251.273 378.591 252.519 391.172 255.742Z" fill="white"/>
<mask id="mask3_53_2233" style="mask-type:luminance" maskUnits="userSpaceOnUse" x="291" y="251" width="150" height="234">
<path d="M391.172 255.742C405.53 259.229 418.219 266.986 427.245 277.795C433.367 284.972 437.516 293.392 439.345 302.345C443.66 326.419 428.867 333.849 433.636 344.786C438.404 355.724 443.173 361.4 439.345 366.661C435.517 371.922 423.612 372.784 421.698 373.229C419.784 373.675 415.956 393.767 408.332 402.534C400.709 411.302 373.946 401.227 373.946 401.227C373.946 401.227 362.981 418.286 359.64 423.963C356.299 429.64 362.884 463.76 358.18 479.066C353.476 494.372 342.447 477.758 321.426 453.714C300.405 429.67 290.867 409.965 291.84 403.396C292.814 396.828 309.488 381.522 312.375 375.845C315.262 370.168 316.657 367.523 315.23 362.292C313.802 357.061 297.096 335.543 297.096 308.051C297.096 280.559 320.939 254.256 352.471 252.057C365.506 251.273 378.591 252.519 391.172 255.742Z" fill="white"/>
</mask>
<g mask="url(#mask3_53_2233)">
<path opacity="0.15" d="M391.172 255.742C405.53 259.229 418.219 266.986 427.245 277.795C433.367 284.972 437.516 293.392 439.345 302.345C443.66 326.419 428.867 333.849 433.636 344.786C438.404 355.724 443.173 361.4 439.345 366.661C435.517 371.922 423.612 372.784 421.698 373.229C419.784 373.675 415.956 393.767 408.332 402.534C400.709 411.302 373.946 401.227 373.946 401.227C373.946 401.227 362.981 418.286 359.64 423.963C356.299 429.64 362.884 463.76 358.18 479.066C353.476 494.372 342.447 477.758 321.426 453.714C300.405 429.67 290.867 409.965 291.84 403.396C292.814 396.828 309.488 381.522 312.375 375.845C315.262 370.168 316.657 367.523 315.23 362.292C313.802 357.061 297.096 335.543 297.096 308.051C297.096 280.559 320.939 254.256 352.471 252.057C365.506 251.273 378.591 252.519 391.172 255.742Z" fill="black"/>
</g>
<path d="M391.172 255.742C405.53 259.229 418.219 266.986 427.245 277.795C433.367 284.972 437.516 293.392 439.345 302.345C443.66 326.419 428.867 333.849 433.636 344.786C438.404 355.724 443.173 361.4 439.345 366.661C435.517 371.922 423.612 372.784 421.698 373.229C419.784 373.675 415.956 393.767 408.332 402.534C400.709 411.302 373.946 401.227 373.946 401.227C373.946 401.227 362.981 418.286 359.64 423.963C356.299 429.64 362.884 463.76 358.18 479.066C353.476 494.372 342.447 477.758 321.426 453.714C300.405 429.67 290.867 409.965 291.84 403.396C292.814 396.828 309.488 381.522 312.375 375.845C315.262 370.168 316.657 367.523 315.23 362.292C313.802 357.061 297.096 335.543 297.096 308.051C297.096 280.559 320.939 254.256 352.471 252.057C365.506 251.273 378.591 252.519 391.172 255.742Z" stroke="#263238" stroke-linecap="round" stroke-linejoin="round"/>
<path d="M396.881 275.685C408.365 270.513 416.507 270.662 421.827 272.118C413.377 264.263 402.796 258.61 391.172 255.742C378.591 252.519 365.506 251.273 352.471 252.057C320.939 254.256 297.096 280.5 297.096 308.051C297.096 335.603 313.802 357.031 315.23 362.292C315.741 364.025 315.863 365.835 315.586 367.612C338.294 371.743 345.723 361.341 345.723 361.341C343.096 361.643 340.429 361.451 337.885 360.777C335.342 360.102 332.975 358.959 330.931 357.418C324.216 352.157 324.216 332.036 332.358 322.852C340.5 313.668 348.578 326.359 348.578 333.79C348.578 341.22 352.406 347.342 356.234 346.48C360.062 345.619 359.089 337.297 360.516 332.036C361.943 326.775 378.65 318.929 382.478 314.56C386.306 310.191 380.564 306.238 374.368 299.699C368.172 293.161 373.459 286.176 396.881 275.685Z" fill="#263238" stroke="#263238" stroke-linecap="round" stroke-linejoin="round"/>
<path d="M344.782 362.708C344.782 362.708 344.782 374.983 352.925 382.829" stroke="#263238" stroke-linecap="round" stroke-linejoin="round"/>
<path d="M419.135 340.566C415.094 338.998 410.686 338.395 406.321 338.812" stroke="#263238" stroke-linecap="round" stroke-linejoin="round"/>
<path d="M426.174 330.015C426.174 330.015 419.135 318.87 405.672 327.667" stroke="#263238" stroke-linecap="round" stroke-linejoin="round"/>
<path d="M409.662 379.292C406.736 379.523 403.812 378.837 401.366 377.347C398.921 375.857 397.099 373.651 396.2 371.089" stroke="#263238" stroke-linecap="round" stroke-linejoin="round"/>
<path d="M317.046 506.201L310.948 494.313C271.728 494.937 248.76 508.341 235.784 521.062C237.184 525.292 238.942 529.416 241.039 533.396C251.258 521.24 273.155 505.339 317.046 506.201Z" fill="#263238"/>
<path d="M330.638 532.326L324.54 520.616C288.11 522.399 263.617 534.704 248.598 545.998C250.868 549.445 253.301 552.834 255.734 556.133C269.586 545.433 293.689 532.95 330.638 532.326Z" fill="#263238"/>
<path d="M752.91 611.741C756.998 622.946 759.723 662.802 759.723 683.993C759.723 701.647 747.395 830.042 743.308 871.919L927.632 871.919C929.838 831.052 936.423 708.245 936.423 692.701C936.423 674.006 929.611 597.415 938.467 570.637C947.323 543.858 957.477 473.508 941.711 451.752C925.945 429.997 867.099 417.514 849.289 411.896C831.48 406.279 805.106 403.188 792.195 408.924C792.195 408.924 756.868 426.995 735.101 445.66C713.333 464.324 703.861 493.005 707.916 516.039C711.971 539.073 748.823 600.536 752.91 611.741Z" fill="white" stroke="#263238" stroke-linecap="round" stroke-linejoin="round"/>
<path d="M913.066 432.136C905.122 428.775 896.99 425.799 888.704 423.22C858.697 493.346 811.492 556.211 750.737 606.956C751.742 609.006 752.489 610.671 752.91 611.8C754.954 619.087 756.278 626.527 756.868 634.032C826.275 579.535 879.927 510.186 913.066 432.136Z" fill="#263238"/>
<path d="M949.01 513.245C950.603 498.403 950.298 483.441 948.101 468.664C910.244 527.244 844.78 616.585 759.657 686.519C759.43 692.671 758.587 704.678 757.322 719.896C840.174 657.065 905.702 575.838 949.01 513.245Z" fill="#263238"/>
<path d="M927.632 871.919C929.189 842.822 932.984 772.234 935.028 728.336C845.331 744.059 782.268 729.109 757.224 721.055C753.396 767.33 746.227 841.871 743.308 871.919L927.632 871.919Z" fill="#263238" stroke="#263238" stroke-linecap="round" stroke-linejoin="round"/>
<path d="M815.422 483.049C840.038 483.049 859.994 465.364 859.994 443.549C859.994 421.735 840.038 404.05 815.422 404.05C790.805 404.05 770.849 421.735 770.849 443.549C770.849 465.364 790.805 483.049 815.422 483.049Z" fill="#FF725E" stroke="#263238" stroke-linecap="round" stroke-linejoin="round"/>
<path d="M774.677 393.796C774.677 393.796 782.139 418.078 782.139 432.434C782.139 446.789 799.137 479.779 827.003 464.83C854.869 449.88 840.595 415.641 835.827 405.031C832.443 396.925 829.721 388.6 827.684 380.125C827.684 380.125 818.828 394.985 801.732 395.698C792.661 396.194 783.559 395.554 774.677 393.796Z" fill="white" stroke="#263238" stroke-linecap="round" stroke-linejoin="round"/>
<path d="M728.71 305.644C728.71 305.644 724.006 316.373 729.878 324.962C735.749 333.552 743.795 345.321 743.795 345.321L742.627 298.154C742.627 298.154 731.046 289.565 728.71 305.644Z" fill="#263238" stroke="#263238" stroke-linecap="round" stroke-linejoin="round"/>
<path d="M743.795 334.592C743.795 334.592 734.419 337.832 739.091 351.741C743.762 365.65 750.802 361.4 750.802 361.4L743.795 334.592Z" fill="white" stroke="#263238" stroke-linecap="round" stroke-linejoin="round"/>
<path d="M735.23 310.369C735.23 310.369 743.405 349.007 748.206 368.266C753.007 387.525 778.797 405.001 792.39 408.746C805.982 412.491 823.662 398.789 827.749 390.705C831.837 382.621 833.848 364.551 833.848 364.551C833.848 364.551 848.803 358.934 850.068 344.608C851.333 330.282 847.343 325.943 839.201 324.071L833.069 321.574C833.069 321.574 836.476 298.54 827.652 284.215C818.828 269.889 787.556 288.584 771.239 292.923C754.921 297.262 733.187 296.044 735.23 310.369Z" fill="white" stroke="#263238" stroke-linecap="round" stroke-linejoin="round"/>
<path d="M774.677 338.396C774.677 338.396 771.433 360.806 776.007 362.678C780.582 364.551 789.6 360.182 791.644 359.558" stroke="#263238" stroke-linecap="round" stroke-linejoin="round"/>
<path d="M787.588 376.528C787.588 376.528 806.598 379.025 814.092 359.082" stroke="#263238" stroke-linecap="round" stroke-linejoin="round"/>
<path d="M751.547 333.403C753.062 331.255 755.199 329.536 757.72 328.439C760.242 327.341 763.047 326.909 765.821 327.191" stroke="#263238" stroke-linecap="round" stroke-linejoin="round"/>
<path d="M784.182 324.071C784.182 324.071 797.774 317.829 805.917 324.695" stroke="#263238" stroke-linecap="round" stroke-linejoin="round"/>
<path d="M764.208 349.573C766.062 349.278 767.042 346.285 766.397 342.889C765.753 339.493 763.728 336.979 761.875 337.274C760.022 337.57 759.041 340.562 759.686 343.958C760.33 347.354 762.355 349.868 764.208 349.573Z" fill="#263238"/>
<path d="M794.124 343.982C795.978 343.687 796.958 340.695 796.313 337.299C795.669 333.902 793.644 331.389 791.791 331.684C789.938 331.979 788.957 334.971 789.602 338.367C790.246 341.764 792.271 344.277 794.124 343.982Z" fill="#263238"/>
<path d="M812.729 293.547C794.692 301.304 775.772 307.204 756.316 311.142C726.406 316.73 712.814 310.518 714.144 296.816C715.474 283.115 754.24 253.216 789.567 253.216C824.894 253.216 837.157 268.076 839.2 283.739C840.315 297.213 840.315 310.745 839.2 324.219L833.069 332.303C833.069 332.303 834.626 326.003 824.894 320.95C815.162 315.897 807.96 306.624 812.729 293.547Z" fill="#263238" stroke="#263238" stroke-linecap="round" stroke-linejoin="round"/>
<path d="M1001.89 338.069C1008.54 342.736 1000.72 362.233 1022.65 377.866C1073.13 413.828 1102.32 438.17 1107.71 491.608C1113.61 549.862 1079.45 572.509 1090.06 591.917C1100.67 611.325 1114.78 633.972 1092.39 651.359C1070.01 668.746 1033.55 683.725 1002.96 642.74C972.367 601.755 955.855 511.165 942.911 461.441C929.968 411.718 908.784 388.12 912.288 366.542C915.727 345.737 934.25 330.877 956.406 327.281C964.389 326.003 972.577 326.304 980.421 328.165C988.266 330.026 995.585 333.403 1001.89 338.069Z" fill="#263238" stroke="#263238" stroke-linecap="round" stroke-linejoin="round"/>
<path d="M941.095 545.136L846.759 608.353C846.759 608.353 695.686 657.808 686.797 660.335C677.909 662.861 635.542 669.726 626.654 674.095C617.765 678.464 600.702 707.294 597.944 714.189C597.371 715.153 597.153 716.261 597.324 717.347C597.495 718.434 598.045 719.44 598.892 720.216C599.739 720.992 600.838 721.496 602.023 721.653C603.209 721.809 604.419 721.61 605.47 721.084C607.514 719.182 627.335 701.647 633.499 701.023C639.662 700.399 645.112 699.774 645.112 699.774C645.112 699.774 629.379 712.317 628.697 716.062C628.016 719.806 631.455 718.558 635.542 716.686C639.63 714.813 655.363 709.79 661.494 699.774C667.625 689.759 673.108 684.111 683.359 680.367C693.61 676.622 827.392 650.051 851.333 646.306C875.274 642.561 961.402 595.156 965.522 594.532C969.642 593.908 954.103 545.136 941.095 545.136Z" fill="white" stroke="#263238" stroke-linecap="round" stroke-linejoin="round"/>
<path d="M922.669 625.977C923.512 628.295 920.982 660.899 919.262 717.577C917.965 761.059 906.708 838.334 901.518 871.919L1081.85 871.919C1083.15 837.858 1084.77 759.96 1074.33 727.653C1060.77 685.746 1045.52 677.127 1040.46 658.581C1035.4 640.035 1027.74 537.468 1015.03 498.652C1002.31 459.836 964.192 436.535 958.255 428.005C952.319 419.475 933.666 369.782 933.666 369.782L901.485 394.628C901.485 394.628 925.199 429.551 928.605 440.429C932.011 451.307 905.702 476.896 892.175 503.318C878.648 529.74 875.955 550.664 887.925 566.951C899.896 583.238 921.825 623.629 922.669 625.977Z" fill="#FF725E"/>
<mask id="mask4_53_2233" style="mask-type:luminance" maskUnits="userSpaceOnUse" x="880" y="369" width="203" height="503">
<path d="M922.669 625.977C923.512 628.295 920.982 660.899 919.262 717.577C917.965 761.059 906.708 838.334 901.518 871.919L1081.85 871.919C1083.15 837.858 1084.77 759.96 1074.33 727.653C1060.77 685.746 1045.52 677.127 1040.46 658.581C1035.4 640.035 1027.74 537.468 1015.03 498.652C1002.31 459.836 964.192 436.535 958.255 428.005C952.319 419.475 933.666 369.782 933.666 369.782L901.485 394.628C901.485 394.628 925.199 429.551 928.605 440.429C932.011 451.307 905.702 476.896 892.175 503.318C878.648 529.74 875.955 550.664 887.925 566.951C899.896 583.238 921.825 623.629 922.669 625.977Z" fill="white"/>
</mask>
<g mask="url(#mask4_53_2233)">
<path d="M950.243 785.49L979.796 791.434L1009.35 785.49L1038.9 791.434L1068.45 785.49L1082.14 788.224L1081.85 782.102L1068.45 779.397L1038.9 785.341L1009.35 779.397L979.796 785.341L950.243 779.397L920.722 785.341L913.618 783.915C913.391 785.906 913.164 787.868 912.904 789.859L920.722 791.434L950.243 785.49Z" fill="white"/>
<path d="M982.877 582.079L953.324 588.023L923.772 582.079L900.674 586.716L903.918 592.154L923.804 588.172L953.357 594.116L982.91 588.172L1012.46 594.116L1031.15 590.342C1030.89 588.38 1030.66 586.389 1030.4 584.397L1012.46 588.023L982.877 582.079Z" fill="white"/>
<path d="M950.243 830.755L979.796 836.699L1009.35 830.755L1038.9 836.699L1068.45 830.755L1082.76 833.727C1082.76 831.736 1082.76 829.715 1082.76 827.783L1068.42 824.811L1038.87 830.755L1009.32 824.811L979.763 830.755L950.21 824.811L920.69 830.755L907.909 828.169C907.649 830.19 907.357 832.152 907.098 834.114L920.69 836.848L950.243 830.755Z" fill="white"/>
<path d="M1082.5 850.163L1068.45 847.339L1038.9 853.284L1009.35 847.339L979.796 853.284L950.243 847.339L920.723 853.284L904.795 850.074C904.503 852.095 904.211 854.086 903.951 856.018L920.723 859.376L950.243 853.432L979.796 859.376L1009.35 853.432L1038.9 859.376L1068.45 853.432L1082.37 856.256C1082.4 854.264 1082.47 852.243 1082.5 850.163Z" fill="white"/>
<path d="M883.514 524.034L894.219 526.174L923.772 520.23L953.325 526.174L982.877 520.23L1012.43 526.174L1021.29 524.391C1020.9 522.399 1020.51 520.438 1020.12 518.446L1012.43 519.992L982.877 514.048L953.325 519.992L923.772 514.048L894.219 519.992L885.46 518.238C884.746 520.24 884.098 522.171 883.514 524.034Z" fill="white"/>
<path d="M982.878 536.784L953.325 542.729L923.772 536.784L894.219 542.729L880.465 539.964C880.335 541.994 880.335 544.028 880.465 546.057L894.219 548.821L923.772 542.877L953.325 548.821L982.878 542.877L1012.43 548.821L1025.08 546.265C1024.76 544.274 1024.47 542.312 1024.14 540.321L1012.43 542.669L982.878 536.784Z" fill="white"/>
<path d="M982.878 559.432L953.325 565.376L923.772 559.432L894.219 565.376L885.785 563.682C886.433 564.781 887.147 565.881 887.926 566.951C888.704 568.021 889.645 569.358 890.553 570.726L894.219 571.469L923.772 565.524L953.325 571.469L982.878 565.524L1012.43 571.469L1028.26 568.288C1028 566.297 1027.71 564.336 1027.45 562.344L1012.43 565.316L982.878 559.432Z" fill="white"/>
<path d="M950.243 808.137L979.796 814.082L1009.35 808.137L1038.9 814.082L1068.45 808.137L1082.73 811.11L1082.73 805.017L1068.55 802.045L1039 807.989L1009.45 802.045L979.893 807.989L950.34 802.045L920.82 807.989L911.088 805.998L910.309 811.942L920.917 814.082L950.243 808.137Z" fill="white"/>
</g>
<path d="M922.669 625.977C923.512 628.295 920.982 660.899 919.262 717.577C917.965 761.059 906.708 838.334 901.518 871.919L1081.85 871.919C1083.15 837.858 1084.77 759.96 1074.33 727.653C1060.77 685.746 1045.52 677.127 1040.46 658.581C1035.4 640.035 1027.74 537.468 1015.03 498.652C1002.31 459.836 964.192 436.535 958.255 428.005C952.319 419.475 933.666 369.782 933.666 369.782L901.485 394.628C901.485 394.628 925.199 429.551 928.605 440.429C932.011 451.307 905.702 476.896 892.175 503.318C878.648 529.74 875.955 550.664 887.925 566.951C899.896 583.238 921.825 623.629 922.669 625.977Z" stroke="#263238" stroke-linecap="round" stroke-linejoin="round"/>
<path d="M901.453 575.838C901.453 575.838 912.352 595.84 948.75 588.053" stroke="#263238" stroke-linecap="round" stroke-linejoin="round"/>
<path d="M1000.88 704.708C1000.88 704.708 946.317 765.815 922.052 814.676" stroke="#263238" stroke-linecap="round" stroke-linejoin="round"/>
<path d="M942.684 754.729C942.684 754.729 919.619 793.604 913.488 818.035" stroke="#263238" stroke-linecap="round" stroke-linejoin="round"/>
<path d="M911.866 497.285C929.481 488.369 951.962 449.731 961.759 442.598L968.441 437.694C964.708 434.777 961.297 431.532 958.255 428.005C952.319 419.475 933.666 369.782 933.666 369.782L901.485 394.628C901.485 394.628 925.199 429.551 928.605 440.429C931.589 450.029 911.444 471.16 897.365 494.135C899.02 498.385 902.912 501.832 911.866 497.285Z" fill="white" stroke="#263238" stroke-linecap="round" stroke-linejoin="round"/>
<path d="M873.068 310.013C869.31 318.172 867.433 326.955 867.553 335.811C868.137 343.657 869.986 349.869 866.547 357.626C864.536 362.084 857.724 367.761 858.664 372.902C859.508 377.539 872.224 379.114 872.224 379.114C872.224 379.114 884.941 415.582 891.688 416.355C898.436 417.127 913.715 413.382 933.179 398.522C952.643 383.661 928.962 330.164 911.996 316.224C895.03 302.285 881.535 300.68 873.068 310.013Z" fill="white" stroke="#263238" stroke-linecap="round" stroke-linejoin="round"/>
<path d="M878.842 358.666C880.06 358.666 881.048 356.111 881.048 352.96C881.048 349.808 880.06 347.253 878.842 347.253C877.624 347.253 876.636 349.808 876.636 352.96C876.636 356.111 877.624 358.666 878.842 358.666Z" fill="#263238"/>
<path d="M872.971 339.853C872.971 339.853 875.177 331.768 884 337.832" stroke="#263238" stroke-linecap="round" stroke-linejoin="round"/>
<path d="M877.382 386.931C877.382 386.931 883.254 388.298 889.872 380.987" stroke="#263238" stroke-linecap="round" stroke-linejoin="round"/>
<path d="M891.721 268.849C891.721 268.849 860.351 269.651 855.258 288.257C850.165 306.862 873.068 323.209 889.158 330.966C905.248 338.723 919.652 351.147 919.652 364.343C919.652 377.539 920.528 393.083 932.368 407.052C944.209 421.021 971.296 432.671 992.544 431.899C1013.79 431.126 990.858 385.445 1002.7 352.752C1014.54 320.058 999.454 287.544 975.578 273.575C951.702 259.606 891.721 268.849 891.721 268.849Z" fill="#263238" stroke="#263238" stroke-linecap="round" stroke-linejoin="round"/>
<path d="M1083.25 550.723C1082.96 554.796 1082.27 558.835 1081.17 562.79" stroke="white" stroke-linecap="round" stroke-linejoin="round"/>
<path d="M884.519 317.086C890.358 326.003 901.42 335.513 922.214 340.863C967.63 352.752 984.921 381.492 984.921 406.249C984.921 431.007 987.094 448.84 1030.34 468.664C1043.09 474.505 1054.26 482.867 1063.05 493.147C1071.84 503.427 1078.03 515.367 1081.17 528.106" stroke="white" stroke-linecap="round" stroke-linejoin="round"/>
<path d="M877.869 297.262C877.877 298.988 878.061 300.71 878.42 302.404" stroke="white" stroke-linecap="round" stroke-linejoin="round"/>
<path d="M938.435 297.262C938.435 297.262 992.512 322.05 991.409 355.724C990.306 389.398 993.583 421.11 1027.09 439.923C1060.6 458.737 1095.22 470.655 1107.12 508.282" stroke="white" stroke-linecap="round" stroke-linejoin="round"/>
<path d="M968.604 477.58C968.604 477.58 954.233 482.573 946.739 508.252C939.245 533.931 969.966 579.018 974.767 599.08C979.568 619.141 984.337 649.784 984.337 649.784C984.337 649.784 876.993 730.031 861.292 742.484C845.591 754.937 837.351 763.14 837.351 763.14C837.351 763.14 798.423 794.466 794.985 800.737C791.546 807.008 782.009 839.553 785.415 840.801C788.821 842.049 794.985 828.288 794.985 825.792C794.985 823.295 801.797 809.505 801.797 809.505C801.797 809.505 796.347 841.366 796.347 843.149C796.347 844.932 801.797 843.149 802.478 840.623C803.16 838.096 810.686 811.823 810.686 811.823C810.686 811.823 806.598 841.247 809.323 844.516C812.048 847.785 816.849 825.732 816.849 825.732L822.299 808.197C822.299 808.197 820.937 838.869 823.694 840.117C826.452 841.366 832.583 810.069 832.583 810.069C832.583 810.069 844.878 787.511 849.646 779.992C852.366 775.901 854.441 771.478 855.81 766.855C855.81 766.855 919.392 734.905 959.034 717.369C998.676 699.834 1032.19 667.26 1036.27 661.642C1040.36 656.025 1031.47 577.086 1024.66 543.264C1017.85 509.441 1003.48 468.664 968.604 477.58Z" fill="white" stroke="#263238" stroke-linecap="round" stroke-linejoin="round"/>
<path d="M746.519 437.219C746.519 437.219 722.06 452.466 702.498 466.94C682.937 481.414 685.857 509.976 685.857 516.247C685.857 522.518 684.883 551.199 684.883 551.199L670.188 579.88C670.188 579.88 647.707 598.723 642.809 603.211C637.91 607.699 609.558 658.759 609.558 658.759L602.713 667.676L639.986 672.075C653.902 657.858 669.298 644.917 685.954 633.437C710.316 617.269 730.818 572.687 731.824 567.189C735.958 552.17 738.875 536.891 740.55 521.478" fill="white"/>
<path d="M746.519 437.219C746.519 437.219 722.06 452.466 702.498 466.94C682.937 481.414 685.857 509.976 685.857 516.247C685.857 522.518 684.883 551.199 684.883 551.199L670.188 579.88C670.188 579.88 647.707 598.723 642.809 603.211C637.91 607.699 609.558 658.759 609.558 658.759L602.713 667.676L639.986 672.075C653.902 657.858 669.298 644.917 685.954 633.437C710.316 617.269 730.818 572.687 731.824 567.189C735.958 552.17 738.875 536.891 740.55 521.478" stroke="#263238" stroke-linecap="round" stroke-linejoin="round"/>
<path d="M734.062 557.619C717.615 532.891 695.134 536.101 685.143 539.192C684.916 545.73 684.753 551.08 684.753 551.08L670.058 579.761C670.058 579.761 647.577 598.604 642.679 603.092C637.78 607.58 609.428 658.641 609.428 658.641L602.583 667.557L639.986 672.074C653.902 657.858 669.298 644.917 685.954 633.437C710.316 617.269 730.818 572.687 731.824 567.189C732.181 565.376 733.089 562.047 734.062 557.619Z" fill="white" stroke="#263238" stroke-linecap="round" stroke-linejoin="round"/>
<path d="M623.507 646.99C623.507 646.99 599.209 665.179 594.311 670.945C589.412 676.711 585.585 710.623 587.531 713.089C589.477 715.556 603.07 722.184 608.909 716.389C614.748 710.593 636.126 682.655 636.126 682.655C636.126 682.655 619.906 702.747 631.487 701.617C643.068 700.488 649.718 684.141 656.531 676.711C663.343 669.281 662.37 668.448 656.531 657.719L650.724 646.99" fill="white"/>
<path d="M623.507 646.99C623.507 646.99 599.209 665.179 594.311 670.945C589.412 676.711 585.585 710.623 587.531 713.089C589.477 715.556 603.07 722.184 608.909 716.389C614.748 710.593 636.126 682.655 636.126 682.655C636.126 682.655 619.906 702.747 631.487 701.617C643.068 700.488 649.718 684.141 656.531 676.711C663.343 669.281 662.37 668.448 656.531 657.719L650.724 646.99" stroke="#263238" stroke-linecap="round" stroke-linejoin="round"/>
<path d="M587.563 713.06C587.563 713.06 599.923 674.423 604.854 671.45" stroke="#263238" stroke-linecap="round" stroke-linejoin="round"/>
<path d="M593.37 715.883C593.37 715.883 607.709 679.564 615.105 672.045" stroke="#263238" stroke-linecap="round" stroke-linejoin="round"/>
<path d="M601.059 718.469C601.059 718.469 616.597 682.804 626.783 674.155" stroke="#263238" stroke-linecap="round" stroke-linejoin="round"/>
<path d="M636.126 682.655C636.126 682.655 644.398 675.938 645.663 671.896L636.126 682.655Z" fill="white"/>
<path d="M636.126 682.655C636.126 682.655 644.398 675.938 645.663 671.896" stroke="#263238" stroke-linecap="round" stroke-linejoin="round"/>
<path d="M37.4458 871.919L1251.48 871.919" stroke="#263238" stroke-linecap="round" stroke-linejoin="round"/>
</g>
<defs>
<clipPath id="clip0_53_2233">
<rect width="1293" height="873" fill="white"/>
</clipPath>
</defs>
</svg>
