<svg width="2357" height="440" viewBox="0 0 2357 440" fill="none" xmlns="http://www.w3.org/2000/svg">
<g clip-path="url(#clip0_709_110)">
<path d="M2417.88 164.71L2361.48 188.675C2305.17 212.972 2192.37 260.901 2060.32 235.264C1928 209.687 1776.71 110.484 1642.24 76.9321C1508.13 43.6516 1391.21 76.2937 1283.97 142.713C1176.37 208.859 1078.83 309.055 974.097 385.837C869.641 462.558 758.452 516.469 628.286 497.811C497.934 479.546 348.971 388.983 222.292 384.344C95.9783 379.976 -7.86555 461.139 -59.6979 502.052L-111.62 542.633L38.874 1100.95L98.2311 1087.95C157.588 1074.95 276.302 1048.96 394.464 1023.08C512.902 997.149 630.512 971.396 748.95 945.461C867.112 919.586 985.826 893.591 1103.99 867.717C1222.43 841.782 1340.04 816.028 1458.47 790.093C1576.64 764.219 1695.35 738.224 1813.51 712.349C1931.95 686.414 2049.56 660.661 2168 634.726C2286.16 608.851 2404.87 582.856 2464.23 569.858L2523.59 556.861L2417.88 164.71Z" fill="#FFE7B3"/>
</g>
<defs>
<clipPath id="clip0_709_110">
<rect width="2357" height="440" fill="white"/>
</clipPath>
</defs>
</svg>
