<svg width="130" height="131" viewBox="0 0 130 131" fill="none" xmlns="http://www.w3.org/2000/svg">
<circle cx="65" cy="65.5" r="65" fill="#FFEBEA"/>
<path d="M98.3699 63.0364C97.7538 68.8909 95.4978 74.4219 91.8875 78.9292C88.2771 83.4365 83.4747 86.7176 78.088 88.3571C72.7014 89.9966 66.9727 89.9208 61.6271 88.1393C56.2814 86.3579 51.5592 82.9508 48.0581 78.3493C44.5569 73.7479 42.4344 68.159 41.959 62.2901C41.4836 56.4211 42.6767 50.5359 45.3874 45.3794C48.098 40.223 52.2044 36.027 57.1867 33.3227C62.1689 30.6185 67.8031 29.5274 73.3761 30.1876C80.8372 31.0645 87.6614 35.0175 92.3483 41.1773C97.0352 47.3372 99.2011 55.1998 98.3699 63.0364Z" fill="#FF725E"/>
<g opacity="0.3">
<path d="M71.1937 73.4284L70.8175 77.3797L67.4816 77.0373L67.8328 73.2045C64.8721 72.7986 62.0787 71.5302 59.769 69.5429L62.0138 65.4467C63.8107 67.0486 65.9703 68.1373 68.2842 68.6078L68.8235 62.7466C65.1992 61.4295 61.1736 59.6778 61.6502 54.6596C62.0013 50.9453 64.8731 48.0081 70.2155 47.9291L70.5792 43.9778L73.9151 44.3202L73.5639 48.1399C75.9414 48.5298 78.1974 49.5046 80.1478 50.9848L78.0661 55.1337C76.5867 54.007 74.9061 53.2052 73.125 52.7761L72.5732 58.7558C76.1975 60.0729 80.0977 61.7588 79.6838 66.6584C79.3327 70.4122 76.4984 73.3099 71.1937 73.4284ZM69.3001 57.6231L69.7641 52.6312C67.9456 52.8683 67.1556 53.8166 67.0427 54.9757C66.9298 56.1347 67.8704 56.925 69.3001 57.5704V57.6231ZM74.2536 66.6716C74.3665 65.4467 73.4636 64.6828 72.0716 64.0374L71.6201 68.8844C73.3256 68.5551 74.1533 67.7385 74.2536 66.6189V66.6716Z" fill="black"/>
</g>
<g opacity="0.3">
<path d="M91.736 59.691C91.5579 58.7763 91.4655 57.8455 91.4601 56.9119C91.108 52.7115 89.6825 48.6889 87.3342 45.2687C86.2299 43.7033 84.9451 42.2875 83.5093 41.0539C82.7171 40.3878 81.8787 39.7847 81.0011 39.2495C80.1096 38.677 79.1741 38.1836 78.2045 37.7743C77.2084 37.3386 76.181 36.9863 75.132 36.7206C74.0466 36.451 72.9445 36.2617 71.8338 36.1543C70.7231 36.0752 69.6086 36.0752 68.498 36.1543C66.376 36.319 64.2908 36.8254 62.3154 37.6558C61.3854 38.0207 60.4839 38.461 59.6191 38.9729C56.5633 40.7788 53.9788 43.3484 52.0946 46.4541C50.8225 48.559 49.8744 50.8615 49.2854 53.2767C49.131 54.1761 48.8958 55.0581 48.5832 55.9109C48.3876 54.9782 48.3876 54.0119 48.5832 53.0791C48.9845 50.5013 49.8348 48.0233 51.0913 45.7692C51.9471 44.2011 52.9787 42.7463 54.1638 41.4359C55.5285 39.9044 57.0853 38.5751 58.7914 37.4846C59.7134 36.8971 60.6778 36.3862 61.6758 35.9567C62.7132 35.5059 63.7824 35.1404 64.8737 34.8635C66.0067 34.5712 67.1598 34.373 68.3224 34.2708C69.5205 34.1786 70.7235 34.1786 71.9216 34.2708C73.1167 34.3849 74.3026 34.5874 75.4706 34.8767C76.6006 35.1799 77.7073 35.5718 78.7814 36.0489C79.8161 36.504 80.8142 37.0457 81.7661 37.6689C84.3668 39.3677 86.6077 41.6091 88.35 44.2545C89.3177 45.7533 90.1133 47.367 90.7202 49.062C91.5855 51.5002 92.0107 54.0863 91.9743 56.688C92.117 57.6949 92.0354 58.7228 91.736 59.691Z" fill="black"/>
</g>
<path d="M91.7103 61.8114C91.6938 61.6891 91.6938 61.565 91.7103 61.4426C91.7103 61.1661 91.7103 60.8104 91.7103 60.3494C91.7482 59.7662 91.7482 59.1809 91.7103 58.5977C91.6914 57.795 91.6244 56.9944 91.5096 56.2005C91.2334 54.0207 90.6546 51.8951 89.7915 49.8916C88.6647 47.2352 87.0641 44.8299 85.0762 42.8055C82.5021 40.1572 79.324 38.247 75.8459 37.2577C72.3679 36.2684 68.7063 36.2331 65.2115 37.1551C64.2198 37.4085 63.2474 37.7387 62.3021 38.1429C61.3382 38.5704 60.4037 39.0677 59.5055 39.6313C57.6255 40.777 55.932 42.231 54.4891 43.9382C52.9801 45.6782 51.7402 47.6559 50.8147 49.7994C49.8857 52.0117 49.2689 54.3545 48.9837 56.7537C48.7475 59.1671 48.8532 61.6039 49.2973 63.9847C49.74 66.2931 50.5228 68.515 51.6173 70.5702C52.6587 72.5594 53.9918 74.364 55.5677 75.9177C56.3229 76.6818 57.1275 77.3904 57.9755 78.0383C58.8201 78.6438 59.6996 79.1937 60.6091 79.6846C63.3169 81.0841 66.2742 81.8711 69.2898 81.995C72.3054 82.1188 75.3123 81.5767 78.1159 80.4036C80.9195 79.2305 83.4575 77.4525 85.5659 75.1847C87.6743 72.9169 89.3061 70.2096 90.3558 67.2379C90.6417 66.4926 90.8764 65.7267 91.0581 64.9462C91.2239 64.3861 91.3497 63.8137 91.4344 63.2339C91.5096 62.7861 91.5848 62.4305 91.6225 62.167C91.638 62.0409 91.6674 61.9172 91.7103 61.7983C91.7242 61.9207 91.7242 62.0445 91.7103 62.167C91.7103 62.4436 91.6225 62.7993 91.5723 63.2471C91.5017 63.8338 91.3928 64.4147 91.2463 64.9857C91.0718 65.7767 90.8498 66.5554 90.5816 67.3169C89.8799 69.4152 88.8822 71.391 87.6219 73.1781C85.9583 75.5602 83.8717 77.5818 81.477 79.1314C78.357 81.1864 74.7833 82.3575 71.1042 82.5307C67.4252 82.7038 63.7661 81.873 60.4837 80.1193C59.5493 79.6276 58.6484 79.0687 57.7874 78.4466C56.9003 77.7945 56.0618 77.0723 55.2792 76.2865C53.6588 74.701 52.2874 72.8562 51.216 70.8205C50.0904 68.7162 49.2823 66.4413 48.8207 64.0769C48.3768 61.6427 48.2712 59.1538 48.5072 56.6879C48.7936 54.2234 49.4276 51.8175 50.3883 49.5491C51.3309 47.3501 52.6009 45.3227 54.1506 43.5431C55.6226 41.804 57.3499 40.3233 59.2672 39.1571C60.1835 38.5751 61.1391 38.0644 62.1265 37.6293C63.1041 37.2283 64.1052 36.8939 65.1237 36.6283C68.6953 35.6871 72.438 35.7335 75.9873 36.763C79.5367 37.7924 82.7717 39.7698 85.3771 42.5026C87.3763 44.5777 88.9772 47.037 90.0925 49.7467C90.9459 51.7852 91.4998 53.9479 91.7353 56.161C91.8482 56.9588 91.8985 57.7649 91.8858 58.5714C91.9335 59.163 91.9335 59.7578 91.8858 60.3494C91.8858 60.7972 91.8858 61.1529 91.798 61.4295C91.7843 61.5602 91.7548 61.6885 91.7103 61.8114Z" fill="#263238"/>
<path d="M59.9949 85.9277C59.7032 85.8952 59.419 85.8105 59.1546 85.6774C58.4062 85.3968 57.6771 85.0623 56.9725 84.6764C54.6469 83.4159 52.5297 81.7705 50.7021 79.8031C48.8601 77.8303 47.3278 75.563 46.1624 73.0858C45.809 72.3396 45.5032 71.5696 45.2469 70.7809C45.1262 70.4978 45.054 70.1947 45.0337 69.8853C45.1215 69.8853 45.5604 71.0706 46.5009 72.9014C47.7399 75.2769 49.2844 77.4619 51.0909 79.3948C52.8989 81.3268 54.9545 82.9847 57.1982 84.3208C58.9038 85.3481 60.0576 85.8355 59.9949 85.9277Z" fill="white"/>
<path d="M64.5095 87.6927C64.5095 87.8376 63.895 87.7849 63.2554 87.5742C62.6158 87.3635 62.1017 87.0737 62.1518 86.9156C62.202 86.7576 62.7663 86.8234 63.4059 87.0342C64.0455 87.2449 64.5597 87.5347 64.5095 87.6927Z" fill="white"/>
<path d="M20.1352 75.8316L28.2082 93.7614L29.3534 96.308C29.5947 96.8929 29.982 97.3173 30.4333 97.4912C30.8846 97.6651 31.3644 97.5749 31.771 97.2397L42.0848 87.426L39.6672 86.4943L47.1675 104.683L48.2279 107.25C49.4014 110.097 52.4694 107.499 51.2817 104.641C48.7793 98.5544 46.2721 92.4709 43.7602 86.3908L42.6998 83.8234C42.4611 83.2344 42.0737 82.8066 41.6214 82.6323C41.169 82.458 40.688 82.5512 40.2822 82.8917L29.9613 92.7366L32.3789 93.6683L24.3131 75.7281L23.1679 73.1815C21.9167 70.4175 18.8557 73.0055 20.114 75.8006L20.1352 75.8316Z" fill="#FF725E"/>
<path d="M41.6816 107.664L54.8867 95.48V115.025L41.6816 107.664Z" fill="#FF725E"/>
</svg>
