<svg width="157" height="164" viewBox="0 0 157 164" fill="none" xmlns="http://www.w3.org/2000/svg">
<rect x="1.02539" y="1.34009" width="155.061" height="161.588" rx="2.5" fill="#F4F4F4"/>
<rect x="1.02539" y="1.34009" width="155.061" height="161.588" rx="2.5" stroke="#E5E5E5"/>
<path d="M112.694 130.531C111.4 130.531 110.16 130.012 109.245 129.089C108.331 128.166 107.817 126.914 107.817 125.609C107.817 112.99 102.85 100.888 94.0088 91.9653C85.1677 83.0425 73.1766 78.0297 60.6735 78.0297C48.1703 78.0297 36.1792 83.0425 27.3381 91.9653C18.497 100.888 13.5302 112.99 13.5302 125.609C13.5302 126.914 13.0163 128.166 12.1017 129.089C11.1872 130.012 9.94669 130.531 8.65326 130.531C7.35983 130.531 6.11937 130.012 5.20478 129.089C4.29018 128.166 3.77637 126.914 3.77637 125.609C3.77637 110.379 9.77087 95.7735 20.4411 85.0046C31.1114 74.2356 45.5834 68.1857 60.6735 68.1857C75.7635 68.1857 90.2355 74.2356 100.906 85.0046C111.576 95.7735 117.571 110.379 117.571 125.609C117.571 126.914 117.057 128.166 116.142 129.089C115.228 130.012 113.987 130.531 112.694 130.531ZM60.6735 78.0297C54.2431 78.0297 47.9571 76.1052 42.6104 72.4996C37.2637 68.8941 33.0965 63.7693 30.6357 57.7735C28.1749 51.7776 27.5311 45.18 28.7856 38.8148C30.0401 32.4497 33.1366 26.6029 37.6836 22.0139C42.2305 17.4249 48.0237 14.2997 54.3306 13.0336C60.6374 11.7675 67.1746 12.4173 73.1155 14.9009C79.0564 17.3844 84.1342 21.5902 87.7067 26.9863C91.2793 32.3824 93.1861 38.7265 93.1861 45.2164C93.1861 49.5255 92.3451 53.7924 90.7112 57.7735C89.0773 61.7546 86.6824 65.3719 83.6634 68.4189C80.6443 71.4659 77.0601 73.8829 73.1155 75.5319C69.1709 77.1809 64.9431 78.0297 60.6735 78.0297ZM60.6735 22.2471C56.1722 22.2471 51.772 23.5942 48.0293 26.1181C44.2867 28.642 41.3696 32.2293 39.647 36.4264C37.9245 40.6235 37.4738 45.2419 38.3519 49.6975C39.2301 54.1531 41.3977 58.2458 44.5805 61.4581C47.7634 64.6705 51.8187 66.8581 56.2334 67.7444C60.6482 68.6306 65.2243 68.1758 69.3829 66.4373C73.5415 64.6988 77.096 61.7547 79.5968 57.9775C82.0975 54.2002 83.4323 49.7593 83.4323 45.2164C83.4323 39.1246 81.0345 33.2822 76.7664 28.9746C72.4983 24.6671 66.7095 22.2471 60.6735 22.2471Z" fill="#5B8DF0"/>
<path d="M153.335 125.609C153.335 126.914 152.821 128.166 151.906 129.089C150.992 130.012 149.751 130.531 148.458 130.531C147.164 130.531 145.924 130.012 145.009 129.089C144.095 128.166 143.581 126.914 143.581 125.609C143.581 119.361 142.361 113.174 139.992 107.401C137.623 101.629 134.15 96.3835 129.773 91.9653C125.395 87.5472 120.198 84.0425 114.478 81.6514C108.759 79.2604 102.628 78.0297 96.4374 78.0297C95.144 78.0297 93.9036 77.5111 92.989 76.5881C92.0744 75.665 91.5605 74.4131 91.5605 73.1077C91.5605 71.8023 92.0744 70.5504 92.989 69.6273C93.9036 68.7043 95.144 68.1857 96.4374 68.1857C102.473 68.1857 108.262 65.7657 112.53 61.4581C116.798 57.1506 119.196 51.3082 119.196 45.2164C119.196 39.1246 116.798 33.2822 112.53 28.9746C108.262 24.6671 102.473 22.2471 96.4374 22.2471C95.144 22.2471 93.9036 21.7285 92.989 20.8055C92.0744 19.8824 91.5605 18.6305 91.5605 17.3251C91.5605 16.0197 92.0744 14.7678 92.989 13.8447C93.9036 12.9217 95.144 12.4031 96.4374 12.4031C103.288 12.3962 109.965 14.5752 115.515 18.6287C121.064 22.6821 125.202 28.4025 127.336 34.9721C129.471 41.5416 129.493 48.6241 127.399 55.207C125.305 61.7899 121.203 67.5362 115.678 71.6245C126.698 75.6159 136.228 82.9429 142.968 92.6049C149.708 102.267 153.328 113.793 153.335 125.609Z" fill="#F2A355"/>
</svg>
