<?xml version="1.0" encoding="UTF-8"?>
<svg version="1.1" xmlns="http://www.w3.org/2000/svg" width="223" height="232">
<path d="M0 0 C73.59 0 147.18 0 223 0 C223 76.56 223 153.12 223 232 C149.41 232 75.82 232 0 232 C0 155.44 0 78.88 0 0 Z " fill="#F1F1F1" transform="translate(0,0)"/>
<path d="M0 0 C3.29784712 2.06606196 6.14009515 4.36934604 9 7 C9.61230469 7.49886719 10.22460938 7.99773438 10.85546875 8.51171875 C17.57458895 14.40021923 23.38162399 24.98548372 24.17700195 34.0078125 C24.61676479 49.20153075 23.13526277 60.94184153 13 73 C11.03466735 75.03898659 9.02568676 77.01996252 7 79 C8.03898437 79.556875 9.07796875 80.11375 10.1484375 80.6875 C18.3727005 85.16008491 26.00097449 89.70973656 33 96 C33.68191406 96.58910156 34.36382812 97.17820312 35.06640625 97.78515625 C48.5491018 110.21245489 57.94328783 129.73397526 59 148 C59.07605469 148.93457031 59.15210938 149.86914062 59.23046875 150.83203125 C59.46697367 155.60687379 59.54478233 158.16680349 56.875 162.25 C54 164 54 164 50.875 164.0625 C47.52440235 162.82423565 46.76398984 162.05246938 45 159 C44.62890625 156.0390625 44.62890625 156.0390625 44.5625 152.625 C43.45406576 132.4431313 34.15798145 117.31367718 19.75 103.90625 C5.09759898 91.62409032 -12.83753109 88.72695242 -31.33789062 89.75439453 C-47.5410578 91.24929422 -61.54447559 100.39076067 -72.52734375 111.98828125 C-82.26349848 123.84701 -86.8960029 137.44801191 -88.31787109 152.62060547 C-88.66111519 156.13687208 -88.98393822 159.0454267 -91 162 C-94 164 -94 164 -97 163.875 C-100.54900177 162.83987448 -101.18223526 162.14409889 -103 159 C-105.97097082 141.34748171 -97.91916693 122.34663247 -88.0234375 108.16796875 C-86.104865 105.67993947 -84.10564049 103.33110104 -82 101 C-81.00419922 99.86498047 -81.00419922 99.86498047 -79.98828125 98.70703125 C-71.94707368 90.07127968 -61.66695609 83.9067998 -51 79 C-51.51949219 78.5153125 -52.03898437 78.030625 -52.57421875 77.53125 C-57.23229113 73.05399004 -61.05813873 68.76856072 -64 63 C-64.58974609 61.88818359 -64.58974609 61.88818359 -65.19140625 60.75390625 C-69.77946029 50.50671936 -69.9411523 36.43603773 -66.375 25.8125 C-60.31794716 12.2843785 -50.82747302 2.50571706 -37 -3 C-24.36705819 -7.21582638 -11.83939393 -5.87529924 0 0 Z " fill="#5D8EF0" transform="translate(109,26)"/>
<path d="M0 0 C10.06015853 1.43137826 18.12498588 4.92642052 25.91015625 11.4140625 C26.61914062 11.98769531 27.328125 12.56132813 28.05859375 13.15234375 C35.48641751 19.7975424 41.40356084 30.26588615 42.02905273 40.32641602 C42.63369493 55.84556577 40.64312368 67.64670475 29.8984375 79.6640625 C28.27401681 81.2983681 26.63062988 82.88184739 24.91015625 84.4140625 C27.85508545 86.37734863 30.82450997 87.92559063 33.97265625 89.5390625 C40.24041452 92.90275944 45.59945736 96.69852814 50.91015625 101.4140625 C51.5959375 102.00574219 52.28171875 102.59742187 52.98828125 103.20703125 C66.46026143 115.64474524 75.85334427 135.14631258 76.91015625 153.4140625 C76.98621094 154.34863281 77.06226563 155.28320312 77.140625 156.24609375 C77.37712992 161.02093629 77.45493858 163.58086599 74.78515625 167.6640625 C71.91015625 169.4140625 71.91015625 169.4140625 68.78515625 169.4765625 C65.35811148 168.21004595 64.66156361 167.58848834 62.91015625 164.4140625 C62.37435507 161.45191272 62.22258437 158.47806057 62.03515625 155.4765625 C61.31805602 147.08386338 59.65170734 140.03722275 55.91015625 132.4140625 C55.18699219 130.90972656 55.18699219 130.90972656 54.44921875 129.375 C45.92783796 113.28829578 31.52984006 102.52473407 14.26953125 97.13671875 C9.25535224 96.05808722 4.17253265 95.61325152 -0.94824219 95.35986328 C-4.80898157 95.08240953 -6.73759777 94.73862814 -9.625 92.078125 C-11.62654009 88.43799076 -11.20358408 86.34927834 -10.08984375 82.4140625 C-7.00020453 80.35430302 -5.54534284 80.03890425 -1.96484375 79.5390625 C3.49535246 78.61580607 8.02250917 76.98247312 12.91015625 74.4140625 C13.96203125 73.8778125 15.01390625 73.3415625 16.09765625 72.7890625 C22.00041167 67.80451348 26.53746115 59.69279589 27.2109375 51.9609375 C27.24554362 40.74855432 26.12768701 31.7015297 17.91015625 23.4140625 C11.34349376 17.97873512 4.37044573 16.38421769 -3.8671875 15.15234375 C-7.07680272 14.41705008 -8.23802565 14.06229188 -10.08984375 11.4140625 C-11.29139529 7.72930443 -11.39797359 6.08901357 -9.77734375 2.5390625 C-6.32870545 -0.18776779 -4.30622424 -0.24099635 0 0 Z " fill="#F2A458" transform="translate(142.08984375,20.5859375)"/>
<path d="M0 0 C7.51546193 4.16666051 11.97964001 9.68761967 15.65625 17.47265625 C18.42312421 27.75931744 17.57493296 37.8036874 12.296875 47.015625 C7.57507304 54.08708556 0.87285369 59.25860136 -7.34375 61.47265625 C-18.40879149 62.46804701 -27.12461007 61.53901697 -36.59375 55.34765625 C-44.47381911 47.10940218 -47.83525426 38.05597907 -47.84570312 26.73071289 C-47.60402176 18.71769389 -44.755862 12.34112068 -39.4453125 6.3203125 C-28.13509107 -4.25228579 -14.10764031 -6.66400378 0 0 Z " fill="#F0F1F1" transform="translate(102.34375,38.52734375)"/>
</svg>
