<svg width="941" height="335" viewBox="0 0 941 335" fill="none" xmlns="http://www.w3.org/2000/svg">
<g clip-path="url(#clip0_696_106)">
<path d="M1240.78 464.341L1194.3 466.112C1147.73 468.232 1054.78 471.774 981.753 398.466C908.522 325.113 855.423 174.955 784.313 93.2461C713.317 11.9307 624.425 -0.541409 526.929 22.588C429.318 45.3241 323.216 104.055 222.779 137.932C122.544 171.854 27.9991 181.663 -46.8834 115.667C-122.057 49.9728 -177.454 -91.1339 -256.249 -142.554C-334.93 -193.58 -436.718 -155.222 -487.701 -135.695L-538.595 -116.517L-687 468.374L-643.437 478.092C-599.875 487.81 -512.75 507.245 -426.031 526.589C-339.109 545.979 -252.794 565.234 -165.872 584.624C-79.1526 603.969 7.97206 623.404 94.6916 642.749C181.614 662.139 267.928 681.393 354.85 700.783C441.57 720.128 528.694 739.563 615.414 758.908C702.336 778.298 788.65 797.552 875.572 816.942C962.292 836.287 1049.42 855.722 1092.98 865.44L1136.54 875.157L1240.78 464.341Z" fill="#FFE7B3"/>
</g>
<defs>
<clipPath id="clip0_696_106">
<rect width="941" height="335" fill="white"/>
</clipPath>
</defs>
</svg>
