<svg width="91" height="93" viewBox="0 0 91 93" fill="none" xmlns="http://www.w3.org/2000/svg">
<ellipse cx="45.8077" cy="46.2756" rx="44.8661" ry="46.02" fill="#D9D9D9"/>
<path d="M71.6543 81.3384C71.0376 81.3384 70.4461 81.0498 70.0101 80.5361C69.574 80.0224 69.329 79.3257 69.329 78.5991C69.329 71.5763 66.9608 64.8411 62.7454 59.8751C58.53 54.9092 52.8127 52.1194 46.8512 52.1194C40.8898 52.1194 35.1725 54.9092 30.9571 59.8751C26.7417 64.8411 24.3735 71.5763 24.3735 78.5991C24.3735 79.3257 24.1285 80.0224 23.6924 80.5361C23.2563 81.0498 22.6649 81.3384 22.0482 81.3384C21.4315 81.3384 20.84 81.0498 20.404 80.5361C19.9679 80.0224 19.7229 79.3257 19.7229 78.5991C19.7229 70.1233 22.5811 61.9945 27.6686 56.0012C32.7562 50.0079 39.6563 46.6408 46.8512 46.6408C54.0461 46.6408 60.9463 50.0079 66.0339 56.0012C71.1214 61.9945 73.9796 70.1233 73.9796 78.5991C73.9796 79.3257 73.7346 80.0224 73.2985 80.5361C72.8624 81.0498 72.271 81.3384 71.6543 81.3384ZM46.8512 52.1194C43.7852 52.1194 40.7881 51.0483 38.2388 49.0417C35.6896 47.0351 33.7026 44.1829 32.5293 40.846C31.356 37.5091 31.049 33.8372 31.6472 30.2948C32.2453 26.7523 33.7218 23.4983 35.8897 20.9444C38.0577 18.3904 40.8199 16.6511 43.827 15.9465C46.834 15.2418 49.9509 15.6035 52.7836 16.9857C55.6162 18.3679 58.0372 20.7086 59.7406 23.7117C61.444 26.7149 62.3531 30.2456 62.3531 33.8575C62.3531 36.2557 61.9522 38.6304 61.1731 40.846C60.3941 43.0617 59.2522 45.0748 57.8127 46.7706C56.3732 48.4664 54.6643 49.8115 52.7836 50.7293C50.9028 51.647 48.887 52.1194 46.8512 52.1194ZM46.8512 21.0742C44.705 21.0742 42.607 21.8239 40.8226 23.2285C39.0381 24.6332 37.6472 26.6297 36.8259 28.9655C36.0046 31.3014 35.7897 33.8717 36.2084 36.3514C36.6271 38.8311 37.6606 41.1089 39.1782 42.8967C40.6958 44.6844 42.6293 45.9019 44.7342 46.3952C46.8392 46.8884 49.021 46.6353 51.0039 45.6677C52.9867 44.7002 54.6814 43.0617 55.8738 40.9595C57.0661 38.8573 57.7026 36.3858 57.7026 33.8575C57.7026 30.4671 56.5593 27.2157 54.5243 24.8183C52.4893 22.421 49.7292 21.0742 46.8512 21.0742Z" fill="#5B8DF0"/>
</svg>
