<svg width="141" height="141" viewBox="0 0 141 141" fill="none" xmlns="http://www.w3.org/2000/svg">
<circle cx="72" cy="75.5" r="65" fill="#FFEDB9"/>
<path d="M70.5836 129.807C102.803 129.807 128.922 125.848 128.922 120.965C128.922 116.081 102.803 112.122 70.5836 112.122C38.3642 112.122 12.2451 116.081 12.2451 120.965C12.2451 125.848 38.3642 129.807 70.5836 129.807Z" fill="#EEC757"/>
<path d="M109.578 36.8909L50.0293 43.8438L53.3783 72.5235L112.927 65.5707L109.578 36.8909Z" fill="#FFC727"/>
<path opacity="0.1" d="M109.578 36.8909L50.0293 43.8438L53.3783 72.5235L112.927 65.5707L109.578 36.8909Z" fill="black"/>
<path opacity="0.1" d="M109.579 36.8684L107.778 37.0807L51.8384 43.6304L50.0312 43.8399L50.2435 45.6442L53.1736 70.7147L53.3859 72.5218L55.1875 72.3095L111.129 65.771L112.931 65.5615L109.585 36.8684H109.579ZM110.92 63.9611L54.978 70.5024L52.0507 45.4319L107.987 38.899L110.92 63.9611Z" fill="black"/>
<path opacity="0.1" d="M82.6571 64.784C87.263 64.2462 90.4883 59.4556 89.861 54.0838C89.2337 48.7121 84.9914 44.7934 80.3856 45.3312C75.7797 45.869 72.5544 50.6596 73.1817 56.0313C73.8089 61.403 78.0512 65.3217 82.6571 64.784Z" fill="black"/>
<path opacity="0.1" d="M67.5697 56.0428C67.6214 56.4845 67.5409 56.9316 67.3385 57.3275C67.136 57.7235 66.8207 58.0505 66.4324 58.2673C66.0441 58.4841 65.6002 58.5808 65.1569 58.5453C64.7136 58.5098 64.2908 58.3437 63.9419 58.0679C63.593 57.7921 63.3338 57.419 63.197 56.9959C63.0601 56.5727 63.0519 56.1185 63.1732 55.6907C63.2945 55.2629 63.54 54.8806 63.8786 54.5923C64.2172 54.304 64.6337 54.1225 65.0754 54.0709C65.6676 54.0017 66.2631 54.1705 66.7309 54.5403C67.1987 54.9101 67.5004 55.4505 67.5697 56.0428Z" fill="black"/>
<path opacity="0.1" d="M99.8005 52.2777C99.8516 52.7193 99.7706 53.166 99.5678 53.5615C99.3651 53.9571 99.0497 54.2837 98.6614 54.5C98.2731 54.7164 97.8294 54.8128 97.3864 54.7771C96.9433 54.7414 96.5208 54.5752 96.1721 54.2995C95.8235 54.0238 95.5644 53.651 95.4275 53.2281C95.2907 52.8052 95.2823 52.3513 95.4034 51.9236C95.5244 51.4959 95.7695 51.1137 96.1077 50.8253C96.4459 50.5369 96.862 50.3551 97.3034 50.303C97.8964 50.2338 98.4926 50.403 98.9609 50.7733C99.4292 51.1436 99.7312 51.6848 99.8005 52.2777Z" fill="black"/>
<path opacity="0.1" d="M58.9696 70.0387L54.9782 70.5024L54.5117 66.5167C55.0357 66.4551 55.5667 66.4974 56.0744 66.6411C56.582 66.7848 57.0564 67.0272 57.4704 67.3542C57.8843 67.6813 58.2298 68.0867 58.4871 68.5473C58.7443 69.0079 58.9083 69.5147 58.9696 70.0387Z" fill="black"/>
<path opacity="0.1" d="M110.451 59.9783L110.917 63.9612L106.931 64.4276C106.809 63.3712 107.111 62.3095 107.771 61.4754C108.431 60.6413 109.395 60.1029 110.451 59.9783Z" fill="black"/>
<path opacity="0.1" d="M103.999 39.3627L107.987 38.8962L108.454 42.8819C107.93 42.9435 107.399 42.9013 106.892 42.7577C106.385 42.6141 105.911 42.372 105.497 42.0452C105.083 41.7184 104.738 41.3133 104.481 40.853C104.224 40.3927 104.06 39.8863 103.999 39.3627Z" fill="black"/>
<path opacity="0.1" d="M52.5143 49.4204L52.0479 45.4291L56.0337 44.9683C56.1565 46.0252 55.8548 47.0876 55.195 47.9223C54.5351 48.757 53.571 49.2958 52.5143 49.4204Z" fill="black"/>
<path d="M80.7622 47.6971C80.8687 47.6852 80.9756 47.7158 81.0598 47.7822C81.144 47.8486 81.1986 47.9454 81.2119 48.0518L81.2901 48.7221C82.39 48.6779 83.4779 48.965 84.4129 49.5461C84.4861 49.5777 84.5501 49.6273 84.5989 49.6903C84.6478 49.7533 84.6799 49.8276 84.6922 49.9064C84.7031 50.0197 84.6687 50.1327 84.5964 50.2206C84.5242 50.3086 84.42 50.3643 84.3067 50.3756C84.2514 50.3842 84.1949 50.3815 84.1406 50.3675C84.0864 50.3536 84.0355 50.3288 83.9911 50.2946C83.2066 49.7755 82.2867 49.4986 81.346 49.4986L81.9046 54.1937C84.5162 54.4311 85.7005 55.2635 85.8933 56.9058C86.1 58.685 84.7564 60.1178 82.6671 60.4278L82.818 61.7378C82.827 61.8428 82.7947 61.9472 82.728 62.0289C82.6612 62.1105 82.5653 62.1629 82.4606 62.1749C82.3558 62.1869 82.2505 62.1576 82.167 62.0931C82.0836 62.0287 82.0285 61.9343 82.0135 61.8299L81.8599 60.506C80.4431 60.5655 79.0473 60.1475 77.8964 59.319C77.8349 59.2863 77.7823 59.2392 77.7429 59.1819C77.7035 59.1245 77.6786 59.0585 77.6701 58.9894C77.6618 58.8788 77.6953 58.7691 77.7642 58.6822C77.833 58.5953 77.9321 58.5374 78.0416 58.5202C78.1537 58.5058 78.267 58.5359 78.3572 58.604C79.3414 59.3684 80.5582 59.7717 81.8041 59.7463L81.2454 54.9674C78.6645 54.7077 77.5193 53.906 77.321 52.2302C77.1227 50.5544 78.4383 49.0713 80.4885 48.7836L80.4158 48.144C80.4046 48.0392 80.4344 47.9341 80.499 47.8508C80.5636 47.7674 80.6579 47.7124 80.7622 47.6971ZM81.1365 54.1211L80.603 49.5405C78.9801 49.7667 78.0193 50.8644 78.1617 52.071C78.2958 53.2022 78.9131 53.8446 81.1365 54.1127V54.1211ZM81.9968 55.0568L82.5359 59.6849C84.2118 59.4558 85.1866 58.3554 85.0358 57.0817C84.9017 55.917 84.2313 55.2802 81.9968 55.0484V55.0568Z" fill="#FFC727"/>
<path d="M128.886 84.3337H106.758V95.5618H128.886V84.3337Z" fill="#FFC727"/>
<path d="M126.35 90.5207C126.667 89.1707 125.83 87.8191 124.48 87.5017C123.13 87.1843 121.778 88.0214 121.461 89.3714C121.144 90.7213 121.981 92.073 123.331 92.3903C124.681 92.7077 126.032 91.8706 126.35 90.5207Z" fill="#EBEBEB"/>
<path d="M123.908 91.3219C124.667 91.3219 125.283 90.7066 125.283 89.9477C125.283 89.1887 124.667 88.5735 123.908 88.5735C123.149 88.5735 122.534 89.1887 122.534 89.9477C122.534 90.7066 123.149 91.3219 123.908 91.3219Z" fill="#DBDBDB"/>
<path d="M115.509 64.5002H48.5342V114.504H115.509V64.5002Z" fill="#FFC727"/>
<path opacity="0.1" d="M115.509 64.5002H48.5342V114.504H115.509V64.5002Z" fill="black"/>
<path d="M103.468 39.2564L110.149 69.4493C110.327 70.2589 110.177 71.106 109.732 71.805C109.286 72.504 108.581 72.9978 107.772 73.178L59.8803 83.7917C59.479 83.8805 59.0641 83.8894 58.6594 83.8177C58.2547 83.746 57.868 83.5952 57.5217 83.3739C57.1753 83.1526 56.876 82.8651 56.6409 82.528C56.4057 82.1909 56.2394 81.8107 56.1514 81.4092L49.4673 51.2051C49.301 50.451 49.4409 49.6617 49.8562 49.0107C50.2715 48.3597 50.9284 47.9003 51.6823 47.7333L100.004 37.0415C100.757 36.8784 101.544 37.0198 102.193 37.4347C102.842 37.8497 103.3 38.5046 103.468 39.2564Z" fill="#455A64"/>
<path d="M63.516 50.551L55.6698 52.2875C55.0372 52.4275 54.6379 53.0538 54.7779 53.6864L55.8216 58.4015C55.9616 59.034 56.5879 59.4333 57.2205 59.2933L65.0666 57.5568C65.6992 57.4168 66.0985 56.7905 65.9585 56.158L64.9149 51.4429C64.7749 50.8103 64.1486 50.411 63.516 50.551Z" fill="#FFC727"/>
<path d="M98.5912 46.8228L94.0076 47.8366C93.7551 47.8942 93.4937 47.901 93.2386 47.8567C92.9835 47.8124 92.7397 47.7178 92.5215 47.5785C92.3032 47.4393 92.1148 47.258 91.9671 47.0453C91.8194 46.8326 91.7155 46.5927 91.6613 46.3396C91.6037 46.0873 91.5968 45.8261 91.641 45.5712C91.6851 45.3162 91.7794 45.0726 91.9184 44.8544C92.0574 44.6361 92.2383 44.4477 92.4507 44.2999C92.6631 44.1521 92.9027 44.0479 93.1556 43.9934L97.7421 42.9795C97.9945 42.922 98.2559 42.9152 98.511 42.9595C98.7661 43.0038 99.0099 43.0983 99.2282 43.2376C99.4464 43.3769 99.6349 43.5581 99.7825 43.7708C99.9302 43.9835 100.034 44.2234 100.088 44.4766C100.201 44.9862 100.106 45.5196 99.8253 45.9595C99.5446 46.3994 99.1007 46.7099 98.5912 46.8228Z" fill="#FFEDB9"/>
<path d="M57.1151 66.0167L56.7548 66.3519C56.7417 66.3653 56.7253 66.375 56.7073 66.3798C56.6893 66.3836 56.6706 66.3828 56.653 66.3774C56.6355 66.372 56.6195 66.3623 56.6067 66.3491C56.5965 66.3397 56.5883 66.3282 56.5827 66.3155C56.5771 66.3028 56.5742 66.289 56.5742 66.2751C56.5742 66.2612 56.5771 66.2474 56.5827 66.2347C56.5883 66.2219 56.5965 66.2105 56.6067 66.2011L57.0983 65.7318C57.1183 65.714 57.1441 65.7041 57.1709 65.7041C57.1977 65.7041 57.2236 65.714 57.2436 65.7318C57.2617 65.7519 57.2725 65.7775 57.2743 65.8045L57.872 68.5053C57.8779 68.532 57.8729 68.5599 57.8583 68.5829C57.8436 68.6059 57.8204 68.6222 57.7938 68.6282C57.7669 68.6334 57.7389 68.6283 57.7156 68.6138C57.6923 68.5993 57.6754 68.5765 57.6681 68.55L57.1151 66.0167Z" fill="#F8F8F8"/>
<path d="M58.573 68.2737L59.6708 66.7319C59.7344 66.6433 59.7787 66.5423 59.8008 66.4355C59.823 66.3287 59.8224 66.2184 59.7992 66.1118C59.7532 65.9129 59.6307 65.7401 59.4582 65.6308C59.2856 65.5215 59.077 65.4846 58.8775 65.5281C58.6875 65.5686 58.5194 65.678 58.4054 65.8353L58.2937 65.9973C58.2782 66.0203 58.2541 66.0361 58.2269 66.0414C58.1996 66.0466 58.1714 66.0408 58.1485 66.0252C58.1255 66.0097 58.1097 65.9856 58.1044 65.9584C58.0992 65.9312 58.105 65.903 58.1205 65.88L58.2351 65.7124C58.3792 65.5141 58.5907 65.3751 58.83 65.3214C59.0839 65.2671 59.349 65.3149 59.568 65.4545C59.787 65.594 59.9423 65.8141 60.0004 66.0671C60.0304 66.2016 60.032 66.3409 60.0051 66.4761C59.9782 66.6113 59.9233 66.7393 59.8439 66.852L58.9026 68.1731L60.2992 67.8659C60.3266 67.8609 60.3548 67.867 60.3778 67.8826C60.4008 67.8983 60.4167 67.9224 60.4221 67.9497C60.428 67.9763 60.423 68.0042 60.4084 68.0272C60.3937 68.0503 60.3705 68.0665 60.3439 68.0726L58.7127 68.4301H58.6959C58.6818 68.4342 58.6669 68.4351 58.6524 68.4327C58.6379 68.4302 58.6242 68.4246 58.6121 68.4161C58.5894 68.4012 58.5729 68.3785 58.5657 68.3523C58.5585 68.326 58.5611 68.2981 58.573 68.2737Z" fill="#F8F8F8"/>
<path d="M62.2711 64.7571L61.6846 65.7067C61.9196 65.7005 62.1494 65.7771 62.3337 65.9231C62.518 66.0692 62.6452 66.2753 62.6929 66.5055C62.723 66.6366 62.7263 66.7725 62.7028 66.9049C62.6793 67.0373 62.6294 67.1637 62.556 67.2764C62.4097 67.5053 62.1788 67.667 61.9136 67.7261C61.7832 67.7555 61.6482 67.7582 61.5167 67.7342C61.3852 67.7102 61.2599 67.66 61.1483 67.5865C61.1363 67.5793 61.1259 67.5698 61.1177 67.5586C61.1095 67.5473 61.1037 67.5345 61.1006 67.521C61.0974 67.5074 61.0971 67.4934 61.0995 67.4797C61.1019 67.4659 61.1071 67.4529 61.1147 67.4412C61.1222 67.4292 61.1319 67.4187 61.1434 67.4105C61.1549 67.4023 61.1679 67.3964 61.1817 67.3933C61.1955 67.3902 61.2098 67.3899 61.2237 67.3923C61.2376 67.3948 61.2509 67.4 61.2628 67.4077C61.444 67.5215 61.6627 67.5595 61.8717 67.5135C62.0807 67.4675 62.2633 67.3413 62.3801 67.1619C62.4382 67.0724 62.4777 66.9722 62.4964 66.8671C62.5151 66.762 62.5126 66.6543 62.489 66.5502C62.4416 66.3425 62.314 66.1619 62.134 66.0478C61.954 65.9337 61.7362 65.8955 61.5281 65.9413C61.5119 65.9442 61.4952 65.9435 61.4792 65.9391C61.4633 65.9348 61.4485 65.927 61.436 65.9162C61.4235 65.9088 61.4127 65.8989 61.4043 65.8872C61.3958 65.8755 61.3898 65.8622 61.3866 65.848C61.3835 65.8339 61.3833 65.8193 61.386 65.8051C61.3887 65.7909 61.3943 65.7774 61.4024 65.7654L61.9611 64.8521L60.8438 65.1006C60.83 65.1039 60.8158 65.1044 60.8018 65.1021C60.7878 65.0998 60.7745 65.0947 60.7625 65.0872C60.7505 65.0796 60.7402 65.0698 60.7321 65.0582C60.724 65.0466 60.7183 65.0335 60.7153 65.0196C60.712 65.0059 60.7115 64.9916 60.7138 64.9776C60.7161 64.9637 60.7212 64.9503 60.7288 64.9383C60.7363 64.9264 60.7462 64.916 60.7578 64.9079C60.7694 64.8998 60.7825 64.8941 60.7963 64.8912L62.1706 64.5867C62.1987 64.5809 62.228 64.5865 62.2521 64.6022C62.2761 64.6179 62.293 64.6424 62.2991 64.6705C62.3033 64.686 62.3033 64.7025 62.2991 64.718C62.2917 64.7323 62.2823 64.7455 62.2711 64.7571Z" fill="#F8F8F8"/>
<path d="M65.2153 66.3603L63.6232 66.7122C63.6122 66.7171 63.6003 66.7196 63.5883 66.7196C63.5763 66.7196 63.5644 66.7171 63.5534 66.7122C63.5409 66.7064 63.5298 66.698 63.5208 66.6876C63.5118 66.6771 63.5051 66.6649 63.5012 66.6518C63.4972 66.6386 63.4961 66.6247 63.4979 66.611C63.4997 66.5974 63.5043 66.5843 63.5115 66.5726L64.7433 64.0783C64.7492 64.0659 64.7576 64.0549 64.7679 64.0458C64.7783 64.0368 64.7904 64.03 64.8035 64.0258C64.8165 64.0216 64.8303 64.0201 64.844 64.0215C64.8577 64.0228 64.8709 64.027 64.883 64.0337C64.9011 64.0449 64.9164 64.0602 64.9276 64.0783C64.9276 64.0783 64.9276 64.0783 64.9276 64.0923V64.1063L65.3746 66.1229L65.5701 66.0782C65.5837 66.0748 65.5977 66.0742 65.6116 66.0764C65.6254 66.0785 65.6386 66.0833 65.6506 66.0906C65.6625 66.0979 65.6729 66.1074 65.6811 66.1187C65.6894 66.13 65.6953 66.1428 65.6986 66.1564C65.7014 66.17 65.7014 66.184 65.6987 66.1976C65.696 66.2112 65.6906 66.2242 65.6828 66.2356C65.6749 66.2471 65.6649 66.2569 65.6532 66.2644C65.6415 66.2719 65.6285 66.2769 65.6148 66.2793L65.4192 66.324L65.531 66.8295C65.5343 66.8558 65.5276 66.8825 65.5123 66.9041C65.4969 66.9258 65.474 66.9409 65.4481 66.9465C65.4222 66.9521 65.395 66.9478 65.3721 66.9344C65.3492 66.9211 65.3321 66.8996 65.3243 66.8742L65.2153 66.3603ZM65.1706 66.1592L64.7908 64.4387L63.7796 66.4748L65.1706 66.1592Z" fill="#F8F8F8"/>
<path d="M68.9693 65.8605C68.9573 65.8534 68.9469 65.8439 68.9387 65.8325C68.9306 65.8212 68.9248 65.8083 68.922 65.7946C68.9191 65.7809 68.9191 65.7668 68.9219 65.7532C68.9248 65.7395 68.9305 65.7266 68.9386 65.7152C68.946 65.7028 68.9559 65.692 68.9676 65.6835C68.9793 65.675 68.9927 65.669 69.0068 65.6659C69.0209 65.6628 69.0355 65.6625 69.0497 65.6653C69.064 65.668 69.0775 65.6736 69.0894 65.6817C69.2694 65.7934 69.4859 65.8305 69.6928 65.785C69.9007 65.7376 70.0815 65.6102 70.196 65.4303C70.3106 65.2504 70.3495 65.0326 70.3045 64.8242C70.2834 64.7206 70.2416 64.6222 70.1818 64.535C70.122 64.4478 70.0453 64.3734 69.9562 64.3164C69.8671 64.2594 69.7675 64.2208 69.6632 64.2029C69.559 64.1851 69.4522 64.1884 69.3492 64.2125C69.2451 64.2348 69.1465 64.2777 69.0592 64.3386C68.9719 64.3995 68.8977 64.4773 68.8408 64.5673C68.8337 64.5792 68.8242 64.5896 68.813 64.5978C68.8017 64.606 68.7889 64.6118 68.7754 64.615C68.7618 64.6181 68.7477 64.6184 68.734 64.616C68.7203 64.6136 68.7073 64.6084 68.6956 64.6008C68.6821 64.5947 68.6705 64.5851 68.6621 64.5729C68.6601 64.5618 68.6601 64.5504 68.6621 64.5393C68.6635 64.532 68.6635 64.5244 68.6621 64.517L68.542 63.302C68.5394 63.2871 68.5403 63.2717 68.5446 63.2571C68.549 63.2426 68.5567 63.2293 68.5671 63.2182C68.574 63.2075 68.583 63.1982 68.5936 63.191C68.6041 63.1838 68.616 63.1788 68.6286 63.1763L70 62.8747C70.0138 62.8717 70.028 62.8715 70.0418 62.8741C70.0556 62.8766 70.0688 62.8819 70.0806 62.8896C70.0924 62.8972 70.1026 62.9071 70.1106 62.9187C70.1186 62.9303 70.1242 62.9433 70.1271 62.9571C70.13 62.9708 70.1302 62.985 70.1277 62.9989C70.1251 63.0127 70.1199 63.0259 70.1122 63.0377C70.1046 63.0495 70.0947 63.0597 70.0831 63.0676C70.0715 63.0756 70.0585 63.0812 70.0447 63.0842L68.7654 63.3635L68.852 64.2628C69.0341 64.0946 69.2713 63.9986 69.5191 63.9926C69.7669 63.9866 70.0084 64.0711 70.1985 64.2303C70.3885 64.3895 70.514 64.6125 70.5515 64.8575C70.589 65.1026 70.5359 65.3529 70.4022 65.5616C70.2533 65.7873 70.0233 65.9473 69.7598 66.0085C69.6249 66.0384 69.4853 66.0407 69.3494 66.0152C69.2136 65.9898 69.0843 65.9371 68.9693 65.8605Z" fill="#F8F8F8"/>
<path d="M71.3265 63.2321C71.3835 63.0219 71.4956 62.8308 71.6513 62.6786C71.807 62.5263 72.0006 62.4185 72.212 62.3663C72.239 62.3594 72.2676 62.3635 72.2917 62.3776C72.3157 62.3918 72.3332 62.4148 72.3405 62.4417C72.3459 62.4693 72.3409 62.498 72.3264 62.5223C72.312 62.5465 72.2892 62.5645 72.2622 62.573C72.0858 62.6164 71.9242 62.7064 71.7945 62.8337C71.6648 62.961 71.5716 63.1208 71.5248 63.2964C71.4632 63.5018 71.4359 63.716 71.4438 63.9304C71.5559 63.7297 71.7345 63.5743 71.9488 63.491C72.163 63.4077 72.3996 63.4017 72.6179 63.4739C72.8361 63.5462 73.0223 63.6922 73.1446 63.8869C73.2668 64.0816 73.3173 64.3128 73.2875 64.5408C73.2577 64.7687 73.1494 64.9791 72.9812 65.1359C72.8131 65.2926 72.5955 65.3858 72.366 65.3995C72.1365 65.4133 71.9095 65.3466 71.7238 65.211C71.5382 65.0754 71.4056 64.8793 71.3489 64.6566C71.3275 64.5936 71.3107 64.5292 71.2986 64.4639C71.203 64.0576 71.2127 63.6336 71.3265 63.2321ZM71.55 64.5923C71.5547 64.6111 71.5622 64.6289 71.5723 64.6454C71.5749 64.6555 71.5749 64.666 71.5723 64.6761C71.6403 64.8704 71.7812 65.0307 71.9652 65.123C72.1492 65.2153 72.3619 65.2325 72.5584 65.1709C72.7548 65.1093 72.9196 64.9738 73.0179 64.7929C73.1163 64.612 73.1404 64.4001 73.0853 64.2017C73.0302 64.0034 72.9002 63.8342 72.7227 63.73C72.5451 63.6257 72.334 63.5946 72.134 63.6431C71.9339 63.6917 71.7606 63.8161 71.6505 63.9901C71.5405 64.1641 71.5025 64.374 71.5444 64.5756L71.55 64.5923Z" fill="#F8F8F8"/>
<path d="M74.5388 64.7822L75.0527 61.964L73.6366 62.2852C73.6108 62.2887 73.5847 62.2825 73.5634 62.2677C73.5421 62.2529 73.5271 62.2306 73.5215 62.2052C73.5159 62.1799 73.52 62.1534 73.533 62.1309C73.5461 62.1085 73.5671 62.0917 73.5919 62.0841L75.1477 61.7405C75.1678 61.7349 75.189 61.7349 75.2091 61.7405C75.2378 61.7481 75.2627 61.766 75.279 61.7908C75.279 61.8048 75.2929 61.8104 75.2957 61.8243C75.3012 61.8435 75.3012 61.8638 75.2957 61.883L74.7566 64.838C74.7527 64.8579 74.7432 64.8762 74.7294 64.891C74.7156 64.9058 74.698 64.9165 74.6784 64.9218C74.6638 64.926 74.6483 64.926 74.6337 64.9218C74.618 64.9195 74.6029 64.914 74.5895 64.9056C74.576 64.8972 74.5644 64.886 74.5555 64.8729C74.5466 64.8598 74.5405 64.8449 74.5376 64.8293C74.5347 64.8137 74.5351 64.7976 74.5388 64.7822Z" fill="#F8F8F8"/>
<path d="M76.8264 61.3413C76.9555 61.3121 77.0906 61.3247 77.2121 61.3772C77.3336 61.4296 77.4353 61.5192 77.5027 61.6331C77.5701 61.7471 77.5996 61.8794 77.587 62.0111C77.5744 62.1429 77.5203 62.2672 77.4326 62.3663C77.6546 62.4054 77.8563 62.5204 78.0031 62.6915C78.15 62.8626 78.233 63.0793 78.238 63.3047C78.243 63.5302 78.1696 63.7504 78.0305 63.9278C77.8914 64.1052 77.695 64.229 77.4749 64.2779C77.2547 64.3268 77.0245 64.2979 76.8232 64.1961C76.622 64.0943 76.4624 63.9258 76.3714 63.7195C76.2804 63.5132 76.2638 63.2817 76.3244 63.0645C76.385 62.8473 76.5189 62.6578 76.7035 62.5283C76.615 62.4866 76.5373 62.4251 76.4763 62.3486C76.4152 62.2721 76.3726 62.1826 76.3516 62.087C76.3335 62.0068 76.3314 61.9239 76.3455 61.8429C76.3596 61.762 76.3896 61.6846 76.4338 61.6153C76.4779 61.546 76.5353 61.4861 76.6027 61.439C76.6701 61.392 76.7462 61.3588 76.8264 61.3413ZM77.4326 64.0813C77.5815 64.0484 77.7173 63.9721 77.8228 63.8621C77.9283 63.752 77.9989 63.6132 78.0255 63.463C78.0521 63.3129 78.0336 63.1583 77.9723 63.0186C77.911 62.879 77.8097 62.7607 77.6812 62.6787C77.5527 62.5967 77.4027 62.5546 77.2502 62.5578C77.0978 62.561 76.9497 62.6093 76.8247 62.6966C76.6998 62.784 76.6035 62.9064 76.5481 63.0485C76.4927 63.1905 76.4807 63.3458 76.5136 63.4947C76.5348 63.5939 76.5754 63.6879 76.6332 63.7713C76.691 63.8547 76.7648 63.9257 76.8503 63.9803C76.9359 64.0348 77.0314 64.0719 77.1313 64.0892C77.2313 64.1066 77.3337 64.1038 77.4326 64.0813ZM77.0527 62.3663C77.1617 62.341 77.2563 62.2737 77.3159 62.179C77.3755 62.0844 77.3954 61.97 77.3711 61.8608C77.347 61.7522 77.2808 61.6577 77.1871 61.598C77.0933 61.5383 76.9797 61.5183 76.8711 61.5424C76.7626 61.5664 76.6681 61.6326 76.6084 61.7264C76.5487 61.8202 76.5286 61.9338 76.5527 62.0423C76.5768 62.1511 76.6428 62.2461 76.7363 62.3067C76.8299 62.3674 76.9435 62.3888 77.0527 62.3663Z" fill="#F8F8F8"/>
<path d="M82.0525 60.1848C82.2909 60.1309 82.5408 60.167 82.7542 60.2861C82.9676 60.4051 83.1296 60.5988 83.2089 60.83C83.2089 60.83 83.2089 60.83 83.2089 60.8467C83.2313 60.9277 83.2536 61.0087 83.2732 61.0981C83.3692 61.505 83.3615 61.9295 83.2508 62.3326C83.1921 62.5424 83.079 62.7329 82.923 62.8849C82.7671 63.0369 82.5738 63.1451 82.3626 63.1985C82.3496 63.2027 82.3358 63.2041 82.3222 63.2027C82.3086 63.2012 82.2955 63.197 82.2836 63.1901C82.2718 63.1833 82.2615 63.174 82.2534 63.163C82.2454 63.1519 82.2398 63.1393 82.2369 63.1259C82.2331 63.1123 82.232 63.0981 82.2338 63.0841C82.2355 63.0701 82.2401 63.0566 82.2471 63.0444C82.2541 63.0322 82.2635 63.0215 82.2747 63.013C82.2859 63.0044 82.2987 62.9982 82.3123 62.9946C82.4889 62.9508 82.6506 62.8607 82.7807 62.7335C82.9109 62.6063 83.0047 62.4467 83.0525 62.2712C83.114 62.0657 83.1404 61.8514 83.1307 61.6372C83.0502 61.7824 82.9347 61.9051 82.7946 61.9942C82.6545 62.0833 82.4943 62.1359 82.3286 62.1472C82.163 62.1585 81.9972 62.1282 81.8463 62.0589C81.6954 61.9897 81.5642 61.8837 81.4647 61.7508C81.3653 61.6179 81.3007 61.4621 81.2769 61.2978C81.2531 61.1335 81.2708 60.9659 81.3284 60.8102C81.386 60.6545 81.4817 60.5156 81.6067 60.4064C81.7317 60.2972 81.8821 60.221 82.0442 60.1848H82.0525ZM83.0357 60.9808C83.0024 60.8293 82.925 60.6911 82.8131 60.5836C82.7013 60.4761 82.5601 60.4041 82.4074 60.3768C82.2547 60.3495 82.0974 60.368 81.9552 60.4301C81.813 60.4921 81.6924 60.5949 81.6086 60.7255C81.5249 60.856 81.4816 61.0085 81.4844 61.1636C81.4872 61.3186 81.5359 61.4694 81.6244 61.5969C81.7128 61.7243 81.837 61.8227 81.9813 61.8796C82.1257 61.9364 82.2836 61.9493 82.4352 61.9165C82.5362 61.8946 82.6318 61.8531 82.7167 61.7942C82.8015 61.7353 82.8739 61.6602 82.9297 61.5733C82.9855 61.4864 83.0236 61.3893 83.0418 61.2876C83.06 61.1859 83.0579 61.0817 83.0357 60.9808Z" fill="#F8F8F8"/>
<path d="M84.0972 61.2741C84.0092 60.9135 84.0276 60.5351 84.1503 60.1848C84.1919 60.0357 84.2732 59.9007 84.3856 59.7942C84.498 59.6877 84.6372 59.6137 84.7883 59.5801C84.9395 59.5466 85.0969 59.5547 85.2438 59.6037C85.3907 59.6526 85.5215 59.7405 85.6223 59.858C85.8812 60.1254 86.0593 60.4604 86.1363 60.8244C86.2205 61.1859 86.1992 61.564 86.0748 61.9137C86.0377 62.0659 85.9587 62.2047 85.8466 62.3142C85.7346 62.4238 85.5942 62.4998 85.4412 62.5335C85.2882 62.5672 85.1288 62.5574 84.9811 62.5051C84.8334 62.4528 84.7033 62.3602 84.6056 62.2377C84.3449 61.9736 84.168 61.6384 84.0972 61.2741ZM84.3039 61.2294C84.3688 61.5523 84.5249 61.8499 84.7536 62.0869C84.8286 62.1792 84.9277 62.2487 85.04 62.2878C85.1522 62.3269 85.2731 62.3339 85.3891 62.3081C85.5052 62.2823 85.6117 62.2246 85.6968 62.1417C85.7819 62.0587 85.8422 61.9536 85.8709 61.8383C85.9754 61.5262 85.9928 61.1915 85.9215 60.8702C85.8501 60.5489 85.6926 60.253 85.4659 60.0144C85.391 59.9222 85.2918 59.8526 85.1796 59.8135C85.0673 59.7744 84.9464 59.7674 84.8304 59.7932C84.7144 59.819 84.6078 59.8767 84.5227 59.9597C84.4376 60.0426 84.3773 60.1477 84.3486 60.263C84.2407 60.5741 84.2251 60.9097 84.3039 61.2294Z" fill="#F8F8F8"/>
<path d="M87.2339 59.3526L86.8736 59.6877C86.8606 59.7012 86.8442 59.7108 86.8261 59.7156C86.8081 59.7194 86.7895 59.7186 86.7719 59.7132C86.7543 59.7078 86.7384 59.6981 86.7256 59.6849C86.7157 59.6753 86.7078 59.6638 86.7025 59.6511C86.6971 59.6384 86.6943 59.6247 86.6943 59.6109C86.6943 59.5971 86.6971 59.5835 86.7025 59.5707C86.7078 59.558 86.7157 59.5465 86.7256 59.5369L87.2172 59.0677C87.2365 59.0486 87.2626 59.0378 87.2898 59.0378C87.317 59.0378 87.3431 59.0486 87.3624 59.0677C87.3805 59.0877 87.3914 59.1133 87.3931 59.1403L87.9909 61.8412C87.9967 61.8678 87.9918 61.8957 87.9771 61.9187C87.9624 61.9418 87.9393 61.9581 87.9127 61.9641C87.8861 61.9692 87.8585 61.9639 87.8357 61.9494C87.8128 61.9348 87.7964 61.9121 87.7898 61.8859L87.2339 59.3526Z" fill="#F8F8F8"/>
<path d="M88.703 61.6093L89.8007 60.0648C89.8645 59.9768 89.9088 59.8763 89.931 59.7699C89.9531 59.6635 89.9525 59.5537 89.9292 59.4475C89.8875 59.2604 89.7768 59.0958 89.6192 58.9867C89.5318 58.9239 89.4321 58.8805 89.3266 58.8593C89.2211 58.8381 89.1123 58.8396 89.0075 58.8638C88.8186 58.9032 88.6512 59.0118 88.5382 59.1682L88.4237 59.3302C88.4167 59.3424 88.4072 59.3529 88.3957 59.361C88.3843 59.3692 88.3713 59.3747 88.3575 59.3774C88.3437 59.38 88.3295 59.3797 88.3159 59.3764C88.3022 59.3731 88.2895 59.3668 88.2785 59.3581C88.267 59.3509 88.2571 59.3413 88.2495 59.33C88.2419 59.3187 88.2368 59.3059 88.2344 59.2925C88.232 59.2791 88.2325 59.2653 88.2358 59.2521C88.239 59.2389 88.245 59.2265 88.2533 59.2157L88.3651 59.0481C88.5092 58.8498 88.7207 58.7108 88.96 58.6571C89.2139 58.6028 89.479 58.6506 89.698 58.7902C89.917 58.9297 90.0723 59.1498 90.1304 59.4028C90.1604 59.5373 90.162 59.6766 90.1351 59.8118C90.1082 59.9469 90.0533 60.075 89.9739 60.1877L89.0326 61.5088L90.4292 61.2016C90.4566 61.1966 90.4848 61.2027 90.5078 61.2183C90.5308 61.234 90.5467 61.2581 90.5521 61.2854C90.558 61.312 90.553 61.3399 90.5384 61.3629C90.5237 61.3859 90.5005 61.4022 90.4739 61.4082L88.8371 61.7713H88.8203C88.8073 61.7776 88.7929 61.7808 88.7785 61.7808C88.764 61.7808 88.7496 61.7776 88.7365 61.7713C88.7231 61.7634 88.7115 61.7528 88.7025 61.7401C88.6934 61.7274 88.6871 61.713 88.6839 61.6978C88.6808 61.6825 88.6808 61.6668 88.6841 61.6515C88.6874 61.6363 88.6939 61.6219 88.703 61.6093Z" fill="#F8F8F8"/>
<path d="M94.9094 57.5371L94.3228 58.4867C94.5202 58.484 94.7142 58.5383 94.8815 58.6431C95.0517 58.7525 95.1857 58.9099 95.2666 59.0954C95.3476 59.2809 95.3718 59.4862 95.3363 59.6854C95.3007 59.8846 95.207 60.0688 95.0669 60.2149C94.9268 60.3609 94.7466 60.4623 94.5491 60.5061C94.4187 60.5354 94.2837 60.5382 94.1522 60.5142C94.0207 60.4902 93.8954 60.4399 93.7837 60.3664C93.7718 60.3593 93.7614 60.3498 93.7532 60.3386C93.745 60.3273 93.7392 60.3145 93.736 60.3009C93.7329 60.2874 93.7325 60.2733 93.735 60.2596C93.7374 60.2459 93.7426 60.2328 93.7502 60.2212C93.7576 60.2091 93.7674 60.1987 93.7789 60.1905C93.7904 60.1823 93.8034 60.1764 93.8172 60.1733C93.831 60.1702 93.8452 60.1698 93.8592 60.1723C93.8731 60.1748 93.8864 60.18 93.8983 60.1877C94.0101 60.2596 94.138 60.3029 94.2706 60.3135C94.4032 60.3241 94.5363 60.3018 94.6582 60.2486C94.7801 60.1953 94.8869 60.1128 94.9692 60.0083C95.0515 59.9038 95.1067 59.7806 95.1299 59.6497C95.1531 59.5187 95.1436 59.384 95.1022 59.2576C95.0608 59.1312 94.9888 59.017 94.8926 58.9252C94.7965 58.8333 94.6791 58.7666 94.5509 58.7311C94.4227 58.6955 94.2878 58.6921 94.158 58.7213C94.1418 58.7244 94.125 58.7237 94.109 58.7194C94.0931 58.715 94.0783 58.7071 94.0658 58.6962C94.0419 58.6802 94.0251 58.6556 94.0188 58.6275C94.0126 58.5994 94.0174 58.57 94.0323 58.5454L94.591 57.6292L93.4737 57.8806C93.4456 57.8864 93.4163 57.8809 93.3922 57.8652C93.3681 57.8495 93.3512 57.8249 93.3452 57.7968C93.3419 57.783 93.3414 57.7688 93.3437 57.7548C93.346 57.7408 93.3511 57.7275 93.3586 57.7155C93.3662 57.7035 93.3761 57.6932 93.3877 57.6851C93.3993 57.677 93.4124 57.6713 93.4262 57.6683L94.8005 57.3667C94.8142 57.3634 94.8285 57.3629 94.8425 57.3652C94.8564 57.3675 94.8698 57.3726 94.8818 57.3801C94.8937 57.3877 94.9041 57.3975 94.9122 57.4091C94.9203 57.4207 94.926 57.4338 94.9289 57.4477C94.9332 57.4632 94.9332 57.4796 94.9289 57.4952C94.9245 57.51 94.9179 57.5241 94.9094 57.5371Z" fill="#F8F8F8"/>
<path d="M97.8535 59.1403L96.2614 59.4922H96.2474C96.2258 59.5004 96.202 59.5004 96.1804 59.4922C96.168 59.4863 96.1569 59.478 96.1479 59.4676C96.1388 59.4573 96.132 59.4452 96.1278 59.4321C96.1236 59.419 96.1222 59.4052 96.1235 59.3915C96.1249 59.3778 96.129 59.3646 96.1357 59.3526L97.3703 56.8584C97.3765 56.8462 97.385 56.8354 97.3955 56.8267C97.4059 56.8179 97.4181 56.8114 97.4311 56.8075C97.4442 56.8035 97.4579 56.8023 97.4715 56.8039C97.485 56.8054 97.4981 56.8097 97.51 56.8165C97.528 56.8266 97.5434 56.841 97.5547 56.8584C97.5541 56.864 97.5541 56.8696 97.5547 56.8751L98.0016 58.8917L98.1971 58.847C98.2105 58.8441 98.2243 58.8438 98.2378 58.8463C98.2513 58.8487 98.2642 58.8537 98.2757 58.8611C98.2873 58.8685 98.2972 58.8781 98.3051 58.8893C98.3129 58.9006 98.3184 58.9133 98.3214 58.9266C98.3243 58.94 98.3246 58.9539 98.3222 58.9674C98.3198 58.9809 98.3147 58.9937 98.3073 59.0053C98.2999 59.0168 98.2903 59.0268 98.2791 59.0346C98.2678 59.0425 98.2552 59.048 98.2418 59.0509L98.0463 59.0928L98.1552 59.5984C98.158 59.6118 98.1582 59.6256 98.1557 59.6391C98.1531 59.6525 98.1479 59.6653 98.1404 59.6768C98.1329 59.6882 98.1231 59.698 98.1118 59.7057C98.1004 59.7133 98.0876 59.7186 98.0742 59.7213C98.061 59.7246 98.0472 59.7251 98.0338 59.7229C98.0203 59.7207 98.0075 59.7158 97.996 59.7085C97.9845 59.7012 97.9746 59.6916 97.9669 59.6804C97.9592 59.6691 97.9539 59.6564 97.9513 59.6431L97.8535 59.1403ZM97.8088 58.9364L97.4262 57.2159L96.4178 59.2465L97.8088 58.9364Z" fill="#F8F8F8"/>
<path d="M99.088 59.1961C99.0762 59.1885 99.066 59.1786 99.0581 59.167C99.0501 59.1554 99.0445 59.1423 99.0417 59.1286C99.0388 59.1148 99.0387 59.1006 99.0414 59.0868C99.0441 59.073 99.0495 59.0598 99.0573 59.0481C99.0733 59.0242 99.0979 59.0073 99.126 59.0011C99.1541 58.9948 99.1835 58.9997 99.2081 59.0146C99.3872 59.1284 99.6042 59.1666 99.8114 59.1207C100.019 59.0733 100.2 58.9459 100.315 58.766C100.429 58.5861 100.468 58.3683 100.423 58.1599C100.402 58.0563 100.36 57.9579 100.301 57.8707C100.241 57.7835 100.164 57.7091 100.075 57.6521C99.9858 57.595 99.8862 57.5565 99.7819 57.5386C99.6776 57.5208 99.5709 57.5241 99.4679 57.5482C99.3642 57.5706 99.266 57.6135 99.1792 57.6744C99.0923 57.7353 99.0186 57.813 98.9623 57.903C98.9549 57.915 98.9452 57.9254 98.9337 57.9337C98.9222 57.9419 98.9091 57.9477 98.8954 57.9509C98.8816 57.954 98.8673 57.9543 98.8534 57.9519C98.8394 57.9494 98.8262 57.9442 98.8143 57.9365C98.8014 57.9295 98.79 57.92 98.7808 57.9085C98.7788 57.8975 98.7788 57.8861 98.7808 57.875C98.7822 57.8677 98.7822 57.8601 98.7808 57.8527L98.6606 56.6377C98.658 56.6223 98.6589 56.6065 98.6633 56.5915C98.6676 56.5765 98.6753 56.5627 98.6858 56.5511C98.7008 56.5311 98.7227 56.5172 98.7472 56.512L100.119 56.2104C100.132 56.2074 100.147 56.2072 100.16 56.2098C100.174 56.2123 100.188 56.2176 100.199 56.2252C100.211 56.2329 100.221 56.2428 100.229 56.2544C100.237 56.266 100.243 56.279 100.246 56.2928C100.249 56.3065 100.249 56.3207 100.246 56.3345C100.244 56.3484 100.239 56.3616 100.231 56.3734C100.223 56.3852 100.213 56.3953 100.202 56.4033C100.19 56.4113 100.177 56.4169 100.163 56.4198L98.8841 56.6992L98.9707 57.5957C99.1038 57.4745 99.2667 57.3906 99.4427 57.3527C99.5728 57.3222 99.7076 57.3184 99.8391 57.3414C99.9707 57.3645 100.096 57.4139 100.208 57.4868C100.322 57.5576 100.421 57.6512 100.497 57.7617C100.573 57.8722 100.626 57.9973 100.652 58.1292C100.682 58.2595 100.686 58.3946 100.664 58.5264C100.641 58.6583 100.593 58.7844 100.521 58.8973C100.372 59.123 100.142 59.283 99.8785 59.3442C99.7435 59.3741 99.604 59.3764 99.4681 59.3509C99.3323 59.3255 99.203 59.2728 99.088 59.1961Z" fill="#F8F8F8"/>
<path d="M101.446 56.5679C101.503 56.3575 101.616 56.1663 101.772 56.0141C101.928 55.8618 102.122 55.7541 102.334 55.7021C102.36 55.6952 102.388 55.699 102.412 55.7126C102.435 55.7262 102.452 55.7485 102.459 55.7747C102.466 55.8028 102.461 55.8321 102.447 55.857C102.432 55.8818 102.409 55.9003 102.381 55.9088C102.205 55.9519 102.044 56.0416 101.914 56.1683C101.784 56.2951 101.691 56.4543 101.644 56.6294C101.582 56.8358 101.555 57.0509 101.563 57.2662C101.63 57.1416 101.723 57.033 101.836 56.9477C101.948 56.8623 102.078 56.8024 102.216 56.7718C102.407 56.7298 102.606 56.7448 102.788 56.8149C102.97 56.885 103.127 57.0072 103.24 57.1661C103.354 57.325 103.418 57.5137 103.424 57.7087C103.431 57.9037 103.38 58.0963 103.278 58.2627C103.176 58.429 103.027 58.5616 102.851 58.6441C102.674 58.7265 102.477 58.7551 102.284 58.7263C102.091 58.6975 101.91 58.6125 101.765 58.482C101.62 58.3515 101.517 58.1812 101.468 57.9924C101.447 57.9294 101.43 57.865 101.418 57.7997C101.324 57.3932 101.333 56.9697 101.446 56.5679ZM101.672 57.9281C101.675 57.9469 101.682 57.9649 101.691 57.9812C101.694 57.9913 101.694 58.0018 101.691 58.0119C101.759 58.2062 101.9 58.3665 102.084 58.4588C102.268 58.5511 102.481 58.5683 102.677 58.5067C102.874 58.4451 103.039 58.3096 103.137 58.1287C103.235 57.9478 103.259 57.7359 103.204 57.5375C103.149 57.3392 103.019 57.17 102.842 57.0658C102.664 56.9615 102.453 56.9304 102.253 56.9789C102.053 57.0275 101.88 57.1519 101.77 57.3259C101.66 57.4999 101.621 57.7098 101.663 57.9114L101.672 57.9281Z" fill="#F8F8F8"/>
<path d="M84.8322 67.9432L59.1885 73.6187L59.4673 74.8786L85.1111 69.2031L84.8322 67.9432Z" fill="#A6A6A6"/>
<path d="M77.962 72.3978L59.8071 76.4158L60.086 77.6757L78.2409 73.6577L77.962 72.3978Z" fill="#A6A6A6"/>
<path d="M89.4719 44.8053L76.6841 47.6355L76.9629 48.8954L89.7507 46.0652L89.4719 44.8053Z" fill="#A6A6A6"/>
<path d="M111.255 70.656H52.7881V87.7691H111.255V70.656Z" fill="#FFC727"/>
<path opacity="0.3" d="M111.255 70.656H52.7881V87.7691H111.255V70.656Z" fill="black"/>
<path d="M109.635 70.2287L109.716 101.153C109.718 101.983 109.39 102.78 108.805 103.368C108.22 103.957 107.426 104.289 106.596 104.293L57.5451 104.419C57.1341 104.42 56.727 104.34 56.347 104.183C55.967 104.027 55.6216 103.797 55.3305 103.507C55.0394 103.217 54.8084 102.872 54.6506 102.493C54.4929 102.114 54.4115 101.707 54.4111 101.296L54.3301 70.3851C54.329 70.0027 54.4033 69.6238 54.5487 69.2701C54.6941 68.9164 54.9078 68.5948 55.1776 68.3237C55.4474 68.0527 55.768 67.8374 56.121 67.6903C56.474 67.5432 56.8526 67.4671 57.235 67.4664L106.714 67.3128C107.097 67.3117 107.477 67.3863 107.832 67.5324C108.186 67.6784 108.508 67.8931 108.78 68.164C109.051 68.4349 109.267 68.7568 109.413 69.1111C109.56 69.4654 109.636 69.8452 109.635 70.2287Z" fill="#DBDBDB"/>
<path d="M101.733 96.8159C101.735 97.3854 101.568 97.9426 101.252 98.4171C100.937 98.8916 100.489 99.262 99.9632 99.4814C99.4376 99.7009 98.8588 99.7596 98.2998 99.6502C97.7409 99.5407 97.2269 99.2679 96.823 98.8664C96.4191 98.4648 96.1434 97.9525 96.0306 97.3942C95.9179 96.836 95.9732 96.2568 96.1896 95.73C96.4061 95.2032 96.7739 94.7524 97.2465 94.4346C97.7192 94.1168 98.2755 93.9463 98.845 93.9446C99.2232 93.9435 99.5979 94.0169 99.9477 94.1606C100.298 94.3043 100.616 94.5155 100.884 94.7821C101.152 95.0487 101.365 95.3655 101.511 95.7145C101.657 96.0634 101.732 96.4377 101.733 96.8159Z" fill="#A6A6A6"/>
<path d="M105.278 96.8046C105.279 97.3742 105.112 97.9314 104.797 98.4059C104.482 98.8803 104.033 99.2507 103.508 99.4702C102.982 99.6897 102.403 99.7484 101.844 99.6389C101.285 99.5294 100.771 99.2567 100.367 98.8551C99.9636 98.4536 99.6878 97.9413 99.575 97.383C99.4623 96.8247 99.5177 96.2456 99.7341 95.7187C99.9505 95.1919 100.318 94.7411 100.791 94.4233C101.264 94.1055 101.82 93.935 102.389 93.9334C103.153 93.9319 103.886 94.2334 104.427 94.7717C104.969 95.31 105.275 96.0411 105.278 96.8046Z" fill="#FFC727"/>
<path d="M68.193 72.7332L60.157 72.7543C59.5091 72.7559 58.9853 73.2825 58.987 73.9304L58.9996 78.7596C59.0013 79.4075 59.5279 79.9313 60.1758 79.9296L68.2118 79.9086C68.8597 79.9069 69.3835 79.3803 69.3818 78.7324L69.3692 73.9032C69.3675 73.2553 68.8409 72.7315 68.193 72.7332Z" fill="#FFC727"/>
<path d="M103.264 76.5773L98.5658 76.5912C98.3076 76.5934 98.0516 76.5445 97.8124 76.4472C97.5733 76.35 97.3557 76.2063 97.1724 76.0245C96.9891 75.8428 96.8436 75.6265 96.7442 75.3882C96.6449 75.1499 96.5938 74.8943 96.5938 74.6361C96.5916 74.3779 96.6406 74.1219 96.7378 73.8827C96.8351 73.6436 96.9788 73.4261 97.1605 73.2427C97.3423 73.0594 97.5586 72.9139 97.7969 72.8146C98.0352 72.7153 98.2909 72.6642 98.5491 72.6642L103.247 72.6502C103.505 72.648 103.761 72.6969 104.001 72.7942C104.24 72.8915 104.457 73.0351 104.641 73.2169C104.824 73.3987 104.969 73.615 105.069 73.8533C105.168 74.0916 105.219 74.3472 105.219 74.6054C105.221 74.8635 105.172 75.1196 105.075 75.3587C104.978 75.5979 104.834 75.8154 104.652 75.9987C104.471 76.182 104.254 76.3275 104.016 76.4268C103.778 76.5261 103.522 76.5773 103.264 76.5773Z" fill="#FFEDB9"/>
<path d="M58.6374 86.4731L58.2128 86.7245C58.1977 86.7342 58.1804 86.7399 58.1626 86.7413C58.1441 86.7419 58.1258 86.7376 58.1096 86.7287C58.0934 86.7199 58.0799 86.7069 58.0704 86.691C58.063 86.6792 58.0582 86.6661 58.0562 86.6523C58.0542 86.6386 58.0551 86.6246 58.0588 86.6112C58.0624 86.5978 58.0688 86.5854 58.0776 86.5746C58.0863 86.5638 58.0972 86.5549 58.1095 86.5486L58.6905 86.1938C58.7144 86.1814 58.7421 86.1786 58.768 86.1858C58.794 86.1931 58.8162 86.2099 58.8301 86.2329C58.8445 86.2563 58.8494 86.2842 58.8441 86.3111V89.0763C58.8441 89.0898 58.8414 89.1033 58.8362 89.1158C58.831 89.1284 58.8234 89.1398 58.8138 89.1493C58.8042 89.1589 58.7928 89.1666 58.7803 89.1717C58.7678 89.1769 58.7543 89.1796 58.7407 89.1796C58.7136 89.1789 58.6877 89.1678 58.6684 89.1486C58.6492 89.1293 58.6381 89.1035 58.6374 89.0763V86.4731Z" fill="#F8F8F8"/>
<path d="M59.5897 88.9925L60.9863 87.7189C61.1382 87.5803 61.2288 87.3872 61.2382 87.1818C61.2476 86.9765 61.1751 86.7758 61.0366 86.624C60.8981 86.4721 60.7049 86.3815 60.4995 86.3721C60.2942 86.3627 60.0935 86.4352 59.9417 86.5737L59.7964 86.7078C59.787 86.718 59.7756 86.7262 59.7628 86.7318C59.7501 86.7374 59.7363 86.7403 59.7224 86.7403C59.7085 86.7403 59.6947 86.7374 59.682 86.7318C59.6692 86.7262 59.6578 86.718 59.6484 86.7078C59.6382 86.6986 59.6301 86.6874 59.6245 86.6749C59.6189 86.6624 59.6161 86.6489 59.6161 86.6352C59.6161 86.6215 59.6189 86.6079 59.6245 86.5954C59.6301 86.5829 59.6382 86.5717 59.6484 86.5625L59.7936 86.4257C59.9761 86.2613 60.2128 86.1698 60.4584 86.1687C60.5949 86.1678 60.73 86.196 60.8547 86.2514C60.9795 86.3068 61.091 86.3881 61.1818 86.4899C61.3502 86.6679 61.4433 86.9041 61.4416 87.1491C61.4423 87.2865 61.4143 87.4225 61.3595 87.5485C61.3047 87.6745 61.2242 87.7877 61.1232 87.8809L59.9193 88.9702H61.3662C61.3801 88.9705 61.3939 88.9736 61.4066 88.9793C61.4193 88.985 61.4308 88.9931 61.4404 89.0032C61.45 89.0133 61.4575 89.0252 61.4625 89.0383C61.4675 89.0513 61.4699 89.0651 61.4695 89.0791C61.4688 89.1063 61.4577 89.1322 61.4385 89.1514C61.4193 89.1706 61.3934 89.1817 61.3662 89.1824H59.6735C59.659 89.1836 59.6444 89.1815 59.6308 89.1762C59.6173 89.1709 59.6051 89.1625 59.5953 89.1517C59.5844 89.1417 59.5755 89.1296 59.5693 89.1161C59.5631 89.1027 59.5597 89.0881 59.5592 89.0733C59.5586 89.0585 59.5611 89.0437 59.5663 89.0298C59.5716 89.0159 59.5795 89.0033 59.5897 88.9925Z" fill="#F8F8F8"/>
<path d="M63.9441 86.3446L63.1676 87.1434C63.3985 87.1883 63.6064 87.3126 63.7554 87.4947C63.9043 87.6768 63.9849 87.9053 63.9832 88.1405C63.9839 88.2749 63.9579 88.4081 63.9066 88.5323C63.8553 88.6565 63.7797 88.7692 63.6843 88.8639C63.4927 89.0563 63.2325 89.1648 62.9609 89.1656C62.8274 89.1659 62.6951 89.1396 62.5719 89.0883C62.4486 89.037 62.3369 88.9617 62.243 88.8667C62.2323 88.8573 62.2238 88.8457 62.2179 88.8327C62.212 88.8197 62.209 88.8056 62.209 88.7913C62.209 88.777 62.212 88.7629 62.2179 88.7499C62.2238 88.7369 62.2323 88.7253 62.243 88.7159C62.2529 88.7059 62.2646 88.698 62.2776 88.6926C62.2905 88.6872 62.3044 88.6844 62.3184 88.6844C62.3325 88.6844 62.3464 88.6872 62.3593 88.6926C62.3722 88.698 62.384 88.7059 62.3939 88.7159C62.5432 88.8624 62.7433 88.9454 62.9525 88.9477C63.1615 88.9419 63.3607 88.8582 63.5111 88.7131C63.5862 88.638 63.6456 88.5486 63.6859 88.4503C63.7262 88.3521 63.7465 88.2467 63.7458 88.1405C63.7443 87.9274 63.6586 87.7235 63.5074 87.5733C63.3561 87.4232 63.1517 87.3389 62.9385 87.3389C62.9218 87.3379 62.9054 87.3334 62.8905 87.3257C62.8756 87.318 62.8625 87.3073 62.8519 87.2942C62.8416 87.2843 62.8333 87.2724 62.8276 87.2592C62.822 87.246 62.8191 87.2318 62.8191 87.2174C62.8191 87.203 62.822 87.1888 62.8276 87.1756C62.8333 87.1624 62.8416 87.1505 62.8519 87.1406L63.5977 86.3669H62.4441C62.4186 86.3628 62.3954 86.3497 62.3786 86.33C62.3618 86.3103 62.3526 86.2853 62.3526 86.2594C62.3526 86.2335 62.3618 86.2085 62.3786 86.1888C62.3954 86.1691 62.4186 86.156 62.4441 86.1519H63.8407C63.8689 86.1519 63.8959 86.163 63.9158 86.1829C63.9357 86.2028 63.9469 86.2298 63.9469 86.258C63.9516 86.2735 63.9516 86.29 63.9469 86.3055C63.9482 86.3186 63.9473 86.3318 63.9441 86.3446Z" fill="#F8F8F8"/>
<path d="M66.4776 88.5399H64.8464C64.8229 88.5412 64.7998 88.5332 64.7822 88.5175C64.771 88.5094 64.7618 88.499 64.755 88.487C64.7482 88.475 64.744 88.4618 64.7426 88.448C64.7413 88.4343 64.7429 88.4205 64.7473 88.4074C64.7517 88.3944 64.7588 88.3824 64.7682 88.3723L66.5056 86.1993C66.514 86.1885 66.5245 86.1796 66.5364 86.173C66.5484 86.1665 66.5616 86.1624 66.5752 86.1611C66.5888 86.1598 66.6025 86.1613 66.6155 86.1654C66.6285 86.1696 66.6405 86.1764 66.6508 86.1853C66.6672 86.1997 66.6797 86.2179 66.6871 86.2384C66.6871 86.2384 66.6871 86.2384 66.6871 86.2552V86.2691V88.3332H66.891C66.9184 88.3332 66.9447 88.3441 66.9641 88.3635C66.9835 88.3828 66.9944 88.4091 66.9944 88.4365C66.9944 88.464 66.9835 88.4902 66.9641 88.5096C66.9447 88.529 66.9184 88.5399 66.891 88.5399H66.6871V89.0566C66.683 89.0814 66.6703 89.104 66.6511 89.1203C66.6319 89.1366 66.6075 89.1456 66.5824 89.1456C66.5572 89.1456 66.5328 89.1366 66.5137 89.1203C66.4945 89.104 66.4817 89.0814 66.4776 89.0566V88.5399ZM66.4776 88.3332V86.5708L65.0587 88.336L66.4776 88.3332Z" fill="#F8F8F8"/>
<path d="M70.2511 88.8528C70.2412 88.8429 70.2333 88.8311 70.2279 88.8182C70.2225 88.8053 70.2197 88.7914 70.2197 88.7773C70.2197 88.7633 70.2225 88.7494 70.2279 88.7365C70.2333 88.7236 70.2412 88.7118 70.2511 88.7019C70.272 88.6815 70.3001 88.67 70.3294 88.67C70.3586 88.67 70.3867 88.6815 70.4076 88.7019C70.5569 88.8484 70.757 88.9315 70.9662 88.9338C71.1769 88.9308 71.3778 88.8444 71.5248 88.6936C71.5993 88.6208 71.6584 88.5339 71.6987 88.438C71.739 88.342 71.7596 88.239 71.7595 88.1349C71.7572 87.9258 71.6741 87.7256 71.5276 87.5763C71.3756 87.4269 71.171 87.3432 70.9578 87.3432C70.7447 87.3432 70.54 87.4269 70.388 87.5763C70.3781 87.5863 70.3664 87.5942 70.3535 87.5996C70.3405 87.605 70.3266 87.6078 70.3126 87.6078C70.2986 87.6078 70.2847 87.605 70.2717 87.5996C70.2588 87.5942 70.247 87.5863 70.2372 87.5763C70.2249 87.568 70.2152 87.5564 70.2092 87.5428C70.2063 87.5309 70.2063 87.5184 70.2092 87.5065C70.21 87.5 70.21 87.4935 70.2092 87.487L70.3517 86.272C70.3515 86.2565 70.3553 86.2412 70.3626 86.2275C70.3699 86.2138 70.3806 86.2022 70.3936 86.1938C70.4131 86.1773 70.4379 86.1683 70.4634 86.1686H71.86C71.8756 86.1661 71.8915 86.167 71.9067 86.1713C71.9219 86.1755 71.936 86.183 71.948 86.1932C71.96 86.2034 71.9697 86.2162 71.9763 86.2305C71.9829 86.2448 71.9863 86.2604 71.9863 86.2762C71.9863 86.2919 71.9829 86.3075 71.9763 86.3218C71.9697 86.3362 71.96 86.3489 71.948 86.3591C71.936 86.3693 71.9219 86.3768 71.9067 86.3811C71.8915 86.3853 71.8756 86.3862 71.86 86.3837H70.5835L70.4774 87.2775C70.6327 87.1874 70.8091 87.1402 70.9885 87.1406C71.1225 87.1391 71.2554 87.1644 71.3794 87.215C71.5034 87.2655 71.6161 87.3404 71.7108 87.4351C71.8055 87.5298 71.8804 87.6424 71.9309 87.7665C71.9815 87.8905 72.0068 88.0234 72.0053 88.1573C72.0091 88.2904 71.9863 88.4229 71.9384 88.5471C71.8904 88.6713 71.8182 88.7847 71.7259 88.8807C71.5315 89.0686 71.2729 89.1754 71.0025 89.1796C70.8615 89.18 70.7219 89.1512 70.5926 89.095C70.4632 89.0387 70.347 88.9562 70.2511 88.8528Z" fill="#F8F8F8"/>
<path d="M73.1145 86.7887C73.2158 86.5956 73.3668 86.4329 73.5519 86.3175C73.737 86.2022 73.9495 86.1382 74.1676 86.1324C74.1948 86.1316 74.2213 86.1413 74.2416 86.1595C74.2618 86.1777 74.2744 86.203 74.2765 86.2301C74.2766 86.2587 74.2661 86.2862 74.247 86.3074C74.2279 86.3286 74.2015 86.3419 74.1731 86.3446C73.9901 86.3499 73.812 86.4046 73.6575 86.503C73.5031 86.6013 73.3782 86.7396 73.2961 86.9033C73.1924 87.0912 73.1206 87.2951 73.0838 87.5065C73.2364 87.3345 73.4442 87.2211 73.6714 87.1857C73.8987 87.1503 74.1311 87.1953 74.3288 87.3128C74.5265 87.4303 74.677 87.613 74.7545 87.8295C74.832 88.0461 74.8316 88.2828 74.7533 88.4991C74.6751 88.7153 74.5239 88.8975 74.3258 89.0143C74.1277 89.1311 73.8951 89.1753 73.668 89.1391C73.4409 89.103 73.2335 88.9888 73.0815 88.8162C72.9295 88.6436 72.8424 88.4235 72.8352 88.1936C72.831 88.1285 72.831 88.0632 72.8352 87.9981C72.825 87.5779 72.9211 87.1619 73.1145 86.7887ZM73.0447 88.1657C73.0429 88.1843 73.0429 88.203 73.0447 88.2216C73.0464 88.2317 73.0464 88.2421 73.0447 88.2523C73.0581 88.4578 73.1509 88.65 73.3034 88.7883C73.456 88.9266 73.6563 89.0001 73.8621 88.9934C74.0679 88.9867 74.2631 88.9003 74.4063 88.7523C74.5495 88.6044 74.6295 88.4065 74.6295 88.2006C74.6295 87.9947 74.5495 87.7969 74.4063 87.6489C74.2631 87.501 74.0679 87.4145 73.8621 87.4078C73.6563 87.4011 73.456 87.4747 73.3034 87.613C73.1509 87.7513 73.0581 87.9435 73.0447 88.149V88.1657Z" fill="#F8F8F8"/>
<path d="M75.9244 88.9895L77.0416 86.3445H75.5892C75.562 86.3438 75.5361 86.3327 75.5169 86.3135C75.4977 86.2942 75.4865 86.2684 75.4858 86.2412C75.4858 86.2142 75.4963 86.1884 75.5151 86.1691C75.5339 86.1498 75.5595 86.1386 75.5864 86.1378H77.1785C77.1993 86.1308 77.2219 86.1308 77.2428 86.1378C77.2697 86.1512 77.2906 86.1741 77.3014 86.2021C77.3027 86.2141 77.3027 86.2263 77.3014 86.2384C77.3015 86.2583 77.2956 86.2777 77.2847 86.2942L76.1255 89.0678C76.1175 89.0864 76.1043 89.1024 76.0874 89.1138C76.0706 89.1252 76.0508 89.1315 76.0305 89.132C76.0168 89.136 76.0023 89.136 75.9886 89.132C75.9619 89.1208 75.9403 89.0999 75.9284 89.0734C75.9165 89.047 75.9151 89.017 75.9244 88.9895Z" fill="#F8F8F8"/>
<path d="M78.8905 86.1155C79.0567 86.1147 79.2164 86.1799 79.3347 86.2966C79.453 86.4133 79.5203 86.5721 79.5217 86.7383C79.5211 86.8372 79.4976 86.9345 79.453 87.0227C79.4084 87.1109 79.344 87.1875 79.2648 87.2467C79.4734 87.3327 79.6458 87.4884 79.7524 87.6873C79.859 87.8862 79.8934 88.1159 79.8495 88.3372C79.8057 88.5586 79.6864 88.7579 79.512 88.9011C79.3376 89.0444 79.119 89.1227 78.8933 89.1227C78.6676 89.1227 78.4489 89.0444 78.2745 88.9011C78.1001 88.7579 77.9809 88.5586 77.937 88.3372C77.8932 88.1159 77.9275 87.8862 78.0342 87.6873C78.1408 87.4884 78.3131 87.3327 78.5218 87.2467C78.4435 87.1871 78.38 87.1102 78.3364 87.022C78.2928 86.9338 78.2702 86.8367 78.2704 86.7383C78.27 86.6567 78.2858 86.5757 78.3168 86.5002C78.3478 86.4246 78.3934 86.356 78.451 86.2981C78.5086 86.2402 78.5771 86.1943 78.6525 86.1629C78.728 86.1316 78.8088 86.1155 78.8905 86.1155ZM78.8905 88.9085C79.0431 88.9085 79.1922 88.8633 79.3191 88.7784C79.4459 88.6936 79.5447 88.573 79.603 88.432C79.6613 88.291 79.6764 88.1358 79.6464 87.9862C79.6164 87.8366 79.5427 87.6993 79.4346 87.5916C79.3265 87.4839 79.1889 87.4107 79.0392 87.3812C78.8894 87.3518 78.7343 87.3675 78.5935 87.4263C78.4527 87.485 78.3325 87.5843 78.2481 87.7114C78.1638 87.8385 78.119 87.9879 78.1196 88.1405C78.1177 88.2433 78.1365 88.3455 78.175 88.4409C78.2135 88.5363 78.2709 88.6229 78.3436 88.6957C78.4163 88.7684 78.503 88.8258 78.5984 88.8643C78.6938 88.9027 78.796 88.9216 78.8989 88.9197L78.8905 88.9085ZM78.8905 87.1545C79.0026 87.1523 79.1095 87.1064 79.1883 87.0266C79.2671 86.9468 79.3116 86.8393 79.3123 86.7272C79.3106 86.6448 79.2847 86.5647 79.2378 86.497C79.1909 86.4293 79.1251 86.3769 79.0485 86.3464C78.972 86.3159 78.8882 86.3086 78.8075 86.3255C78.7269 86.3424 78.653 86.3826 78.5952 86.4413C78.5373 86.4999 78.498 86.5743 78.4822 86.6551C78.4664 86.736 78.4747 86.8197 78.5063 86.8958C78.5378 86.9719 78.591 87.0371 78.6594 87.0831C78.7277 87.1291 78.8081 87.1539 78.8905 87.1545Z" fill="#F8F8F8"/>
<path d="M84.2454 86.1017C84.4892 86.1 84.7252 86.1882 84.9081 86.3495C85.091 86.5108 85.2081 86.7338 85.2369 86.976C85.2353 86.9833 85.2353 86.991 85.2369 86.9983C85.2369 87.0784 85.2369 87.165 85.2369 87.2581C85.2464 87.6755 85.1503 88.0886 84.9576 88.4591C84.8548 88.651 84.7034 88.8125 84.5186 88.9277C84.3339 89.0429 84.1222 89.1076 83.9046 89.1155C83.8908 89.1162 83.877 89.1142 83.864 89.1095C83.8509 89.1048 83.839 89.0976 83.8289 89.0882C83.8187 89.0788 83.8105 89.0675 83.8048 89.0549C83.7991 89.0423 83.796 89.0287 83.7956 89.0149C83.7956 88.9867 83.8062 88.9594 83.8254 88.9387C83.8445 88.918 83.8708 88.9053 83.899 88.9032C84.0819 88.8973 84.2598 88.8424 84.4141 88.7441C84.5684 88.6458 84.6934 88.5078 84.7761 88.3446C84.8814 88.1573 84.9532 87.9532 84.9883 87.7413C84.8952 87.847 84.7804 87.9314 84.6517 87.9888C84.523 88.0461 84.3834 88.0751 84.2426 88.0736C83.9796 88.0736 83.7274 87.9692 83.5414 87.7832C83.3554 87.5973 83.251 87.3451 83.251 87.0821C83.251 86.8191 83.3554 86.5669 83.5414 86.381C83.7274 86.195 83.9796 86.0906 84.2426 86.0906L84.2454 86.1017ZM85.0358 87.0905C85.0364 86.9346 84.9907 86.782 84.9044 86.6521C84.8182 86.5222 84.6954 86.4209 84.5515 86.3608C84.4076 86.3008 84.2492 86.2848 84.0962 86.3148C83.9432 86.3449 83.8026 86.4197 83.6922 86.5298C83.5817 86.6398 83.5064 86.7801 83.4758 86.933C83.4452 87.0859 83.4606 87.2444 83.5202 87.3885C83.5797 87.5325 83.6807 87.6557 83.8102 87.7424C83.9398 87.8291 84.0922 87.8753 84.2481 87.8753C84.3516 87.8761 84.4541 87.8563 84.5498 87.8172C84.6455 87.778 84.7325 87.7203 84.8058 87.6473C84.879 87.5743 84.9371 87.4875 84.9766 87.3919C85.0161 87.2963 85.0362 87.1939 85.0358 87.0905Z" fill="#F8F8F8"/>
<path d="M86.0106 87.6043C86 87.2328 86.097 86.8661 86.2899 86.5485C86.3631 86.4125 86.4717 86.2989 86.6042 86.2197C86.7367 86.1405 86.8883 86.0986 87.0427 86.0986C87.1971 86.0986 87.3486 86.1405 87.4812 86.2197C87.6137 86.2989 87.7223 86.4125 87.7954 86.5485C87.9872 86.8658 88.0885 87.2294 88.0885 87.6001C88.0885 87.9708 87.9872 88.3344 87.7954 88.6517C87.7265 88.7926 87.6194 88.9113 87.4864 88.9944C87.3533 89.0774 87.1995 89.1215 87.0427 89.1215C86.8858 89.1215 86.7321 89.0774 86.599 88.9944C86.4659 88.9113 86.3588 88.7926 86.2899 88.6517C86.0967 88.3372 85.9997 87.9732 86.0106 87.6043ZM86.2229 87.6043C86.2162 87.9332 86.3045 88.2571 86.4771 88.5372C86.5292 88.6459 86.611 88.7377 86.7131 88.8019C86.8151 88.8662 86.9333 88.9003 87.0539 88.9003C87.1744 88.9003 87.2926 88.8662 87.3946 88.8019C87.4967 88.7377 87.5785 88.6459 87.6306 88.5372C87.8007 88.2557 87.8905 87.9331 87.8905 87.6043C87.8905 87.2754 87.8007 86.9529 87.6306 86.6714C87.5782 86.5634 87.4964 86.4724 87.3947 86.4086C87.2929 86.3449 87.1753 86.3112 87.0552 86.3112C86.9352 86.3112 86.8176 86.3449 86.7158 86.4086C86.6141 86.4724 86.5323 86.5634 86.4799 86.6714C86.3058 86.9498 86.2175 87.2733 86.2257 87.6015L86.2229 87.6043Z" fill="#F8F8F8"/>
<path d="M89.4853 86.3949L89.0608 86.6434C89.0458 86.654 89.0286 86.6607 89.0105 86.663C88.9918 86.663 88.9734 86.6581 88.9573 86.6488C88.9411 86.6395 88.9276 86.6261 88.9183 86.6099C88.9105 86.5983 88.9053 86.5851 88.9031 86.5713C88.9009 86.5574 88.9016 86.5433 88.9053 86.5298C88.9091 86.5163 88.9156 86.5037 88.9246 86.493C88.9336 86.4822 88.9448 86.4735 88.9574 86.4675L89.5356 86.1128C89.5599 86.1002 89.5881 86.0972 89.6145 86.1045C89.6409 86.1117 89.6636 86.1286 89.678 86.1519C89.6921 86.1753 89.6971 86.2032 89.692 86.2301V88.9952C89.692 89.0226 89.6811 89.0489 89.6617 89.0683C89.6424 89.0876 89.6161 89.0985 89.5887 89.0985C89.5613 89.0985 89.535 89.0876 89.5156 89.0683C89.4962 89.0489 89.4853 89.0226 89.4853 88.9952V86.3949Z" fill="#F8F8F8"/>
<path d="M90.4374 88.9114L91.834 87.6406C91.9496 87.5356 92.0306 87.3981 92.0666 87.2462C92.1026 87.0943 92.0917 86.9351 92.0355 86.7895C91.9793 86.6438 91.8804 86.5186 91.7517 86.4302C91.623 86.3419 91.4706 86.2945 91.3145 86.2943C91.1211 86.2942 90.9344 86.3648 90.7894 86.4926L90.6441 86.6267C90.6347 86.6369 90.6233 86.6451 90.6105 86.6507C90.5978 86.6563 90.584 86.6592 90.5701 86.6592C90.5562 86.6592 90.5424 86.6563 90.5297 86.6507C90.517 86.6451 90.5055 86.6369 90.4961 86.6267C90.4859 86.6175 90.4778 86.6063 90.4722 86.5938C90.4667 86.5813 90.4638 86.5678 90.4638 86.5541C90.4638 86.5404 90.4667 86.5269 90.4722 86.5143C90.4778 86.5018 90.4859 86.4906 90.4961 86.4815L90.6413 86.3418C90.8245 86.1789 91.061 86.0885 91.3061 86.0876C91.5657 86.0884 91.8145 86.1914 91.9986 86.3744C92.1827 86.5575 92.2871 86.8057 92.2893 87.0652C92.29 87.2026 92.2621 87.3387 92.2072 87.4647C92.1524 87.5907 92.0719 87.7038 91.9709 87.797L90.767 88.8891H92.1916C92.2055 88.8894 92.2192 88.8925 92.232 88.8982C92.2447 88.9039 92.2562 88.912 92.2658 88.9221C92.2754 88.9323 92.2829 88.9442 92.2879 88.9572C92.2929 88.9702 92.2953 88.9841 92.2949 88.998C92.2942 89.0252 92.2831 89.0511 92.2639 89.0703C92.2446 89.0895 92.2187 89.1007 92.1916 89.1014H90.4989C90.4844 89.1026 90.4698 89.1004 90.4562 89.0951C90.4426 89.0898 90.4305 89.0814 90.4207 89.0706C90.4021 89.0472 90.3935 89.0174 90.3966 88.9876C90.3998 88.9579 90.4144 88.9305 90.4374 88.9114Z" fill="#F8F8F8"/>
<path d="M97.3702 86.2579L96.5937 87.0596C96.8251 87.1035 97.0337 87.2275 97.1828 87.4098C97.3319 87.5921 97.4121 87.8211 97.4093 88.0567C97.4105 88.1911 97.3847 88.3245 97.3334 88.4487C97.282 88.573 97.2062 88.6857 97.1104 88.7801C97.0162 88.8753 96.9039 88.9509 96.7802 89.0026C96.6565 89.0542 96.5238 89.0807 96.3898 89.0807C96.2558 89.0807 96.1231 89.0542 95.9994 89.0026C95.8757 88.9509 95.7634 88.8753 95.6691 88.7801C95.6592 88.7702 95.6513 88.7585 95.6459 88.7455C95.6405 88.7326 95.6377 88.7187 95.6377 88.7047C95.6377 88.6906 95.6405 88.6767 95.6459 88.6638C95.6513 88.6509 95.6592 88.6391 95.6691 88.6292C95.6788 88.6189 95.6905 88.6107 95.7035 88.6051C95.7164 88.5995 95.7304 88.5966 95.7446 88.5966C95.7587 88.5966 95.7727 88.5995 95.7857 88.6051C95.7986 88.6107 95.8103 88.6189 95.82 88.6292C95.9692 88.7755 96.1697 88.8577 96.3786 88.8583C96.5875 88.8549 96.7873 88.772 96.9373 88.6265C97.0478 88.5138 97.123 88.3712 97.1537 88.2163C97.1843 88.0615 97.169 87.901 97.1096 87.7547C97.0503 87.6084 96.9495 87.4827 96.8196 87.3929C96.6897 87.3031 96.5365 87.2533 96.3786 87.2495C96.3618 87.2503 96.3451 87.2469 96.33 87.2396C96.3149 87.2322 96.3018 87.2212 96.292 87.2076C96.2717 87.1872 96.2603 87.1596 96.2603 87.1308C96.2603 87.102 96.2717 87.0744 96.292 87.054L97.0378 86.2803H95.887C95.8728 86.2807 95.8587 86.2782 95.8455 86.273C95.8323 86.2679 95.8203 86.2601 95.8102 86.2502C95.8 86.2403 95.7919 86.2285 95.7864 86.2154C95.7809 86.2024 95.7781 86.1883 95.7781 86.1741C95.7777 86.16 95.7802 86.1459 95.7854 86.1327C95.7905 86.1195 95.7983 86.1074 95.8082 86.0973C95.8181 86.0871 95.8299 86.0791 95.8429 86.0736C95.856 86.0681 95.87 86.0652 95.8842 86.0652H97.2808C97.295 86.0648 97.3091 86.0673 97.3223 86.0725C97.3355 86.0777 97.3475 86.0854 97.3577 86.0953C97.3678 86.1052 97.3759 86.117 97.3814 86.1301C97.3869 86.1431 97.3898 86.1572 97.3898 86.1714C97.3945 86.1868 97.3945 86.2034 97.3898 86.2188C97.3883 86.2338 97.3813 86.2477 97.3702 86.2579Z" fill="#F8F8F8"/>
<path d="M99.9121 88.4534H98.2697C98.2583 88.4552 98.2465 88.4543 98.2354 88.4509C98.2243 88.4475 98.2141 88.4417 98.2055 88.4339C98.1944 88.4257 98.1851 88.4153 98.1783 88.4034C98.1715 88.3914 98.1673 88.3781 98.166 88.3644C98.1647 88.3507 98.1663 88.3369 98.1707 88.3238C98.1751 88.3107 98.1822 88.2988 98.1915 88.2887L99.9289 86.1157C99.937 86.1045 99.9474 86.0953 99.9594 86.0885C99.9714 86.0817 99.9847 86.0775 99.9984 86.0761C100.012 86.0748 100.026 86.0764 100.039 86.0808C100.052 86.0852 100.064 86.0923 100.074 86.1017C100.089 86.1169 100.1 86.1349 100.108 86.1548C100.108 86.1548 100.108 86.1548 100.108 86.1715V86.1855V88.2495H100.309C100.336 88.2495 100.362 88.2604 100.382 88.2798C100.401 88.2992 100.412 88.3255 100.412 88.3529C100.412 88.3803 100.401 88.4066 100.382 88.426C100.362 88.4454 100.336 88.4562 100.309 88.4562H100.108V88.9729C100.108 88.9868 100.105 89.0004 100.1 89.0132C100.094 89.0259 100.086 89.0374 100.076 89.047C100.067 89.0567 100.055 89.0642 100.042 89.0692C100.029 89.0743 100.015 89.0767 100.002 89.0763C99.9743 89.0756 99.9484 89.0645 99.9292 89.0452C99.91 89.026 99.8989 89.0001 99.8982 88.9729L99.9121 88.4534ZM99.9121 88.2468V86.4843L98.4792 88.2607L99.9121 88.2468Z" fill="#F8F8F8"/>
<path d="M101.099 88.7719C101.089 88.762 101.081 88.7503 101.076 88.7373C101.071 88.7244 101.068 88.7105 101.068 88.6965C101.068 88.6825 101.071 88.6686 101.076 88.6556C101.081 88.6427 101.089 88.6309 101.099 88.6211C101.12 88.6006 101.148 88.5891 101.178 88.5891C101.207 88.5891 101.235 88.6006 101.256 88.6211C101.33 88.6956 101.419 88.7546 101.516 88.795C101.613 88.8353 101.717 88.856 101.823 88.856C101.928 88.856 102.032 88.8353 102.13 88.795C102.227 88.7546 102.315 88.6956 102.39 88.6211C102.464 88.5482 102.523 88.4612 102.563 88.3653C102.603 88.2694 102.624 88.1665 102.624 88.0625C102.626 87.9568 102.606 87.8519 102.566 87.7539C102.527 87.656 102.468 87.567 102.393 87.4923C102.318 87.4175 102.229 87.3586 102.131 87.3188C102.033 87.2791 101.928 87.2593 101.823 87.2609C101.719 87.2617 101.616 87.2831 101.52 87.3238C101.424 87.3645 101.337 87.4238 101.264 87.4983C101.255 87.509 101.243 87.5175 101.23 87.5234C101.217 87.5293 101.203 87.5323 101.189 87.5323C101.174 87.5323 101.16 87.5293 101.147 87.5234C101.134 87.5175 101.123 87.509 101.113 87.4983C101.1 87.4907 101.09 87.4788 101.085 87.4647C101.084 87.4601 101.084 87.4554 101.085 87.4508C101.082 87.4398 101.082 87.4282 101.085 87.4173C101.085 87.4173 101.085 87.4033 101.085 87.3949L101.228 86.1799C101.228 86.1648 101.232 86.15 101.239 86.1368C101.246 86.1237 101.257 86.1125 101.27 86.1045C101.279 86.0952 101.29 86.0879 101.302 86.0831C101.314 86.0783 101.327 86.0761 101.34 86.0766H102.736C102.752 86.0741 102.768 86.075 102.783 86.0792C102.798 86.0835 102.812 86.091 102.824 86.1012C102.836 86.1114 102.846 86.1241 102.852 86.1384C102.859 86.1528 102.862 86.1684 102.862 86.1841C102.862 86.1999 102.859 86.2155 102.852 86.2298C102.846 86.2441 102.836 86.2568 102.824 86.2671C102.812 86.2773 102.798 86.2848 102.783 86.289C102.768 86.2933 102.752 86.2942 102.736 86.2917H101.426L101.32 87.1882C101.474 87.0975 101.65 87.0493 101.829 87.0483C102.008 87.0474 102.184 87.0938 102.339 87.1829C102.494 87.272 102.623 87.4005 102.712 87.5555C102.802 87.7105 102.848 87.8863 102.848 88.0652C102.85 88.1993 102.825 88.3324 102.775 88.4567C102.724 88.5809 102.649 88.6938 102.555 88.7887C102.362 88.9788 102.102 89.086 101.831 89.0875C101.694 89.0867 101.559 89.0584 101.433 89.0042C101.307 88.9499 101.194 88.8709 101.099 88.7719Z" fill="#F8F8F8"/>
<path d="M103.962 86.7104C104.063 86.5166 104.214 86.3532 104.399 86.2372C104.584 86.1213 104.797 86.0571 105.015 86.0513C105.042 86.0512 105.069 86.0616 105.088 86.0804C105.108 86.0991 105.12 86.1247 105.121 86.1518C105.122 86.1798 105.112 86.207 105.093 86.2278C105.075 86.2486 105.049 86.2614 105.021 86.2635C104.838 86.2694 104.66 86.3243 104.506 86.4226C104.351 86.5209 104.226 86.6589 104.144 86.8222C104.04 87.0105 103.968 87.2142 103.929 87.4255C104.081 87.2522 104.289 87.1373 104.516 87.1007C104.744 87.0641 104.977 87.108 105.176 87.2248C105.375 87.3417 105.527 87.5242 105.606 87.741C105.685 87.9577 105.685 88.1952 105.608 88.4124C105.531 88.6297 105.38 88.8131 105.182 88.9313C104.984 89.0494 104.751 89.0948 104.523 89.0596C104.295 89.0244 104.086 88.9109 103.933 88.7385C103.78 88.5662 103.691 88.3458 103.683 88.1153C103.679 88.0493 103.679 87.9831 103.683 87.917C103.673 87.4977 103.769 87.0828 103.962 86.7104ZM103.892 88.0846C103.891 88.1032 103.891 88.1219 103.892 88.1405C103.894 88.1507 103.894 88.161 103.892 88.1712C103.906 88.3767 103.999 88.5689 104.151 88.7072C104.304 88.8455 104.504 88.919 104.71 88.9123C104.916 88.9056 105.111 88.8192 105.254 88.6712C105.397 88.5233 105.477 88.3254 105.477 88.1195C105.477 87.9136 105.397 87.7158 105.254 87.5678C105.111 87.4199 104.916 87.3334 104.71 87.3267C104.504 87.32 104.304 87.3936 104.151 87.5319C103.999 87.6702 103.906 87.8624 103.892 88.0679V88.0846Z" fill="#F8F8F8"/>
<path d="M85.3072 94.273L59.043 94.3418L59.0463 95.6322L85.3106 95.5634L85.3072 94.273Z" fill="#A6A6A6"/>
<path d="M77.642 97.1615L59.0479 97.2102L59.0512 98.5006L77.6454 98.4519L77.642 97.1615Z" fill="#A6A6A6"/>
<path d="M94.7754 72.6608L81.6782 72.6951L81.6816 73.9855L94.7788 73.9512L94.7754 72.6608Z" fill="#A6A6A6"/>
<path d="M111.255 76.1416H52.7881V104.796H111.255V76.1416Z" fill="#FFC727"/>
<path opacity="0.2" d="M111.255 76.1416H52.7881V104.796H111.255V76.1416Z" fill="black"/>
<path d="M111.255 81.2334H52.7881V109.887H111.255V81.2334Z" fill="#FFC727"/>
<path opacity="0.3" d="M111.255 81.2334H52.7881V109.887H111.255V81.2334Z" fill="black"/>
<path d="M111.255 86.4844H52.7881V109.89H111.255V86.4844Z" fill="#FFC727"/>
<path opacity="0.2" d="M111.255 86.4844H52.7881V109.89H111.255V86.4844Z" fill="black"/>
<path d="M109.451 123.174L48.5342 114.516V64.5198L50.4894 65.9666C51.4276 66.6645 52.536 67.0976 53.6988 67.2207L109.451 73.1783V123.174Z" fill="#FFC727"/>
<path d="M48.6198 66.6523L48.4478 66.8723L48.8878 67.2165L49.0599 66.9965L48.6198 66.6523Z" fill="#FFEDB9"/>
<path d="M105.499 75.4127L104.381 75.287L104.412 75.0077L105.529 75.1334L105.499 75.4127ZM103.527 75.192L102.409 75.0663L102.44 74.787L103.557 74.9127L103.527 75.192ZM101.555 74.9714L100.437 74.8457L100.468 74.5664L101.585 74.6949L101.555 74.9714ZM99.5826 74.7507L98.4653 74.625L98.496 74.3457L99.6133 74.4714L99.5826 74.7507ZM97.6106 74.5301L96.4933 74.4044L96.524 74.1251L97.6413 74.2508L97.6106 74.5301ZM95.6553 74.3094L94.5381 74.1837L94.5688 73.9044L95.6861 74.0301L95.6553 74.3094ZM93.6833 74.0916L92.5661 73.9631L92.5968 73.6838L93.7141 73.8095L93.6833 74.0916ZM91.7114 73.8709L90.5941 73.7452L90.6248 73.4659L91.7421 73.5916L91.7114 73.8709ZM89.7394 73.6503L88.6221 73.5246L88.6528 73.2453L89.7701 73.371L89.7394 73.6503ZM87.7702 73.4296L86.6529 73.3039L86.6836 73.0246L87.8009 73.1503L87.7702 73.4296ZM85.7982 73.209L84.6809 73.0833L84.7144 72.804L85.8317 72.9297L85.7982 73.209ZM83.8262 72.9883L82.7089 72.8626L82.7396 72.5833L83.8569 72.709L83.8262 72.9883ZM81.8542 72.7677L80.7369 72.642L80.7676 72.3627L81.8849 72.4884L81.8542 72.7677ZM79.8822 72.5498L78.7649 72.4213L78.7957 72.142L79.9129 72.2677L79.8822 72.5498ZM77.9018 72.3403L76.7846 72.2146L76.8153 71.9353L77.9326 72.061L77.9018 72.3403ZM75.9298 72.1197L74.8126 71.994L74.8433 71.7147L75.9606 71.8404L75.9298 72.1197ZM73.9578 71.899L72.8406 71.7733L72.8713 71.494L73.9886 71.6225L73.9578 71.899ZM71.9859 71.6784L70.8686 71.5527L70.8993 71.2734L72.0166 71.3991L71.9859 71.6784ZM70.025 71.4465L68.9078 71.3209L68.9385 71.0415L70.0558 71.1672L70.025 71.4465ZM68.0558 71.2259L66.9386 71.1002L66.9721 70.8209L68.0894 70.9466L68.0558 71.2259ZM66.0839 71.008L64.9666 70.8796L64.9973 70.6002L66.1146 70.7259L66.0839 71.008ZM64.1119 70.7874L62.9946 70.6617L63.0253 70.3824L64.1426 70.5081L64.1119 70.7874ZM62.1399 70.5667L61.0226 70.441L61.0533 70.1617L62.1706 70.2874L62.1399 70.5667ZM60.1846 70.3461L59.0674 70.2204L59.0981 69.9411L60.2154 70.0696L60.1846 70.3461ZM58.2127 70.1254L57.0954 69.9997L57.1261 69.7204L58.2434 69.8461L58.2127 70.1254ZM56.2407 69.9048L55.1234 69.7791L55.1541 69.4998L56.2714 69.6255L56.2407 69.9048ZM54.2687 69.6841L53.5983 69.6115C53.4419 69.5919 53.2883 69.5696 53.1346 69.5417L53.1849 69.2624C53.333 69.2875 53.481 69.3099 53.629 69.3266L54.2994 69.402L54.2687 69.6841ZM52.2939 69.3322C51.9265 69.2129 51.5696 69.0634 51.2269 68.8853L51.3582 68.6367C51.686 68.8083 52.028 68.9513 52.3805 69.0641L52.2939 69.3322ZM50.4727 68.43C50.3806 68.363 50.2884 68.296 50.1934 68.2261L49.5649 67.7346L49.7353 67.5139L50.3638 68.0055C50.4504 68.0725 50.5398 68.1368 50.6291 68.201L50.4727 68.43Z" fill="#FFEDB9"/>
<path d="M107.057 75.988H106.778V75.5551L106.345 75.5048L106.375 75.2283L107.057 75.3037V75.988Z" fill="#FFEDB9"/>
<path d="M107.057 119.512H106.778V118.381H107.057V119.512ZM107.057 117.532H106.778V116.401H107.057V117.532ZM107.057 115.554H106.778V114.423H107.057V115.554ZM107.057 113.577H106.778V112.446H107.057V113.577ZM107.057 111.597H106.778V110.479H107.057V111.597ZM107.057 109.619H106.778V108.488H107.057V109.619ZM107.057 107.642H106.778V106.51H107.057V107.642ZM107.057 105.661H106.778V104.544H107.057V105.661ZM107.057 103.684H106.778V102.553H107.057V103.684ZM107.057 101.706H106.778V100.575H107.057V101.706ZM107.057 99.7289H106.778V98.5949H107.057V99.7289ZM107.057 97.7486H106.778V96.6314H107.057V97.7486ZM107.057 95.7711H106.778V94.6399H107.057V95.7711ZM107.057 93.7936H106.778V92.6624H107.057V93.7936ZM107.057 91.8133H106.778V90.6961H107.057V91.8133ZM107.057 89.8359H106.778V88.7047H107.057V89.8359ZM107.057 87.8584H106.778V86.7272H107.057V87.8584ZM107.057 85.8781H106.778V84.7609H107.057V85.8781ZM107.057 83.9006H106.778V82.7694H107.057V83.9006ZM107.057 81.9231H106.778V80.7919H107.057V81.9231ZM107.057 79.9456H106.778V78.8145H107.057V79.9456ZM107.057 77.9654H106.778V76.8481H107.057V77.9654Z" fill="#FFEDB9"/>
<path d="M107.057 121.079L106.342 120.973L106.384 120.696L106.778 120.755V120.358H107.057V121.079Z" fill="#FFEDB9"/>
<path d="M105.499 120.85L104.381 120.685L104.42 120.406L105.538 120.571L105.499 120.85ZM103.543 120.571L102.426 120.406L102.468 120.127L103.585 120.291L103.543 120.571ZM101.588 120.291L100.471 120.127L100.513 119.847L101.63 120.012L101.588 120.291ZM99.6328 120.012L98.5155 119.847L98.5574 119.568L99.6747 119.733L99.6328 120.012ZM97.6776 119.733L96.5603 119.568L96.5994 119.289L97.7167 119.454L97.6776 119.733ZM95.7224 119.454L94.6051 119.289L94.6442 119.009L95.7615 119.174L95.7224 119.454ZM93.7671 119.174L92.6498 119.009L92.6917 118.73L93.809 118.895L93.7671 119.174ZM91.8119 118.895L90.6946 118.73L90.7365 118.451L91.8538 118.616L91.8119 118.895ZM89.8567 118.616L88.7394 118.451L88.7813 118.172L89.8986 118.336L89.8567 118.616ZM87.9014 118.336L86.7842 118.172L86.826 117.892L87.9433 118.06L87.9014 118.336ZM85.9462 118.057L84.8289 117.892L84.868 117.613L85.9853 117.778L85.9462 118.057ZM83.991 117.778L82.8737 117.613L82.9156 117.334L84.0329 117.498L83.991 117.778ZM82.0357 117.498L80.9185 117.334L80.9604 117.054L82.0776 117.219L82.0357 117.498ZM80.0805 117.219L78.9632 117.054L79.0051 116.775L80.1224 116.943L80.0805 117.219ZM78.1253 116.94L77.008 116.775L77.0499 116.496L78.1672 116.661L78.1253 116.94ZM76.17 116.661L75.0528 116.496L75.0919 116.216L76.2092 116.384L76.17 116.661ZM74.2148 116.381L73.0975 116.216L73.1366 115.937L74.2539 116.102L74.2148 116.381ZM72.2596 116.102L71.1423 115.937L71.1842 115.658L72.3015 115.823L72.2596 116.102ZM70.3044 115.823L69.1871 115.658L69.229 115.379L70.3462 115.543L70.3044 115.823ZM68.3491 115.543L67.2318 115.379L67.2737 115.099L68.391 115.267L68.3491 115.543ZM66.3939 115.264L65.2766 115.099L65.3157 114.82L66.433 114.985L66.3939 115.264ZM64.4387 114.985L63.3214 114.82L63.3633 114.541L64.4806 114.708L64.4387 114.985ZM62.4834 114.705L61.3662 114.541L61.408 114.261L62.5253 114.426L62.4834 114.705ZM60.5282 114.426L59.4109 114.261L59.4528 113.982L60.5701 114.15L60.5282 114.426ZM58.573 114.147L57.4557 113.982L57.4976 113.703L58.6149 113.867L58.573 114.147ZM56.6177 113.867L55.5005 113.703L55.5396 113.423L56.6568 113.591L56.6177 113.867ZM54.6625 113.588L53.5452 113.423L53.5871 113.144L54.7044 113.309L54.6625 113.588ZM52.7073 113.309L51.59 113.144L51.6319 112.865L52.7492 113.032L52.7073 113.309ZM50.752 113.03L49.6348 112.865L49.6767 112.585L50.7939 112.75L50.752 113.03Z" fill="#FFEDB9"/>
<path d="M48.5542 112.103L48.5132 112.379L49.0658 112.461L49.1068 112.185L48.5542 112.103Z" fill="#FFEDB9"/>
<path d="M101.596 100.642C102.937 100.642 104.024 99.4043 104.024 97.8772C104.024 96.35 102.937 95.1121 101.596 95.1121C100.256 95.1121 99.1689 96.35 99.1689 97.8772C99.1689 99.4043 100.256 100.642 101.596 100.642Z" fill="#EBEBEB"/>
<path d="M102.727 97.8771C102.7 98.0945 102.61 98.2991 102.468 98.4667C102.327 98.6342 102.14 98.7574 101.931 98.8215C101.721 98.8857 101.498 98.888 101.287 98.8283C101.076 98.7686 100.887 98.6494 100.742 98.4849C100.597 98.3204 100.503 98.1177 100.47 97.9009C100.438 97.6842 100.468 97.4627 100.558 97.263C100.649 97.0632 100.794 96.8937 100.979 96.7748C101.163 96.6558 101.377 96.5925 101.596 96.5923C101.916 96.6138 102.215 96.761 102.427 97.0017C102.638 97.2423 102.747 97.557 102.727 97.8771Z" fill="#DBDBDB"/>
<path d="M96.049 109.7C107.63 111.778 104.571 128.93 92.9765 126.85C81.382 124.769 84.4517 107.619 96.049 109.7Z" fill="#FFC727"/>
<path opacity="0.2" d="M96.049 109.7C107.63 111.778 104.571 128.93 92.9765 126.85C81.382 124.769 84.4517 107.619 96.049 109.7Z" fill="black"/>
<path d="M94.9624 109.505C105.998 111.485 102.937 128.637 91.8899 126.654C80.8428 124.671 83.907 107.533 94.9624 109.505Z" fill="#FFC727"/>
<path opacity="0.1" d="M94.9624 109.505C105.998 111.485 102.937 128.637 91.8899 126.654C80.8428 124.671 83.907 107.533 94.9624 109.505Z" fill="black"/>
<path opacity="0.1" d="M86.4238 118.484C86.4825 121.54 88.2618 124.5 92.1471 125.188C101.32 126.835 103.859 112.596 94.7 110.943C94.6414 110.943 94.5827 110.921 94.5213 110.915C103.11 112.633 100.647 126.106 91.9013 124.537C88.3344 123.917 86.6138 121.28 86.4238 118.484Z" fill="black"/>
<g opacity="0.1">
<path d="M94.3758 112.742C94.4502 112.761 94.5142 112.808 94.5539 112.874C94.5936 112.94 94.6059 113.019 94.5881 113.094L94.4708 113.566C95.221 113.816 95.8794 114.285 96.3617 114.912C96.403 114.952 96.4333 115.001 96.45 115.056C96.4666 115.111 96.4689 115.169 96.4567 115.225C96.4352 115.303 96.3834 115.37 96.3127 115.41C96.242 115.451 96.1582 115.461 96.0796 115.44C96.0397 115.433 96.0018 115.417 95.9685 115.394C95.9352 115.371 95.9074 115.341 95.8869 115.306C95.491 114.759 94.9432 114.34 94.3115 114.102L93.4876 117.395C95.183 118.219 95.7696 119.071 95.4819 120.23C95.1691 121.478 93.9009 122.098 92.4094 121.78L92.1803 122.696C92.1618 122.77 92.1146 122.834 92.0492 122.873C91.9837 122.913 91.9053 122.924 91.8312 122.906C91.7571 122.887 91.6934 122.84 91.6541 122.774C91.6149 122.709 91.6032 122.631 91.6217 122.557L91.8535 121.626C90.8869 121.306 90.0552 120.672 89.4905 119.825C89.4628 119.793 89.4421 119.756 89.4295 119.715C89.4169 119.675 89.4128 119.632 89.4173 119.59C89.4219 119.548 89.4351 119.508 89.4561 119.471C89.4771 119.435 89.5054 119.403 89.5393 119.377C89.5732 119.352 89.612 119.334 89.6531 119.325C89.6943 119.315 89.737 119.314 89.7785 119.322C89.8201 119.329 89.8596 119.345 89.8946 119.369C89.9297 119.393 89.9594 119.423 89.9821 119.459C90.4504 120.223 91.166 120.803 92.01 121.104L92.8479 117.752C91.172 116.915 90.6134 116.093 90.8927 114.918C91.172 113.742 92.4513 113.08 93.8954 113.404L94.0071 112.957C94.0141 112.917 94.0297 112.879 94.0529 112.845C94.0762 112.812 94.1064 112.784 94.1415 112.764C94.1766 112.743 94.2157 112.731 94.2562 112.727C94.2967 112.723 94.3375 112.728 94.3758 112.742ZM93.0015 117.149L93.8032 113.937C92.6552 113.675 91.7334 114.169 91.5211 115.018C91.3228 115.817 91.5742 116.406 93.0015 117.149ZM93.3395 117.987L92.5295 121.235C93.7138 121.515 94.6495 121.015 94.873 120.118C95.0741 119.317 94.7864 118.719 93.3395 117.995V117.987Z" fill="black"/>
</g>
<path d="M67.9163 15.3003C56.2994 15.3003 56.2799 31.8212 67.9163 31.8212C79.5527 31.8212 79.5527 15.3003 67.9163 15.3003Z" fill="#FFC727"/>
<path opacity="0.1" d="M67.9163 15.3003C56.2994 15.3003 56.2799 31.8212 67.9163 31.8212C79.5527 31.8212 79.5527 15.3003 67.9163 15.3003Z" fill="black"/>
<path opacity="0.1" d="M74.9802 25.1096C74.3602 27.9502 72.0055 30.4164 67.9135 30.4164C58.2574 30.4164 58.2742 16.7053 67.9135 16.7053H68.1034C59.0311 16.8729 59.0758 29.8578 68.2822 29.8578C72.039 29.8606 74.2764 27.6876 74.9802 25.1096Z" fill="black"/>
<g opacity="0.1">
<path d="M67.9857 18.5122C68.0623 18.5106 68.1366 18.5389 68.1929 18.591C68.2491 18.6431 68.283 18.7149 68.2873 18.7915V19.2524C69.093 19.3052 69.8674 19.584 70.5219 20.0568C70.6336 20.1378 70.6979 20.2048 70.6979 20.3361C70.6894 20.4156 70.6508 20.4888 70.59 20.5407C70.5293 20.5927 70.4509 20.6194 70.371 20.6154C70.2882 20.6175 70.2075 20.5886 70.1448 20.5344C69.5966 20.1171 68.9445 19.8582 68.2594 19.7858V22.9978C70.1699 23.3665 70.9744 24.0201 70.9744 25.1485C70.9744 26.3663 69.8571 27.2293 68.2845 27.2768V28.1734C68.2845 28.2534 68.2528 28.3301 68.1962 28.3867C68.1396 28.4433 68.0629 28.475 67.9829 28.475C67.9029 28.475 67.8261 28.4433 67.7696 28.3867C67.713 28.3301 67.6812 28.2534 67.6812 28.1734V27.2628C66.6439 27.1978 65.6536 26.8068 64.8517 26.1456C64.8109 26.1199 64.7771 26.0846 64.7532 26.0427C64.7293 26.0008 64.7162 25.9536 64.7148 25.9054C64.7231 25.8284 64.7597 25.7572 64.8175 25.7056C64.8753 25.654 64.9502 25.6257 65.0277 25.6261C65.1108 25.6225 65.192 25.6516 65.2539 25.7071C65.9377 26.3101 66.7978 26.6764 67.7063 26.7517V23.4615C65.8209 23.0816 65.0416 22.4476 65.0416 21.2997C65.0416 20.1517 66.1589 19.2524 67.6812 19.2188V18.7887C67.6855 18.7119 67.7199 18.6399 67.7768 18.5881C67.8338 18.5364 67.9088 18.5091 67.9857 18.5122ZM67.7063 22.8833V19.7439C66.4857 19.7663 65.6813 20.4338 65.6813 21.2606C65.6841 22.0426 66.0863 22.5258 67.7091 22.8833H67.7063ZM68.265 23.5844V26.7573C69.5219 26.735 70.3375 26.0674 70.3375 25.1932C70.3347 24.4 69.8962 23.9168 68.2622 23.5844H68.265Z" fill="black"/>
</g>
<path d="M24.6497 44.2001C33.1075 45.7195 30.8729 58.2464 22.4152 56.7269C13.9574 55.2075 16.178 42.6806 24.6497 44.2001Z" fill="#FFC727"/>
<path opacity="0.2" d="M24.6497 44.2001C33.1075 45.7195 30.8729 58.2464 22.4152 56.7269C13.9574 55.2075 16.178 42.6806 24.6497 44.2001Z" fill="black"/>
<path d="M23.8563 44.0577C31.9146 45.5045 29.6801 58.023 21.6217 56.5845C13.5634 55.1461 15.7812 42.6109 23.8563 44.0577Z" fill="#FFC727"/>
<path opacity="0.1" d="M23.8563 44.0577C31.9146 45.5045 29.6801 58.023 21.6217 56.5845C13.5634 55.1461 15.7812 42.6109 23.8563 44.0577Z" fill="black"/>
<path opacity="0.1" d="M17.6191 50.6158C17.6638 52.8502 18.9627 55.0121 21.8089 55.5204C28.5126 56.7214 30.3617 46.3229 23.6748 45.1246L23.5435 45.1023C29.8142 46.3592 28.0126 56.1991 21.6302 55.0512C19.0157 54.5847 17.7588 52.6575 17.6191 50.6158Z" fill="black"/>
<g opacity="0.1">
<path d="M23.2054 46.038C23.2602 46.0488 23.3085 46.0806 23.3403 46.1264C23.3721 46.1723 23.3848 46.2287 23.3758 46.2838L23.3116 46.6441C23.8691 46.7941 24.369 47.1073 24.7473 47.5434C24.7793 47.5703 24.8038 47.605 24.8185 47.6442C24.8331 47.6833 24.8375 47.7256 24.831 47.7669C24.8252 47.7972 24.8132 47.826 24.7957 47.8514C24.7782 47.8769 24.7556 47.8984 24.7293 47.9147C24.7031 47.931 24.6738 47.9416 24.6432 47.946C24.6126 47.9503 24.5815 47.9483 24.5517 47.9401C24.5225 47.9365 24.4944 47.9267 24.4693 47.9113C24.4442 47.8959 24.4228 47.8752 24.4065 47.8507C24.0925 47.4706 23.6754 47.1893 23.2054 47.0407L22.7501 49.479C24.021 50.0069 24.4875 50.5963 24.3283 51.4593C24.1551 52.3838 23.2585 52.8921 22.1636 52.7246L22.0379 53.4033C22.0275 53.4588 21.9955 53.508 21.9489 53.5399C21.9022 53.5719 21.8448 53.584 21.7893 53.5737C21.7337 53.5633 21.6845 53.5313 21.6526 53.4846C21.6206 53.438 21.6085 53.3806 21.6189 53.3251L21.7474 52.638C21.029 52.445 20.3951 52.0186 19.9458 51.4258C19.92 51.4003 19.901 51.3689 19.8903 51.3343C19.8795 51.2997 19.8775 51.263 19.8843 51.2275C19.8971 51.171 19.9305 51.1213 19.9781 51.0882C20.0256 51.0551 20.0839 51.041 20.1413 51.0487C20.1703 51.0531 20.1981 51.0633 20.223 51.0786C20.248 51.094 20.2696 51.1142 20.2865 51.1381C20.6602 51.6769 21.2074 52.0712 21.8368 52.2553L22.3004 49.7751C21.0463 49.2444 20.5966 48.6579 20.7586 47.792C20.9206 46.9262 21.8144 46.3955 22.8814 46.5575L22.9429 46.2279C22.9457 46.1973 22.955 46.1677 22.9702 46.1411C22.9854 46.1144 23.0061 46.0913 23.031 46.0733C23.0558 46.0553 23.0843 46.0428 23.1144 46.0367C23.1445 46.0307 23.1755 46.0311 23.2054 46.038ZM22.3982 49.3114L22.8395 46.9234C22.0015 46.7809 21.3396 47.1831 21.2223 47.8116C21.1049 48.44 21.3228 48.831 22.3982 49.3114ZM22.6775 49.9147L22.2306 52.3168C23.1049 52.462 23.7641 52.0626 23.8897 51.4007C24.0043 50.8001 23.7668 50.3756 22.6803 49.9147H22.6775Z" fill="black"/>
</g>
</svg>
